G04 #@! TF.FileFunction,Copper,L1,Top,Signal*
%FSLAX46Y46*%
G04 Gerber Fmt 4.6, Leading zero omitted, Abs format (unit mm)*
G04 Created by KiCad (PCBNEW 4.0.6) date 06/24/17 22:10:55*
%MOMM*%
%LPD*%
G01*
G04 APERTURE LIST*
%ADD10C,0.100000*%
%ADD11C,0.150000*%
%ADD12C,0.300000*%
%ADD13C,0.400000*%
%ADD14R,2.000000X2.000000*%
%ADD15R,9.400000X10.800000*%
%ADD16R,4.600000X2.500000*%
%ADD17R,5.000000X5.000000*%
%ADD18R,5.000000X4.000000*%
%ADD19R,2.000000X1.700000*%
%ADD20R,1.270000X2.540000*%
%ADD21R,2.700000X2.000000*%
%ADD22R,1.600000X1.600000*%
%ADD23C,0.600000*%
%ADD24C,0.127000*%
G04 APERTURE END LIST*
D10*
D11*
X79999600Y-155999600D02*
X79999600Y-187999600D01*
X187999600Y-187999600D01*
X187999600Y-155999600D01*
X79999600Y-155999600D01*
D10*
D11*
X10000000Y-10000000D02*
X10000000Y-189999600D01*
X189999600Y-189999600D01*
X189999600Y-10000000D01*
X10000000Y-10000000D01*
D10*
D11*
X12000000Y-12000000D02*
X12000000Y-187999600D01*
X187999600Y-187999600D01*
X187999600Y-12000000D01*
X12000000Y-12000000D01*
D10*
D11*
X60000000Y-12000000D02*
X60000000Y-10000000D01*
D10*
D11*
X110000000Y-12000000D02*
X110000000Y-10000000D01*
D10*
D11*
X160000000Y-12000000D02*
X160000000Y-10000000D01*
D10*
D11*
X35990476Y-11588095D02*
X35247619Y-11588095D01*
X35619048Y-11588095D02*
X35619048Y-10288095D01*
X35495238Y-10473810D01*
X35371429Y-10597619D01*
X35247619Y-10659524D01*
D10*
D11*
X85247619Y-10411905D02*
X85309524Y-10350000D01*
X85433333Y-10288095D01*
X85742857Y-10288095D01*
X85866667Y-10350000D01*
X85928571Y-10411905D01*
X85990476Y-10535714D01*
X85990476Y-10659524D01*
X85928571Y-10845238D01*
X85185714Y-11588095D01*
X85990476Y-11588095D01*
D10*
D11*
X135185714Y-10288095D02*
X135990476Y-10288095D01*
X135557143Y-10783333D01*
X135742857Y-10783333D01*
X135866667Y-10845238D01*
X135928571Y-10907143D01*
X135990476Y-11030952D01*
X135990476Y-11340476D01*
X135928571Y-11464286D01*
X135866667Y-11526190D01*
X135742857Y-11588095D01*
X135371429Y-11588095D01*
X135247619Y-11526190D01*
X135185714Y-11464286D01*
D10*
D11*
X185866667Y-10721429D02*
X185866667Y-11588095D01*
X185557143Y-10226190D02*
X185247619Y-11154762D01*
X186052381Y-11154762D01*
D10*
D11*
X60000000Y-187999600D02*
X60000000Y-189999600D01*
D10*
D11*
X110000000Y-187999600D02*
X110000000Y-189999600D01*
D10*
D11*
X160000000Y-187999600D02*
X160000000Y-189999600D01*
D10*
D11*
X35990476Y-189587695D02*
X35247619Y-189587695D01*
X35619048Y-189587695D02*
X35619048Y-188287695D01*
X35495238Y-188473410D01*
X35371429Y-188597219D01*
X35247619Y-188659124D01*
D10*
D11*
X85247619Y-188411505D02*
X85309524Y-188349600D01*
X85433333Y-188287695D01*
X85742857Y-188287695D01*
X85866667Y-188349600D01*
X85928571Y-188411505D01*
X85990476Y-188535314D01*
X85990476Y-188659124D01*
X85928571Y-188844838D01*
X85185714Y-189587695D01*
X85990476Y-189587695D01*
D10*
D11*
X135185714Y-188287695D02*
X135990476Y-188287695D01*
X135557143Y-188782933D01*
X135742857Y-188782933D01*
X135866667Y-188844838D01*
X135928571Y-188906743D01*
X135990476Y-189030552D01*
X135990476Y-189340076D01*
X135928571Y-189463886D01*
X135866667Y-189525790D01*
X135742857Y-189587695D01*
X135371429Y-189587695D01*
X135247619Y-189525790D01*
X135185714Y-189463886D01*
D10*
D11*
X185866667Y-188721029D02*
X185866667Y-189587695D01*
X185557143Y-188225790D02*
X185247619Y-189154362D01*
X186052381Y-189154362D01*
D10*
D11*
X10000000Y-60000000D02*
X12000000Y-60000000D01*
D10*
D11*
X10000000Y-110000000D02*
X12000000Y-110000000D01*
D10*
D11*
X10000000Y-160000000D02*
X12000000Y-160000000D01*
D10*
D11*
X10690476Y-35216667D02*
X11309524Y-35216667D01*
X10566667Y-35588095D02*
X11000000Y-34288095D01*
X11433333Y-35588095D01*
D10*
D11*
X11092857Y-84907143D02*
X11278571Y-84969048D01*
X11340476Y-85030952D01*
X11402381Y-85154762D01*
X11402381Y-85340476D01*
X11340476Y-85464286D01*
X11278571Y-85526190D01*
X11154762Y-85588095D01*
X10659524Y-85588095D01*
X10659524Y-84288095D01*
X11092857Y-84288095D01*
X11216667Y-84350000D01*
X11278571Y-84411905D01*
X11340476Y-84535714D01*
X11340476Y-84659524D01*
X11278571Y-84783333D01*
X11216667Y-84845238D01*
X11092857Y-84907143D01*
X10659524Y-84907143D01*
D10*
D11*
X11402381Y-135464286D02*
X11340476Y-135526190D01*
X11154762Y-135588095D01*
X11030952Y-135588095D01*
X10845238Y-135526190D01*
X10721429Y-135402381D01*
X10659524Y-135278571D01*
X10597619Y-135030952D01*
X10597619Y-134845238D01*
X10659524Y-134597619D01*
X10721429Y-134473810D01*
X10845238Y-134350000D01*
X11030952Y-134288095D01*
X11154762Y-134288095D01*
X11340476Y-134350000D01*
X11402381Y-134411905D01*
D10*
D11*
X10659524Y-185588095D02*
X10659524Y-184288095D01*
X10969048Y-184288095D01*
X11154762Y-184350000D01*
X11278571Y-184473810D01*
X11340476Y-184597619D01*
X11402381Y-184845238D01*
X11402381Y-185030952D01*
X11340476Y-185278571D01*
X11278571Y-185402381D01*
X11154762Y-185526190D01*
X10969048Y-185588095D01*
X10659524Y-185588095D01*
D10*
D11*
X189999600Y-60000000D02*
X187999600Y-60000000D01*
D10*
D11*
X189999600Y-110000000D02*
X187999600Y-110000000D01*
D10*
D11*
X189999600Y-160000000D02*
X187999600Y-160000000D01*
D10*
D11*
X188690076Y-35216667D02*
X189309124Y-35216667D01*
X188566267Y-35588095D02*
X188999600Y-34288095D01*
X189432933Y-35588095D01*
D10*
D11*
X189092457Y-84907143D02*
X189278171Y-84969048D01*
X189340076Y-85030952D01*
X189401981Y-85154762D01*
X189401981Y-85340476D01*
X189340076Y-85464286D01*
X189278171Y-85526190D01*
X189154362Y-85588095D01*
X188659124Y-85588095D01*
X188659124Y-84288095D01*
X189092457Y-84288095D01*
X189216267Y-84350000D01*
X189278171Y-84411905D01*
X189340076Y-84535714D01*
X189340076Y-84659524D01*
X189278171Y-84783333D01*
X189216267Y-84845238D01*
X189092457Y-84907143D01*
X188659124Y-84907143D01*
D10*
D11*
X189401981Y-135464286D02*
X189340076Y-135526190D01*
X189154362Y-135588095D01*
X189030552Y-135588095D01*
X188844838Y-135526190D01*
X188721029Y-135402381D01*
X188659124Y-135278571D01*
X188597219Y-135030952D01*
X188597219Y-134845238D01*
X188659124Y-134597619D01*
X188721029Y-134473810D01*
X188844838Y-134350000D01*
X189030552Y-134288095D01*
X189154362Y-134288095D01*
X189340076Y-134350000D01*
X189401981Y-134411905D01*
D10*
D11*
X188659124Y-185588095D02*
X188659124Y-184288095D01*
X188968648Y-184288095D01*
X189154362Y-184350000D01*
X189278171Y-184473810D01*
X189340076Y-184597619D01*
X189401981Y-184845238D01*
X189401981Y-185030952D01*
X189340076Y-185278571D01*
X189278171Y-185402381D01*
X189154362Y-185526190D01*
X188968648Y-185588095D01*
X188659124Y-185588095D01*
D10*
D11*
X103356743Y-183778171D02*
X103356743Y-182278171D01*
X103713886Y-182278171D01*
X103928171Y-182349600D01*
X104071029Y-182492457D01*
X104142457Y-182635314D01*
X104213886Y-182921029D01*
X104213886Y-183135314D01*
X104142457Y-183421029D01*
X104071029Y-183563886D01*
X103928171Y-183706743D01*
X103713886Y-183778171D01*
X103356743Y-183778171D01*
X105499600Y-183778171D02*
X105499600Y-182992457D01*
X105428171Y-182849600D01*
X105285314Y-182778171D01*
X104999600Y-182778171D01*
X104856743Y-182849600D01*
X105499600Y-183706743D02*
X105356743Y-183778171D01*
X104999600Y-183778171D01*
X104856743Y-183706743D01*
X104785314Y-183563886D01*
X104785314Y-183421029D01*
X104856743Y-183278171D01*
X104999600Y-183206743D01*
X105356743Y-183206743D01*
X105499600Y-183135314D01*
X105999600Y-182778171D02*
X106571029Y-182778171D01*
X106213886Y-182278171D02*
X106213886Y-183563886D01*
X106285314Y-183706743D01*
X106428172Y-183778171D01*
X106571029Y-183778171D01*
X107642457Y-183706743D02*
X107499600Y-183778171D01*
X107213886Y-183778171D01*
X107071029Y-183706743D01*
X106999600Y-183563886D01*
X106999600Y-182992457D01*
X107071029Y-182849600D01*
X107213886Y-182778171D01*
X107499600Y-182778171D01*
X107642457Y-182849600D01*
X107713886Y-182992457D01*
X107713886Y-183135314D01*
X106999600Y-183278171D01*
X108356743Y-183635314D02*
X108428171Y-183706743D01*
X108356743Y-183778171D01*
X108285314Y-183706743D01*
X108356743Y-183635314D01*
X108356743Y-183778171D01*
X108356743Y-182849600D02*
X108428171Y-182921029D01*
X108356743Y-182992457D01*
X108285314Y-182921029D01*
X108356743Y-182849600D01*
X108356743Y-182992457D01*
X110142457Y-182421029D02*
X110213886Y-182349600D01*
X110356743Y-182278171D01*
X110713886Y-182278171D01*
X110856743Y-182349600D01*
X110928172Y-182421029D01*
X110999600Y-182563886D01*
X110999600Y-182706743D01*
X110928172Y-182921029D01*
X110071029Y-183778171D01*
X110999600Y-183778171D01*
X111928171Y-182278171D02*
X112071028Y-182278171D01*
X112213885Y-182349600D01*
X112285314Y-182421029D01*
X112356743Y-182563886D01*
X112428171Y-182849600D01*
X112428171Y-183206743D01*
X112356743Y-183492457D01*
X112285314Y-183635314D01*
X112213885Y-183706743D01*
X112071028Y-183778171D01*
X111928171Y-183778171D01*
X111785314Y-183706743D01*
X111713885Y-183635314D01*
X111642457Y-183492457D01*
X111571028Y-183206743D01*
X111571028Y-182849600D01*
X111642457Y-182563886D01*
X111713885Y-182421029D01*
X111785314Y-182349600D01*
X111928171Y-182278171D01*
X113856742Y-183778171D02*
X112999599Y-183778171D01*
X113428171Y-183778171D02*
X113428171Y-182278171D01*
X113285314Y-182492457D01*
X113142456Y-182635314D01*
X112999599Y-182706743D01*
X114356742Y-182278171D02*
X115356742Y-182278171D01*
X114713885Y-183778171D01*
X115928170Y-183206743D02*
X117071027Y-183206743D01*
X118071027Y-182278171D02*
X118213884Y-182278171D01*
X118356741Y-182349600D01*
X118428170Y-182421029D01*
X118499599Y-182563886D01*
X118571027Y-182849600D01*
X118571027Y-183206743D01*
X118499599Y-183492457D01*
X118428170Y-183635314D01*
X118356741Y-183706743D01*
X118213884Y-183778171D01*
X118071027Y-183778171D01*
X117928170Y-183706743D01*
X117856741Y-183635314D01*
X117785313Y-183492457D01*
X117713884Y-183206743D01*
X117713884Y-182849600D01*
X117785313Y-182563886D01*
X117856741Y-182421029D01*
X117928170Y-182349600D01*
X118071027Y-182278171D01*
X119071027Y-182278171D02*
X119999598Y-182278171D01*
X119499598Y-182849600D01*
X119713884Y-182849600D01*
X119856741Y-182921029D01*
X119928170Y-182992457D01*
X119999598Y-183135314D01*
X119999598Y-183492457D01*
X119928170Y-183635314D01*
X119856741Y-183706743D01*
X119713884Y-183778171D01*
X119285312Y-183778171D01*
X119142455Y-183706743D01*
X119071027Y-183635314D01*
X120642455Y-183206743D02*
X121785312Y-183206743D01*
X122356741Y-182278171D02*
X123285312Y-182278171D01*
X122785312Y-182849600D01*
X122999598Y-182849600D01*
X123142455Y-182921029D01*
X123213884Y-182992457D01*
X123285312Y-183135314D01*
X123285312Y-183492457D01*
X123213884Y-183635314D01*
X123142455Y-183706743D01*
X122999598Y-183778171D01*
X122571026Y-183778171D01*
X122428169Y-183706743D01*
X122356741Y-183635314D01*
X124713883Y-183778171D02*
X123856740Y-183778171D01*
X124285312Y-183778171D02*
X124285312Y-182278171D01*
X124142455Y-182492457D01*
X123999597Y-182635314D01*
X123856740Y-182706743D01*
D10*
D11*
X79999600Y-184499600D02*
X187999600Y-184499600D01*
D10*
D11*
X81356743Y-186578171D02*
X81356743Y-185078171D01*
X82213886Y-186578171D02*
X81571029Y-185721029D01*
X82213886Y-185078171D02*
X81356743Y-185935314D01*
X82856743Y-186578171D02*
X82856743Y-185578171D01*
X82856743Y-185078171D02*
X82785314Y-185149600D01*
X82856743Y-185221029D01*
X82928171Y-185149600D01*
X82856743Y-185078171D01*
X82856743Y-185221029D01*
X84428172Y-186435314D02*
X84356743Y-186506743D01*
X84142457Y-186578171D01*
X83999600Y-186578171D01*
X83785315Y-186506743D01*
X83642457Y-186363886D01*
X83571029Y-186221029D01*
X83499600Y-185935314D01*
X83499600Y-185721029D01*
X83571029Y-185435314D01*
X83642457Y-185292457D01*
X83785315Y-185149600D01*
X83999600Y-185078171D01*
X84142457Y-185078171D01*
X84356743Y-185149600D01*
X84428172Y-185221029D01*
X85713886Y-186578171D02*
X85713886Y-185792457D01*
X85642457Y-185649600D01*
X85499600Y-185578171D01*
X85213886Y-185578171D01*
X85071029Y-185649600D01*
X85713886Y-186506743D02*
X85571029Y-186578171D01*
X85213886Y-186578171D01*
X85071029Y-186506743D01*
X84999600Y-186363886D01*
X84999600Y-186221029D01*
X85071029Y-186078171D01*
X85213886Y-186006743D01*
X85571029Y-186006743D01*
X85713886Y-185935314D01*
X87071029Y-186578171D02*
X87071029Y-185078171D01*
X87071029Y-186506743D02*
X86928172Y-186578171D01*
X86642458Y-186578171D01*
X86499600Y-186506743D01*
X86428172Y-186435314D01*
X86356743Y-186292457D01*
X86356743Y-185863886D01*
X86428172Y-185721029D01*
X86499600Y-185649600D01*
X86642458Y-185578171D01*
X86928172Y-185578171D01*
X87071029Y-185649600D01*
X88928172Y-185792457D02*
X89428172Y-185792457D01*
X89642458Y-186578171D02*
X88928172Y-186578171D01*
X88928172Y-185078171D01*
X89642458Y-185078171D01*
X90285315Y-186435314D02*
X90356743Y-186506743D01*
X90285315Y-186578171D01*
X90213886Y-186506743D01*
X90285315Y-186435314D01*
X90285315Y-186578171D01*
X90999601Y-186578171D02*
X90999601Y-185078171D01*
X91356744Y-185078171D01*
X91571029Y-185149600D01*
X91713887Y-185292457D01*
X91785315Y-185435314D01*
X91856744Y-185721029D01*
X91856744Y-185935314D01*
X91785315Y-186221029D01*
X91713887Y-186363886D01*
X91571029Y-186506743D01*
X91356744Y-186578171D01*
X90999601Y-186578171D01*
X92499601Y-186435314D02*
X92571029Y-186506743D01*
X92499601Y-186578171D01*
X92428172Y-186506743D01*
X92499601Y-186435314D01*
X92499601Y-186578171D01*
X93142458Y-186149600D02*
X93856744Y-186149600D01*
X92999601Y-186578171D02*
X93499601Y-185078171D01*
X93999601Y-186578171D01*
X94499601Y-186435314D02*
X94571029Y-186506743D01*
X94499601Y-186578171D01*
X94428172Y-186506743D01*
X94499601Y-186435314D01*
X94499601Y-186578171D01*
X97499601Y-186578171D02*
X97499601Y-185078171D01*
X97642458Y-186006743D02*
X98071029Y-186578171D01*
X98071029Y-185578171D02*
X97499601Y-186149600D01*
X98713887Y-186578171D02*
X98713887Y-185578171D01*
X98713887Y-185078171D02*
X98642458Y-185149600D01*
X98713887Y-185221029D01*
X98785315Y-185149600D01*
X98713887Y-185078171D01*
X98713887Y-185221029D01*
X100071030Y-186506743D02*
X99928173Y-186578171D01*
X99642459Y-186578171D01*
X99499601Y-186506743D01*
X99428173Y-186435314D01*
X99356744Y-186292457D01*
X99356744Y-185863886D01*
X99428173Y-185721029D01*
X99499601Y-185649600D01*
X99642459Y-185578171D01*
X99928173Y-185578171D01*
X100071030Y-185649600D01*
X101356744Y-186578171D02*
X101356744Y-185792457D01*
X101285315Y-185649600D01*
X101142458Y-185578171D01*
X100856744Y-185578171D01*
X100713887Y-185649600D01*
X101356744Y-186506743D02*
X101213887Y-186578171D01*
X100856744Y-186578171D01*
X100713887Y-186506743D01*
X100642458Y-186363886D01*
X100642458Y-186221029D01*
X100713887Y-186078171D01*
X100856744Y-186006743D01*
X101213887Y-186006743D01*
X101356744Y-185935314D01*
X102713887Y-186578171D02*
X102713887Y-185078171D01*
X102713887Y-186506743D02*
X102571030Y-186578171D01*
X102285316Y-186578171D01*
X102142458Y-186506743D01*
X102071030Y-186435314D01*
X101999601Y-186292457D01*
X101999601Y-185863886D01*
X102071030Y-185721029D01*
X102142458Y-185649600D01*
X102285316Y-185578171D01*
X102571030Y-185578171D01*
X102713887Y-185649600D01*
X105213887Y-185578171D02*
X105213887Y-186578171D01*
X104856744Y-185006743D02*
X104499601Y-186078171D01*
X105428173Y-186078171D01*
X105999601Y-186435314D02*
X106071029Y-186506743D01*
X105999601Y-186578171D01*
X105928172Y-186506743D01*
X105999601Y-186435314D01*
X105999601Y-186578171D01*
X106999601Y-185078171D02*
X107142458Y-185078171D01*
X107285315Y-185149600D01*
X107356744Y-185221029D01*
X107428173Y-185363886D01*
X107499601Y-185649600D01*
X107499601Y-186006743D01*
X107428173Y-186292457D01*
X107356744Y-186435314D01*
X107285315Y-186506743D01*
X107142458Y-186578171D01*
X106999601Y-186578171D01*
X106856744Y-186506743D01*
X106785315Y-186435314D01*
X106713887Y-186292457D01*
X106642458Y-186006743D01*
X106642458Y-185649600D01*
X106713887Y-185363886D01*
X106785315Y-185221029D01*
X106856744Y-185149600D01*
X106999601Y-185078171D01*
X108142458Y-186435314D02*
X108213886Y-186506743D01*
X108142458Y-186578171D01*
X108071029Y-186506743D01*
X108142458Y-186435314D01*
X108142458Y-186578171D01*
X109499601Y-185078171D02*
X109213887Y-185078171D01*
X109071030Y-185149600D01*
X108999601Y-185221029D01*
X108856744Y-185435314D01*
X108785315Y-185721029D01*
X108785315Y-186292457D01*
X108856744Y-186435314D01*
X108928172Y-186506743D01*
X109071030Y-186578171D01*
X109356744Y-186578171D01*
X109499601Y-186506743D01*
X109571030Y-186435314D01*
X109642458Y-186292457D01*
X109642458Y-185935314D01*
X109571030Y-185792457D01*
X109499601Y-185721029D01*
X109356744Y-185649600D01*
X109071030Y-185649600D01*
X108928172Y-185721029D01*
X108856744Y-185792457D01*
X108785315Y-185935314D01*
D10*
D11*
X79999600Y-181499600D02*
X187999600Y-181499600D01*
D10*
D12*
X167213886Y-183778171D02*
X166713886Y-183063886D01*
X166356743Y-183778171D02*
X166356743Y-182278171D01*
X166928171Y-182278171D01*
X167071029Y-182349600D01*
X167142457Y-182421029D01*
X167213886Y-182563886D01*
X167213886Y-182778171D01*
X167142457Y-182921029D01*
X167071029Y-182992457D01*
X166928171Y-183063886D01*
X166356743Y-183063886D01*
X168428171Y-183706743D02*
X168285314Y-183778171D01*
X167999600Y-183778171D01*
X167856743Y-183706743D01*
X167785314Y-183563886D01*
X167785314Y-182992457D01*
X167856743Y-182849600D01*
X167999600Y-182778171D01*
X168285314Y-182778171D01*
X168428171Y-182849600D01*
X168499600Y-182992457D01*
X168499600Y-183135314D01*
X167785314Y-183278171D01*
X168999600Y-182778171D02*
X169356743Y-183778171D01*
X169713885Y-182778171D01*
X170285314Y-183635314D02*
X170356742Y-183706743D01*
X170285314Y-183778171D01*
X170213885Y-183706743D01*
X170285314Y-183635314D01*
X170285314Y-183778171D01*
X170285314Y-182849600D02*
X170356742Y-182921029D01*
X170285314Y-182992457D01*
X170213885Y-182921029D01*
X170285314Y-182849600D01*
X170285314Y-182992457D01*
X172928171Y-183778171D02*
X172071028Y-183778171D01*
X172499600Y-183778171D02*
X172499600Y-182278171D01*
X172356743Y-182492457D01*
X172213885Y-182635314D01*
X172071028Y-182706743D01*
X173571028Y-183635314D02*
X173642456Y-183706743D01*
X173571028Y-183778171D01*
X173499599Y-183706743D01*
X173571028Y-183635314D01*
X173571028Y-183778171D01*
X174499600Y-182921029D02*
X174356742Y-182849600D01*
X174285314Y-182778171D01*
X174213885Y-182635314D01*
X174213885Y-182563886D01*
X174285314Y-182421029D01*
X174356742Y-182349600D01*
X174499600Y-182278171D01*
X174785314Y-182278171D01*
X174928171Y-182349600D01*
X174999600Y-182421029D01*
X175071028Y-182563886D01*
X175071028Y-182635314D01*
X174999600Y-182778171D01*
X174928171Y-182849600D01*
X174785314Y-182921029D01*
X174499600Y-182921029D01*
X174356742Y-182992457D01*
X174285314Y-183063886D01*
X174213885Y-183206743D01*
X174213885Y-183492457D01*
X174285314Y-183635314D01*
X174356742Y-183706743D01*
X174499600Y-183778171D01*
X174785314Y-183778171D01*
X174928171Y-183706743D01*
X174999600Y-183635314D01*
X175071028Y-183492457D01*
X175071028Y-183206743D01*
X174999600Y-183063886D01*
X174928171Y-182992457D01*
X174785314Y-182921029D01*
D10*
D11*
X81285314Y-183706743D02*
X81499600Y-183778171D01*
X81856743Y-183778171D01*
X81999600Y-183706743D01*
X82071029Y-183635314D01*
X82142457Y-183492457D01*
X82142457Y-183349600D01*
X82071029Y-183206743D01*
X81999600Y-183135314D01*
X81856743Y-183063886D01*
X81571029Y-182992457D01*
X81428171Y-182921029D01*
X81356743Y-182849600D01*
X81285314Y-182706743D01*
X81285314Y-182563886D01*
X81356743Y-182421029D01*
X81428171Y-182349600D01*
X81571029Y-182278171D01*
X81928171Y-182278171D01*
X82142457Y-182349600D01*
X82785314Y-183778171D02*
X82785314Y-182778171D01*
X82785314Y-182278171D02*
X82713885Y-182349600D01*
X82785314Y-182421029D01*
X82856742Y-182349600D01*
X82785314Y-182278171D01*
X82785314Y-182421029D01*
X83356743Y-182778171D02*
X84142457Y-182778171D01*
X83356743Y-183778171D01*
X84142457Y-183778171D01*
X85285314Y-183706743D02*
X85142457Y-183778171D01*
X84856743Y-183778171D01*
X84713886Y-183706743D01*
X84642457Y-183563886D01*
X84642457Y-182992457D01*
X84713886Y-182849600D01*
X84856743Y-182778171D01*
X85142457Y-182778171D01*
X85285314Y-182849600D01*
X85356743Y-182992457D01*
X85356743Y-183135314D01*
X84642457Y-183278171D01*
X85999600Y-183635314D02*
X86071028Y-183706743D01*
X85999600Y-183778171D01*
X85928171Y-183706743D01*
X85999600Y-183635314D01*
X85999600Y-183778171D01*
X85999600Y-182849600D02*
X86071028Y-182921029D01*
X85999600Y-182992457D01*
X85928171Y-182921029D01*
X85999600Y-182849600D01*
X85999600Y-182992457D01*
X87856743Y-182278171D02*
X87856743Y-183492457D01*
X87928171Y-183635314D01*
X87999600Y-183706743D01*
X88142457Y-183778171D01*
X88428171Y-183778171D01*
X88571029Y-183706743D01*
X88642457Y-183635314D01*
X88713886Y-183492457D01*
X88713886Y-182278171D01*
X89356743Y-183706743D02*
X89499600Y-183778171D01*
X89785315Y-183778171D01*
X89928172Y-183706743D01*
X89999600Y-183563886D01*
X89999600Y-183492457D01*
X89928172Y-183349600D01*
X89785315Y-183278171D01*
X89571029Y-183278171D01*
X89428172Y-183206743D01*
X89356743Y-183063886D01*
X89356743Y-182992457D01*
X89428172Y-182849600D01*
X89571029Y-182778171D01*
X89785315Y-182778171D01*
X89928172Y-182849600D01*
X91213886Y-183706743D02*
X91071029Y-183778171D01*
X90785315Y-183778171D01*
X90642458Y-183706743D01*
X90571029Y-183563886D01*
X90571029Y-182992457D01*
X90642458Y-182849600D01*
X90785315Y-182778171D01*
X91071029Y-182778171D01*
X91213886Y-182849600D01*
X91285315Y-182992457D01*
X91285315Y-183135314D01*
X90571029Y-183278171D01*
X91928172Y-183778171D02*
X91928172Y-182778171D01*
X91928172Y-183063886D02*
X91999600Y-182921029D01*
X92071029Y-182849600D01*
X92213886Y-182778171D01*
X92356743Y-182778171D01*
D10*
D11*
X166356743Y-186578171D02*
X166356743Y-185078171D01*
X167713886Y-186578171D02*
X167713886Y-185078171D01*
X167713886Y-186506743D02*
X167571029Y-186578171D01*
X167285315Y-186578171D01*
X167142457Y-186506743D01*
X167071029Y-186435314D01*
X166999600Y-186292457D01*
X166999600Y-185863886D01*
X167071029Y-185721029D01*
X167142457Y-185649600D01*
X167285315Y-185578171D01*
X167571029Y-185578171D01*
X167713886Y-185649600D01*
X168428172Y-186435314D02*
X168499600Y-186506743D01*
X168428172Y-186578171D01*
X168356743Y-186506743D01*
X168428172Y-186435314D01*
X168428172Y-186578171D01*
X168428172Y-185649600D02*
X168499600Y-185721029D01*
X168428172Y-185792457D01*
X168356743Y-185721029D01*
X168428172Y-185649600D01*
X168428172Y-185792457D01*
X171071029Y-186578171D02*
X170213886Y-186578171D01*
X170642458Y-186578171D02*
X170642458Y-185078171D01*
X170499601Y-185292457D01*
X170356743Y-185435314D01*
X170213886Y-185506743D01*
X172785314Y-185006743D02*
X171499600Y-186935314D01*
X174071029Y-186578171D02*
X173213886Y-186578171D01*
X173642458Y-186578171D02*
X173642458Y-185078171D01*
X173499601Y-185292457D01*
X173356743Y-185435314D01*
X173213886Y-185506743D01*
D10*
D11*
X79999600Y-177499600D02*
X187999600Y-177499600D01*
D10*
D13*
X81451981Y-178204362D02*
X82594838Y-178204362D01*
X81773410Y-180204362D02*
X82023410Y-178204362D01*
X83011505Y-180204362D02*
X83178171Y-178871029D01*
X83261505Y-178204362D02*
X83154362Y-178299600D01*
X83237695Y-178394838D01*
X83344839Y-178299600D01*
X83261505Y-178204362D01*
X83237695Y-178394838D01*
X83844838Y-178871029D02*
X84606743Y-178871029D01*
X84213886Y-178204362D02*
X83999600Y-179918648D01*
X84071030Y-180109124D01*
X84249601Y-180204362D01*
X84440077Y-180204362D01*
X85392458Y-180204362D02*
X85213887Y-180109124D01*
X85142457Y-179918648D01*
X85356743Y-178204362D01*
X86928172Y-180109124D02*
X86725791Y-180204362D01*
X86344839Y-180204362D01*
X86166267Y-180109124D01*
X86094838Y-179918648D01*
X86190076Y-179156743D01*
X86309124Y-178966267D01*
X86511505Y-178871029D01*
X86892457Y-178871029D01*
X87071029Y-178966267D01*
X87142457Y-179156743D01*
X87118648Y-179347219D01*
X86142457Y-179537695D01*
X87892457Y-180013886D02*
X87975792Y-180109124D01*
X87868648Y-180204362D01*
X87785315Y-180109124D01*
X87892457Y-180013886D01*
X87868648Y-180204362D01*
X88023410Y-178966267D02*
X88106744Y-179061505D01*
X87999600Y-179156743D01*
X87916267Y-179061505D01*
X88023410Y-178966267D01*
X87999600Y-179156743D01*
X91297220Y-180204362D02*
X90344839Y-180204362D01*
X90594839Y-178204362D01*
X91963887Y-180204362D02*
X92130553Y-178871029D01*
X92213887Y-178204362D02*
X92106744Y-178299600D01*
X92190077Y-178394838D01*
X92297221Y-178299600D01*
X92213887Y-178204362D01*
X92190077Y-178394838D01*
X92797220Y-178871029D02*
X93559125Y-178871029D01*
X93166268Y-178204362D02*
X92951982Y-179918648D01*
X93023412Y-180109124D01*
X93201983Y-180204362D01*
X93392459Y-180204362D01*
X93940077Y-178871029D02*
X94701982Y-178871029D01*
X94309125Y-178204362D02*
X94094839Y-179918648D01*
X94166269Y-180109124D01*
X94344840Y-180204362D01*
X94535316Y-180204362D01*
X95487697Y-180204362D02*
X95309126Y-180109124D01*
X95237696Y-179918648D01*
X95451982Y-178204362D01*
X97023411Y-180109124D02*
X96821030Y-180204362D01*
X96440078Y-180204362D01*
X96261506Y-180109124D01*
X96190077Y-179918648D01*
X96285315Y-179156743D01*
X96404363Y-178966267D01*
X96606744Y-178871029D01*
X96987696Y-178871029D01*
X97166268Y-178966267D01*
X97237696Y-179156743D01*
X97213887Y-179347219D01*
X96237696Y-179537695D01*
X99487697Y-180204362D02*
X99737697Y-178204362D01*
X100213888Y-178204362D01*
X100487697Y-178299600D01*
X100654364Y-178490076D01*
X100725793Y-178680552D01*
X100773412Y-179061505D01*
X100737698Y-179347219D01*
X100594841Y-179728171D01*
X100475792Y-179918648D01*
X100261507Y-180109124D01*
X99963888Y-180204362D01*
X99487697Y-180204362D01*
X101487697Y-180204362D02*
X101654363Y-178871029D01*
X101606744Y-179251981D02*
X101725793Y-179061505D01*
X101832936Y-178966267D01*
X102035316Y-178871029D01*
X102225792Y-178871029D01*
X102725792Y-180204362D02*
X102892458Y-178871029D01*
X102975792Y-178204362D02*
X102868649Y-178299600D01*
X102951982Y-178394838D01*
X103059126Y-178299600D01*
X102975792Y-178204362D01*
X102951982Y-178394838D01*
X103654363Y-178871029D02*
X103963888Y-180204362D01*
X104606744Y-178871029D01*
X105975793Y-180109124D02*
X105773412Y-180204362D01*
X105392460Y-180204362D01*
X105213888Y-180109124D01*
X105142459Y-179918648D01*
X105237697Y-179156743D01*
X105356745Y-178966267D01*
X105559126Y-178871029D01*
X105940078Y-178871029D01*
X106118650Y-178966267D01*
X106190078Y-179156743D01*
X106166269Y-179347219D01*
X105190078Y-179537695D01*
X106916269Y-180204362D02*
X107082935Y-178871029D01*
X107035316Y-179251981D02*
X107154365Y-179061505D01*
X107261508Y-178966267D01*
X107463888Y-178871029D01*
X107654364Y-178871029D01*
D10*
D11*
X81856743Y-175592457D02*
X81356743Y-175592457D01*
X81356743Y-176378171D02*
X81356743Y-174878171D01*
X82071029Y-174878171D01*
X82642457Y-176378171D02*
X82642457Y-175378171D01*
X82642457Y-174878171D02*
X82571028Y-174949600D01*
X82642457Y-175021029D01*
X82713885Y-174949600D01*
X82642457Y-174878171D01*
X82642457Y-175021029D01*
X83571029Y-176378171D02*
X83428171Y-176306743D01*
X83356743Y-176163886D01*
X83356743Y-174878171D01*
X84713885Y-176306743D02*
X84571028Y-176378171D01*
X84285314Y-176378171D01*
X84142457Y-176306743D01*
X84071028Y-176163886D01*
X84071028Y-175592457D01*
X84142457Y-175449600D01*
X84285314Y-175378171D01*
X84571028Y-175378171D01*
X84713885Y-175449600D01*
X84785314Y-175592457D01*
X84785314Y-175735314D01*
X84071028Y-175878171D01*
X85428171Y-176235314D02*
X85499599Y-176306743D01*
X85428171Y-176378171D01*
X85356742Y-176306743D01*
X85428171Y-176235314D01*
X85428171Y-176378171D01*
X85428171Y-175449600D02*
X85499599Y-175521029D01*
X85428171Y-175592457D01*
X85356742Y-175521029D01*
X85428171Y-175449600D01*
X85428171Y-175592457D01*
X87285314Y-176378171D02*
X87285314Y-174878171D01*
X87285314Y-175592457D02*
X88142457Y-175592457D01*
X88142457Y-176378171D02*
X88142457Y-174878171D01*
X88856743Y-176378171D02*
X88856743Y-175378171D01*
X88856743Y-174878171D02*
X88785314Y-174949600D01*
X88856743Y-175021029D01*
X88928171Y-174949600D01*
X88856743Y-174878171D01*
X88856743Y-175021029D01*
X90213886Y-175378171D02*
X90213886Y-176592457D01*
X90142457Y-176735314D01*
X90071029Y-176806743D01*
X89928172Y-176878171D01*
X89713886Y-176878171D01*
X89571029Y-176806743D01*
X90213886Y-176306743D02*
X90071029Y-176378171D01*
X89785315Y-176378171D01*
X89642457Y-176306743D01*
X89571029Y-176235314D01*
X89499600Y-176092457D01*
X89499600Y-175663886D01*
X89571029Y-175521029D01*
X89642457Y-175449600D01*
X89785315Y-175378171D01*
X90071029Y-175378171D01*
X90213886Y-175449600D01*
X90928172Y-176378171D02*
X90928172Y-174878171D01*
X91571029Y-176378171D02*
X91571029Y-175592457D01*
X91499600Y-175449600D01*
X91356743Y-175378171D01*
X91142458Y-175378171D01*
X90999600Y-175449600D01*
X90928172Y-175521029D01*
X93428172Y-176378171D02*
X93428172Y-174878171D01*
X93999600Y-174878171D01*
X94142458Y-174949600D01*
X94213886Y-175021029D01*
X94285315Y-175163886D01*
X94285315Y-175378171D01*
X94213886Y-175521029D01*
X94142458Y-175592457D01*
X93999600Y-175663886D01*
X93428172Y-175663886D01*
X95142458Y-176378171D02*
X94999600Y-176306743D01*
X94928172Y-176235314D01*
X94856743Y-176092457D01*
X94856743Y-175663886D01*
X94928172Y-175521029D01*
X94999600Y-175449600D01*
X95142458Y-175378171D01*
X95356743Y-175378171D01*
X95499600Y-175449600D01*
X95571029Y-175521029D01*
X95642458Y-175663886D01*
X95642458Y-176092457D01*
X95571029Y-176235314D01*
X95499600Y-176306743D01*
X95356743Y-176378171D01*
X95142458Y-176378171D01*
X96142458Y-175378171D02*
X96428172Y-176378171D01*
X96713886Y-175663886D01*
X96999601Y-176378171D01*
X97285315Y-175378171D01*
X98428172Y-176306743D02*
X98285315Y-176378171D01*
X97999601Y-176378171D01*
X97856744Y-176306743D01*
X97785315Y-176163886D01*
X97785315Y-175592457D01*
X97856744Y-175449600D01*
X97999601Y-175378171D01*
X98285315Y-175378171D01*
X98428172Y-175449600D01*
X98499601Y-175592457D01*
X98499601Y-175735314D01*
X97785315Y-175878171D01*
X99142458Y-176378171D02*
X99142458Y-175378171D01*
X99142458Y-175663886D02*
X99213886Y-175521029D01*
X99285315Y-175449600D01*
X99428172Y-175378171D01*
X99571029Y-175378171D01*
X101142457Y-176306743D02*
X101356743Y-176378171D01*
X101713886Y-176378171D01*
X101856743Y-176306743D01*
X101928172Y-176235314D01*
X101999600Y-176092457D01*
X101999600Y-175949600D01*
X101928172Y-175806743D01*
X101856743Y-175735314D01*
X101713886Y-175663886D01*
X101428172Y-175592457D01*
X101285314Y-175521029D01*
X101213886Y-175449600D01*
X101142457Y-175306743D01*
X101142457Y-175163886D01*
X101213886Y-175021029D01*
X101285314Y-174949600D01*
X101428172Y-174878171D01*
X101785314Y-174878171D01*
X101999600Y-174949600D01*
X102499600Y-174878171D02*
X102856743Y-176378171D01*
X103142457Y-175306743D01*
X103428171Y-176378171D01*
X103785314Y-174878171D01*
X104356743Y-176235314D02*
X104428171Y-176306743D01*
X104356743Y-176378171D01*
X104285314Y-176306743D01*
X104356743Y-176235314D01*
X104356743Y-176378171D01*
X105071029Y-176378171D02*
X105071029Y-174878171D01*
X105213886Y-175806743D02*
X105642457Y-176378171D01*
X105642457Y-175378171D02*
X105071029Y-175949600D01*
X106285315Y-176378171D02*
X106285315Y-175378171D01*
X106285315Y-174878171D02*
X106213886Y-174949600D01*
X106285315Y-175021029D01*
X106356743Y-174949600D01*
X106285315Y-174878171D01*
X106285315Y-175021029D01*
X107642458Y-176306743D02*
X107499601Y-176378171D01*
X107213887Y-176378171D01*
X107071029Y-176306743D01*
X106999601Y-176235314D01*
X106928172Y-176092457D01*
X106928172Y-175663886D01*
X106999601Y-175521029D01*
X107071029Y-175449600D01*
X107213887Y-175378171D01*
X107499601Y-175378171D01*
X107642458Y-175449600D01*
X108928172Y-176378171D02*
X108928172Y-175592457D01*
X108856743Y-175449600D01*
X108713886Y-175378171D01*
X108428172Y-175378171D01*
X108285315Y-175449600D01*
X108928172Y-176306743D02*
X108785315Y-176378171D01*
X108428172Y-176378171D01*
X108285315Y-176306743D01*
X108213886Y-176163886D01*
X108213886Y-176021029D01*
X108285315Y-175878171D01*
X108428172Y-175806743D01*
X108785315Y-175806743D01*
X108928172Y-175735314D01*
X110285315Y-176378171D02*
X110285315Y-174878171D01*
X110285315Y-176306743D02*
X110142458Y-176378171D01*
X109856744Y-176378171D01*
X109713886Y-176306743D01*
X109642458Y-176235314D01*
X109571029Y-176092457D01*
X109571029Y-175663886D01*
X109642458Y-175521029D01*
X109713886Y-175449600D01*
X109856744Y-175378171D01*
X110142458Y-175378171D01*
X110285315Y-175449600D01*
X110642458Y-176521029D02*
X111785315Y-176521029D01*
X112142458Y-175378171D02*
X112142458Y-176878171D01*
X112142458Y-175449600D02*
X112285315Y-175378171D01*
X112571029Y-175378171D01*
X112713886Y-175449600D01*
X112785315Y-175521029D01*
X112856744Y-175663886D01*
X112856744Y-176092457D01*
X112785315Y-176235314D01*
X112713886Y-176306743D01*
X112571029Y-176378171D01*
X112285315Y-176378171D01*
X112142458Y-176306743D01*
X114142458Y-176306743D02*
X113999601Y-176378171D01*
X113713887Y-176378171D01*
X113571029Y-176306743D01*
X113499601Y-176235314D01*
X113428172Y-176092457D01*
X113428172Y-175663886D01*
X113499601Y-175521029D01*
X113571029Y-175449600D01*
X113713887Y-175378171D01*
X113999601Y-175378171D01*
X114142458Y-175449600D01*
X114785315Y-176378171D02*
X114785315Y-174878171D01*
X114785315Y-175449600D02*
X114928172Y-175378171D01*
X115213886Y-175378171D01*
X115356743Y-175449600D01*
X115428172Y-175521029D01*
X115499601Y-175663886D01*
X115499601Y-176092457D01*
X115428172Y-176235314D01*
X115356743Y-176306743D01*
X115213886Y-176378171D01*
X114928172Y-176378171D01*
X114785315Y-176306743D01*
D10*
D11*
X79999600Y-171499600D02*
X187999600Y-171499600D01*
D10*
D11*
X81285314Y-173606743D02*
X81499600Y-173678171D01*
X81856743Y-173678171D01*
X81999600Y-173606743D01*
X82071029Y-173535314D01*
X82142457Y-173392457D01*
X82142457Y-173249600D01*
X82071029Y-173106743D01*
X81999600Y-173035314D01*
X81856743Y-172963886D01*
X81571029Y-172892457D01*
X81428171Y-172821029D01*
X81356743Y-172749600D01*
X81285314Y-172606743D01*
X81285314Y-172463886D01*
X81356743Y-172321029D01*
X81428171Y-172249600D01*
X81571029Y-172178171D01*
X81928171Y-172178171D01*
X82142457Y-172249600D01*
X82785314Y-173678171D02*
X82785314Y-172178171D01*
X83428171Y-173678171D02*
X83428171Y-172892457D01*
X83356742Y-172749600D01*
X83213885Y-172678171D01*
X82999600Y-172678171D01*
X82856742Y-172749600D01*
X82785314Y-172821029D01*
X84713885Y-173606743D02*
X84571028Y-173678171D01*
X84285314Y-173678171D01*
X84142457Y-173606743D01*
X84071028Y-173463886D01*
X84071028Y-172892457D01*
X84142457Y-172749600D01*
X84285314Y-172678171D01*
X84571028Y-172678171D01*
X84713885Y-172749600D01*
X84785314Y-172892457D01*
X84785314Y-173035314D01*
X84071028Y-173178171D01*
X85999599Y-173606743D02*
X85856742Y-173678171D01*
X85571028Y-173678171D01*
X85428171Y-173606743D01*
X85356742Y-173463886D01*
X85356742Y-172892457D01*
X85428171Y-172749600D01*
X85571028Y-172678171D01*
X85856742Y-172678171D01*
X85999599Y-172749600D01*
X86071028Y-172892457D01*
X86071028Y-173035314D01*
X85356742Y-173178171D01*
X86499599Y-172678171D02*
X87071028Y-172678171D01*
X86713885Y-172178171D02*
X86713885Y-173463886D01*
X86785313Y-173606743D01*
X86928171Y-173678171D01*
X87071028Y-173678171D01*
X87571028Y-173535314D02*
X87642456Y-173606743D01*
X87571028Y-173678171D01*
X87499599Y-173606743D01*
X87571028Y-173535314D01*
X87571028Y-173678171D01*
X87571028Y-172749600D02*
X87642456Y-172821029D01*
X87571028Y-172892457D01*
X87499599Y-172821029D01*
X87571028Y-172749600D01*
X87571028Y-172892457D01*
D10*
D11*
X99999600Y-181499600D02*
X99999600Y-184499600D01*
D10*
D11*
X163999600Y-181499600D02*
X163999600Y-187999600D01*
X115000000Y-91000000D02*
X115000000Y-139000000D01*
X67000000Y-91000000D02*
X115000000Y-91000000D01*
X67000000Y-139000000D02*
X67000000Y-91000000D01*
X67000000Y-139000000D02*
X115000000Y-139000000D01*
D14*
X107000000Y-103000000D03*
X109000000Y-103000000D03*
X113000000Y-103000000D03*
X111000000Y-103000000D03*
X103000000Y-103000000D03*
X105000000Y-103000000D03*
X101000000Y-103000000D03*
X99000000Y-103000000D03*
X91000000Y-103000000D03*
X93000000Y-103000000D03*
X97000000Y-103000000D03*
X95000000Y-103000000D03*
X95000000Y-101000000D03*
X97000000Y-101000000D03*
X93000000Y-101000000D03*
X91000000Y-101000000D03*
X99000000Y-101000000D03*
X101000000Y-101000000D03*
X105000000Y-101000000D03*
X103000000Y-101000000D03*
X111000000Y-101000000D03*
X113000000Y-101000000D03*
X109000000Y-101000000D03*
X107000000Y-101000000D03*
X107000000Y-105000000D03*
X109000000Y-105000000D03*
X113000000Y-105000000D03*
X111000000Y-105000000D03*
X103000000Y-105000000D03*
X105000000Y-105000000D03*
X101000000Y-105000000D03*
X99000000Y-105000000D03*
X91000000Y-105000000D03*
X93000000Y-105000000D03*
X97000000Y-105000000D03*
X95000000Y-105000000D03*
X95000000Y-107000000D03*
X97000000Y-107000000D03*
X93000000Y-107000000D03*
X91000000Y-107000000D03*
X99000000Y-107000000D03*
X101000000Y-107000000D03*
X105000000Y-107000000D03*
X103000000Y-107000000D03*
X111000000Y-107000000D03*
X113000000Y-107000000D03*
X109000000Y-107000000D03*
X107000000Y-107000000D03*
X107000000Y-115000000D03*
X109000000Y-115000000D03*
X113000000Y-115000000D03*
X111000000Y-115000000D03*
X103000000Y-115000000D03*
X105000000Y-115000000D03*
X101000000Y-115000000D03*
X99000000Y-115000000D03*
X91000000Y-115000000D03*
X93000000Y-115000000D03*
X97000000Y-115000000D03*
X95000000Y-115000000D03*
X95000000Y-113000000D03*
X97000000Y-113000000D03*
X93000000Y-113000000D03*
X91000000Y-113000000D03*
X99000000Y-113000000D03*
X101000000Y-113000000D03*
X105000000Y-113000000D03*
X103000000Y-113000000D03*
X111000000Y-113000000D03*
X113000000Y-113000000D03*
X109000000Y-113000000D03*
X107000000Y-113000000D03*
X107000000Y-109000000D03*
X109000000Y-109000000D03*
X113000000Y-109000000D03*
X111000000Y-109000000D03*
X103000000Y-109000000D03*
X105000000Y-109000000D03*
X101000000Y-109000000D03*
X99000000Y-109000000D03*
X91000000Y-109000000D03*
X93000000Y-109000000D03*
X97000000Y-109000000D03*
X95000000Y-109000000D03*
X95000000Y-111000000D03*
X97000000Y-111000000D03*
X93000000Y-111000000D03*
X91000000Y-111000000D03*
X99000000Y-111000000D03*
X101000000Y-111000000D03*
X105000000Y-111000000D03*
X103000000Y-111000000D03*
X111000000Y-111000000D03*
X113000000Y-111000000D03*
X109000000Y-111000000D03*
X107000000Y-111000000D03*
X107000000Y-119000000D03*
X109000000Y-119000000D03*
X113000000Y-119000000D03*
X111000000Y-119000000D03*
X103000000Y-119000000D03*
X105000000Y-119000000D03*
X101000000Y-119000000D03*
X99000000Y-119000000D03*
X91000000Y-119000000D03*
X93000000Y-119000000D03*
X97000000Y-119000000D03*
X95000000Y-119000000D03*
X95000000Y-117000000D03*
X97000000Y-117000000D03*
X93000000Y-117000000D03*
X91000000Y-117000000D03*
X99000000Y-117000000D03*
X101000000Y-117000000D03*
X105000000Y-117000000D03*
X103000000Y-117000000D03*
X111000000Y-117000000D03*
X113000000Y-117000000D03*
X109000000Y-117000000D03*
X107000000Y-117000000D03*
X107000000Y-121000000D03*
X109000000Y-121000000D03*
X113000000Y-121000000D03*
X111000000Y-121000000D03*
X103000000Y-121000000D03*
X105000000Y-121000000D03*
X101000000Y-121000000D03*
X99000000Y-121000000D03*
X91000000Y-121000000D03*
X93000000Y-121000000D03*
X97000000Y-121000000D03*
X95000000Y-121000000D03*
D15*
X95000000Y-111000000D03*
D16*
X86000000Y-113540000D03*
X86000000Y-108460000D03*
D17*
X83180000Y-133900000D03*
X88190000Y-133900000D03*
D18*
X83180000Y-129900000D03*
X88190000Y-129900000D03*
D17*
X83180000Y-125900000D03*
X88190000Y-125900000D03*
X71580000Y-134000000D03*
X76590000Y-134000000D03*
D18*
X71580000Y-130000000D03*
X76590000Y-130000000D03*
D17*
X71580000Y-126000000D03*
X76590000Y-126000000D03*
X106080000Y-134000000D03*
X111090000Y-134000000D03*
D18*
X106080000Y-130000000D03*
X111090000Y-130000000D03*
D17*
X106080000Y-126000000D03*
X111090000Y-126000000D03*
X94580000Y-134000000D03*
X99590000Y-134000000D03*
D18*
X94580000Y-130000000D03*
X99590000Y-130000000D03*
D17*
X94580000Y-126000000D03*
X99590000Y-126000000D03*
D19*
X93500000Y-97000000D03*
X97500000Y-97000000D03*
X83500000Y-101500000D03*
X87500000Y-101500000D03*
X87500000Y-104500000D03*
X83500000Y-104500000D03*
X75250000Y-95500000D03*
X79250000Y-95500000D03*
D20*
X76790000Y-106270000D03*
X76790000Y-101730000D03*
X74250000Y-101730000D03*
X74250000Y-106270000D03*
X71710000Y-106270000D03*
X71710000Y-101730000D03*
D19*
X75250000Y-98250000D03*
X79250000Y-98250000D03*
D21*
X101000000Y-100100000D03*
X101000000Y-97000000D03*
D22*
X89250000Y-98020000D03*
X82750000Y-98020000D03*
X82750000Y-95480000D03*
X89250000Y-95480000D03*
D23*
X86000000Y-115500000D03*
X84500000Y-115500000D03*
X86000000Y-113540000D03*
X87500000Y-115500000D03*
X87500000Y-113500000D03*
X84500000Y-113500000D03*
D13*
X74250000Y-102730000D02*
X74250000Y-103050000D01*
X81100000Y-103600000D02*
X82000000Y-104500000D01*
X74800000Y-103600000D02*
X81100000Y-103600000D01*
X74250000Y-103050000D02*
X74800000Y-103600000D01*
X83000000Y-104000000D02*
X83500000Y-104500000D01*
X83500000Y-104500000D02*
X82000000Y-104500000D01*
X82540000Y-113540000D02*
X86000000Y-113540000D01*
X81250000Y-112250000D02*
X82540000Y-113540000D01*
X81250000Y-105250000D02*
X81250000Y-112250000D01*
X82000000Y-104500000D02*
X81250000Y-105250000D01*
X86000000Y-115500000D02*
X84500000Y-115500000D01*
X87500000Y-113500000D02*
X87460000Y-113540000D01*
X84500000Y-113500000D02*
X84540000Y-113540000D01*
X89250000Y-95480000D02*
X91980000Y-95480000D01*
X91980000Y-95480000D02*
X93500000Y-97000000D01*
X76790000Y-105270000D02*
X76790000Y-108160000D01*
X84750000Y-96020000D02*
X82750000Y-98020000D01*
X84750000Y-94500000D02*
X84750000Y-96020000D01*
X83200000Y-92950000D02*
X84750000Y-94500000D01*
X74053260Y-92950000D02*
X83200000Y-92950000D01*
X72695198Y-94308062D02*
X74053260Y-92950000D01*
X72695198Y-96454802D02*
X72695198Y-94308062D01*
X69600000Y-99550000D02*
X72695198Y-96454802D01*
X69600000Y-107450000D02*
X69600000Y-99550000D01*
X70650000Y-108500000D02*
X69600000Y-107450000D01*
X76450000Y-108500000D02*
X70650000Y-108500000D01*
X76790000Y-108160000D02*
X76450000Y-108500000D01*
X79250000Y-95500000D02*
X79500000Y-95500000D01*
X79500000Y-95500000D02*
X82020000Y-98020000D01*
X82020000Y-98020000D02*
X82750000Y-98020000D01*
X97500000Y-97000000D02*
X100500000Y-97000000D01*
X100500000Y-97000000D02*
X101000000Y-97500000D01*
X75250000Y-95500000D02*
X76250000Y-95500000D01*
X76250000Y-95500000D02*
X77000000Y-96250000D01*
X77000000Y-96250000D02*
X77000000Y-97500000D01*
X77000000Y-97500000D02*
X77750000Y-98250000D01*
X77750000Y-98250000D02*
X79250000Y-98250000D01*
X76790000Y-102730000D02*
X76790000Y-102210000D01*
X76790000Y-102210000D02*
X77750000Y-101250000D01*
X77750000Y-101250000D02*
X78000000Y-101250000D01*
X78000000Y-101250000D02*
X79250000Y-100000000D01*
X79250000Y-100000000D02*
X79250000Y-98250000D01*
X101000000Y-99600000D02*
X101000000Y-101000000D01*
X71710000Y-105270000D02*
X70620000Y-105270000D01*
X81120000Y-93850000D02*
X82750000Y-95480000D01*
X74150000Y-93850000D02*
X81120000Y-93850000D01*
X73400000Y-94600000D02*
X74150000Y-93850000D01*
X73400000Y-96800000D02*
X73400000Y-94600000D01*
X70350000Y-99850000D02*
X73400000Y-96800000D01*
X70350000Y-105000000D02*
X70350000Y-99850000D01*
X70620000Y-105270000D02*
X70350000Y-105000000D01*
X82750000Y-95480000D02*
X82750000Y-95250000D01*
X71710000Y-102730000D02*
X71710000Y-99790000D01*
X73250000Y-98250000D02*
X75250000Y-98250000D01*
X71710000Y-99790000D02*
X73250000Y-98250000D01*
X83500000Y-101500000D02*
X84000000Y-101500000D01*
X84000000Y-101500000D02*
X85750000Y-99750000D01*
X85750000Y-99750000D02*
X85750000Y-98750000D01*
X85750000Y-98750000D02*
X86480000Y-98020000D01*
X86480000Y-98020000D02*
X89250000Y-98020000D01*
X87500000Y-104500000D02*
X87500000Y-106960000D01*
X87500000Y-106960000D02*
X86000000Y-108460000D01*
X87500000Y-101500000D02*
X87500000Y-104500000D01*
D24*
G36*
X113936500Y-136936500D02*
X103063500Y-136936500D01*
X103063500Y-121063500D01*
X113936500Y-121063500D01*
X113936500Y-136936500D01*
X113936500Y-136936500D01*
G37*
X113936500Y-136936500D02*
X103063500Y-136936500D01*
X103063500Y-121063500D01*
X113936500Y-121063500D01*
X113936500Y-136936500D01*
G36*
X95186500Y-99436500D02*
X89500000Y-99436500D01*
X89475295Y-99441503D01*
X89454483Y-99455723D01*
X89440843Y-99476920D01*
X89436500Y-99500000D01*
X89436500Y-123000000D01*
X89441503Y-123024705D01*
X89455723Y-123045517D01*
X89476920Y-123059157D01*
X89500000Y-123063500D01*
X102436500Y-123063500D01*
X102436500Y-136936500D01*
X80563500Y-136936500D01*
X80563500Y-123063500D01*
X81000000Y-123063500D01*
X81024705Y-123058497D01*
X81045517Y-123044277D01*
X81059157Y-123023080D01*
X81063500Y-123000000D01*
X81063500Y-117313500D01*
X88750000Y-117313500D01*
X88774705Y-117308497D01*
X88795517Y-117294277D01*
X88809157Y-117273080D01*
X88813500Y-117250000D01*
X88813500Y-111250000D01*
X88808497Y-111225295D01*
X88794277Y-111204483D01*
X88773080Y-111190843D01*
X88750000Y-111186500D01*
X81818300Y-111186500D01*
X81818300Y-107210000D01*
X83324485Y-107210000D01*
X83324485Y-109710000D01*
X83350166Y-109846484D01*
X83430828Y-109971836D01*
X83553904Y-110055930D01*
X83700000Y-110085515D01*
X88300000Y-110085515D01*
X88436484Y-110059834D01*
X88561836Y-109979172D01*
X88645930Y-109856096D01*
X88675515Y-109710000D01*
X88675515Y-107210000D01*
X88649834Y-107073516D01*
X88569172Y-106948164D01*
X88446096Y-106864070D01*
X88300000Y-106834485D01*
X88068300Y-106834485D01*
X88068300Y-105725515D01*
X88500000Y-105725515D01*
X88636484Y-105699834D01*
X88761836Y-105619172D01*
X88845930Y-105496096D01*
X88875515Y-105350000D01*
X88875515Y-103650000D01*
X88849834Y-103513516D01*
X88769172Y-103388164D01*
X88646096Y-103304070D01*
X88500000Y-103274485D01*
X88068300Y-103274485D01*
X88068300Y-102725515D01*
X88500000Y-102725515D01*
X88636484Y-102699834D01*
X88761836Y-102619172D01*
X88845930Y-102496096D01*
X88875515Y-102350000D01*
X88875515Y-100650000D01*
X88849834Y-100513516D01*
X88769172Y-100388164D01*
X88646096Y-100304070D01*
X88500000Y-100274485D01*
X86500000Y-100274485D01*
X86363516Y-100300166D01*
X86238164Y-100380828D01*
X86154070Y-100503904D01*
X86124485Y-100650000D01*
X86124485Y-102350000D01*
X86150166Y-102486484D01*
X86230828Y-102611836D01*
X86353904Y-102695930D01*
X86500000Y-102725515D01*
X86931700Y-102725515D01*
X86931700Y-103274485D01*
X86500000Y-103274485D01*
X86363516Y-103300166D01*
X86238164Y-103380828D01*
X86154070Y-103503904D01*
X86124485Y-103650000D01*
X86124485Y-105350000D01*
X86150166Y-105486484D01*
X86230828Y-105611836D01*
X86353904Y-105695930D01*
X86500000Y-105725515D01*
X86931700Y-105725515D01*
X86931700Y-106724602D01*
X86821817Y-106834485D01*
X83700000Y-106834485D01*
X83563516Y-106860166D01*
X83438164Y-106940828D01*
X83354070Y-107063904D01*
X83324485Y-107210000D01*
X81818300Y-107210000D01*
X81818300Y-105485398D01*
X82124485Y-105179213D01*
X82124485Y-105350000D01*
X82150166Y-105486484D01*
X82230828Y-105611836D01*
X82353904Y-105695930D01*
X82500000Y-105725515D01*
X84500000Y-105725515D01*
X84636484Y-105699834D01*
X84761836Y-105619172D01*
X84845930Y-105496096D01*
X84875515Y-105350000D01*
X84875515Y-103650000D01*
X84849834Y-103513516D01*
X84769172Y-103388164D01*
X84646096Y-103304070D01*
X84500000Y-103274485D01*
X82500000Y-103274485D01*
X82363516Y-103300166D01*
X82238164Y-103380828D01*
X82154070Y-103503904D01*
X82124485Y-103650000D01*
X82124485Y-103820787D01*
X81501849Y-103198151D01*
X81317479Y-103074959D01*
X81100000Y-103031700D01*
X77794096Y-103031700D01*
X77800515Y-103000000D01*
X77800515Y-102003183D01*
X77985398Y-101818300D01*
X78000000Y-101818300D01*
X78217479Y-101775041D01*
X78401849Y-101651849D01*
X79403698Y-100650000D01*
X82124485Y-100650000D01*
X82124485Y-102350000D01*
X82150166Y-102486484D01*
X82230828Y-102611836D01*
X82353904Y-102695930D01*
X82500000Y-102725515D01*
X84500000Y-102725515D01*
X84636484Y-102699834D01*
X84761836Y-102619172D01*
X84845930Y-102496096D01*
X84875515Y-102350000D01*
X84875515Y-101428183D01*
X86151849Y-100151849D01*
X86275041Y-99967479D01*
X86318300Y-99750000D01*
X86318300Y-98985398D01*
X86715398Y-98588300D01*
X88074485Y-98588300D01*
X88074485Y-98820000D01*
X88100166Y-98956484D01*
X88180828Y-99081836D01*
X88303904Y-99165930D01*
X88450000Y-99195515D01*
X90050000Y-99195515D01*
X90186484Y-99169834D01*
X90311836Y-99089172D01*
X90395930Y-98966096D01*
X90425515Y-98820000D01*
X90425515Y-97220000D01*
X90399834Y-97083516D01*
X90319172Y-96958164D01*
X90196096Y-96874070D01*
X90050000Y-96844485D01*
X88450000Y-96844485D01*
X88313516Y-96870166D01*
X88188164Y-96950828D01*
X88104070Y-97073904D01*
X88074485Y-97220000D01*
X88074485Y-97451700D01*
X86480000Y-97451700D01*
X86262521Y-97494959D01*
X86078151Y-97618151D01*
X85348151Y-98348151D01*
X85224959Y-98532521D01*
X85181700Y-98750000D01*
X85181700Y-99514602D01*
X84421817Y-100274485D01*
X82500000Y-100274485D01*
X82363516Y-100300166D01*
X82238164Y-100380828D01*
X82154070Y-100503904D01*
X82124485Y-100650000D01*
X79403698Y-100650000D01*
X79651849Y-100401849D01*
X79775041Y-100217479D01*
X79818300Y-100000000D01*
X79818300Y-99475515D01*
X80250000Y-99475515D01*
X80386484Y-99449834D01*
X80511836Y-99369172D01*
X80595930Y-99246096D01*
X80625515Y-99100000D01*
X80625515Y-97429213D01*
X81574485Y-98378183D01*
X81574485Y-98820000D01*
X81600166Y-98956484D01*
X81680828Y-99081836D01*
X81803904Y-99165930D01*
X81950000Y-99195515D01*
X83550000Y-99195515D01*
X83686484Y-99169834D01*
X83811836Y-99089172D01*
X83895930Y-98966096D01*
X83925515Y-98820000D01*
X83925515Y-97648183D01*
X85151849Y-96421849D01*
X85275041Y-96237479D01*
X85318300Y-96020000D01*
X85318300Y-94500000D01*
X85275041Y-94282521D01*
X85151849Y-94098151D01*
X83601849Y-92548151D01*
X83417479Y-92424959D01*
X83200000Y-92381700D01*
X74053265Y-92381700D01*
X74053260Y-92381699D01*
X73835781Y-92424959D01*
X73651411Y-92548151D01*
X72293349Y-93906213D01*
X72170157Y-94090583D01*
X72126898Y-94308062D01*
X72126898Y-96219404D01*
X69198151Y-99148151D01*
X69074959Y-99332521D01*
X69031700Y-99550000D01*
X69031700Y-107450000D01*
X69074959Y-107667479D01*
X69198151Y-107851849D01*
X70248151Y-108901849D01*
X70432521Y-109025041D01*
X70650000Y-109068300D01*
X76450000Y-109068300D01*
X76667479Y-109025041D01*
X76851849Y-108901849D01*
X77191849Y-108561849D01*
X77315041Y-108377479D01*
X77358301Y-108160000D01*
X77358300Y-108159995D01*
X77358300Y-107915515D01*
X77425000Y-107915515D01*
X77561484Y-107889834D01*
X77686836Y-107809172D01*
X77770930Y-107686096D01*
X77800515Y-107540000D01*
X77800515Y-105000000D01*
X77774834Y-104863516D01*
X77694172Y-104738164D01*
X77571096Y-104654070D01*
X77425000Y-104624485D01*
X76155000Y-104624485D01*
X76018516Y-104650166D01*
X75893164Y-104730828D01*
X75809070Y-104853904D01*
X75779485Y-105000000D01*
X75779485Y-107540000D01*
X75805166Y-107676484D01*
X75885828Y-107801836D01*
X76008904Y-107885930D01*
X76155000Y-107915515D01*
X76221700Y-107915515D01*
X76221700Y-107924602D01*
X76214602Y-107931700D01*
X70885398Y-107931700D01*
X70168300Y-107214602D01*
X70168300Y-105621998D01*
X70218151Y-105671849D01*
X70402521Y-105795041D01*
X70620000Y-105838301D01*
X70620005Y-105838300D01*
X70699485Y-105838300D01*
X70699485Y-107540000D01*
X70725166Y-107676484D01*
X70805828Y-107801836D01*
X70928904Y-107885930D01*
X71075000Y-107915515D01*
X72345000Y-107915515D01*
X72481484Y-107889834D01*
X72606836Y-107809172D01*
X72690930Y-107686096D01*
X72720515Y-107540000D01*
X72720515Y-105000000D01*
X72694834Y-104863516D01*
X72614172Y-104738164D01*
X72491096Y-104654070D01*
X72345000Y-104624485D01*
X71075000Y-104624485D01*
X70938516Y-104650166D01*
X70918300Y-104663175D01*
X70918300Y-103338685D01*
X70928904Y-103345930D01*
X71075000Y-103375515D01*
X72345000Y-103375515D01*
X72481484Y-103349834D01*
X72606836Y-103269172D01*
X72690930Y-103146096D01*
X72720515Y-103000000D01*
X72720515Y-100460000D01*
X72694834Y-100323516D01*
X72614172Y-100198164D01*
X72491096Y-100114070D01*
X72345000Y-100084485D01*
X72278300Y-100084485D01*
X72278300Y-100025398D01*
X73485398Y-98818300D01*
X73874485Y-98818300D01*
X73874485Y-99100000D01*
X73900166Y-99236484D01*
X73980828Y-99361836D01*
X74103904Y-99445930D01*
X74250000Y-99475515D01*
X76250000Y-99475515D01*
X76386484Y-99449834D01*
X76511836Y-99369172D01*
X76595930Y-99246096D01*
X76625515Y-99100000D01*
X76625515Y-97929213D01*
X77348151Y-98651849D01*
X77532521Y-98775041D01*
X77750000Y-98818300D01*
X77874485Y-98818300D01*
X77874485Y-99100000D01*
X77900166Y-99236484D01*
X77980828Y-99361836D01*
X78103904Y-99445930D01*
X78250000Y-99475515D01*
X78681700Y-99475515D01*
X78681700Y-99764602D01*
X77800515Y-100645787D01*
X77800515Y-100460000D01*
X77774834Y-100323516D01*
X77694172Y-100198164D01*
X77571096Y-100114070D01*
X77425000Y-100084485D01*
X76155000Y-100084485D01*
X76018516Y-100110166D01*
X75893164Y-100190828D01*
X75809070Y-100313904D01*
X75779485Y-100460000D01*
X75779485Y-103000000D01*
X75785450Y-103031700D01*
X75254096Y-103031700D01*
X75260515Y-103000000D01*
X75260515Y-100460000D01*
X75234834Y-100323516D01*
X75154172Y-100198164D01*
X75031096Y-100114070D01*
X74885000Y-100084485D01*
X73615000Y-100084485D01*
X73478516Y-100110166D01*
X73353164Y-100190828D01*
X73269070Y-100313904D01*
X73239485Y-100460000D01*
X73239485Y-103000000D01*
X73265166Y-103136484D01*
X73345828Y-103261836D01*
X73468904Y-103345930D01*
X73615000Y-103375515D01*
X73797146Y-103375515D01*
X73848151Y-103451849D01*
X74398149Y-104001846D01*
X74398151Y-104001849D01*
X74508672Y-104075697D01*
X74582520Y-104125041D01*
X74800000Y-104168300D01*
X80864602Y-104168300D01*
X81196302Y-104500000D01*
X80848151Y-104848151D01*
X80724959Y-105032521D01*
X80681700Y-105250000D01*
X80681700Y-111186500D01*
X67563500Y-111186500D01*
X67563500Y-94389801D01*
X68031359Y-94389801D01*
X68330384Y-95113496D01*
X68883592Y-95667670D01*
X69606763Y-95967957D01*
X70389801Y-95968641D01*
X71113496Y-95669616D01*
X71667670Y-95116408D01*
X71967957Y-94393237D01*
X71968641Y-93610199D01*
X71669616Y-92886504D01*
X71116408Y-92332330D01*
X70393237Y-92032043D01*
X69610199Y-92031359D01*
X68886504Y-92330384D01*
X68332330Y-92883592D01*
X68032043Y-93606763D01*
X68031359Y-94389801D01*
X67563500Y-94389801D01*
X67563500Y-91563500D01*
X95186500Y-91563500D01*
X95186500Y-99436500D01*
X95186500Y-99436500D01*
G37*
X95186500Y-99436500D02*
X89500000Y-99436500D01*
X89475295Y-99441503D01*
X89454483Y-99455723D01*
X89440843Y-99476920D01*
X89436500Y-99500000D01*
X89436500Y-123000000D01*
X89441503Y-123024705D01*
X89455723Y-123045517D01*
X89476920Y-123059157D01*
X89500000Y-123063500D01*
X102436500Y-123063500D01*
X102436500Y-136936500D01*
X80563500Y-136936500D01*
X80563500Y-123063500D01*
X81000000Y-123063500D01*
X81024705Y-123058497D01*
X81045517Y-123044277D01*
X81059157Y-123023080D01*
X81063500Y-123000000D01*
X81063500Y-117313500D01*
X88750000Y-117313500D01*
X88774705Y-117308497D01*
X88795517Y-117294277D01*
X88809157Y-117273080D01*
X88813500Y-117250000D01*
X88813500Y-111250000D01*
X88808497Y-111225295D01*
X88794277Y-111204483D01*
X88773080Y-111190843D01*
X88750000Y-111186500D01*
X81818300Y-111186500D01*
X81818300Y-107210000D01*
X83324485Y-107210000D01*
X83324485Y-109710000D01*
X83350166Y-109846484D01*
X83430828Y-109971836D01*
X83553904Y-110055930D01*
X83700000Y-110085515D01*
X88300000Y-110085515D01*
X88436484Y-110059834D01*
X88561836Y-109979172D01*
X88645930Y-109856096D01*
X88675515Y-109710000D01*
X88675515Y-107210000D01*
X88649834Y-107073516D01*
X88569172Y-106948164D01*
X88446096Y-106864070D01*
X88300000Y-106834485D01*
X88068300Y-106834485D01*
X88068300Y-105725515D01*
X88500000Y-105725515D01*
X88636484Y-105699834D01*
X88761836Y-105619172D01*
X88845930Y-105496096D01*
X88875515Y-105350000D01*
X88875515Y-103650000D01*
X88849834Y-103513516D01*
X88769172Y-103388164D01*
X88646096Y-103304070D01*
X88500000Y-103274485D01*
X88068300Y-103274485D01*
X88068300Y-102725515D01*
X88500000Y-102725515D01*
X88636484Y-102699834D01*
X88761836Y-102619172D01*
X88845930Y-102496096D01*
X88875515Y-102350000D01*
X88875515Y-100650000D01*
X88849834Y-100513516D01*
X88769172Y-100388164D01*
X88646096Y-100304070D01*
X88500000Y-100274485D01*
X86500000Y-100274485D01*
X86363516Y-100300166D01*
X86238164Y-100380828D01*
X86154070Y-100503904D01*
X86124485Y-100650000D01*
X86124485Y-102350000D01*
X86150166Y-102486484D01*
X86230828Y-102611836D01*
X86353904Y-102695930D01*
X86500000Y-102725515D01*
X86931700Y-102725515D01*
X86931700Y-103274485D01*
X86500000Y-103274485D01*
X86363516Y-103300166D01*
X86238164Y-103380828D01*
X86154070Y-103503904D01*
X86124485Y-103650000D01*
X86124485Y-105350000D01*
X86150166Y-105486484D01*
X86230828Y-105611836D01*
X86353904Y-105695930D01*
X86500000Y-105725515D01*
X86931700Y-105725515D01*
X86931700Y-106724602D01*
X86821817Y-106834485D01*
X83700000Y-106834485D01*
X83563516Y-106860166D01*
X83438164Y-106940828D01*
X83354070Y-107063904D01*
X83324485Y-107210000D01*
X81818300Y-107210000D01*
X81818300Y-105485398D01*
X82124485Y-105179213D01*
X82124485Y-105350000D01*
X82150166Y-105486484D01*
X82230828Y-105611836D01*
X82353904Y-105695930D01*
X82500000Y-105725515D01*
X84500000Y-105725515D01*
X84636484Y-105699834D01*
X84761836Y-105619172D01*
X84845930Y-105496096D01*
X84875515Y-105350000D01*
X84875515Y-103650000D01*
X84849834Y-103513516D01*
X84769172Y-103388164D01*
X84646096Y-103304070D01*
X84500000Y-103274485D01*
X82500000Y-103274485D01*
X82363516Y-103300166D01*
X82238164Y-103380828D01*
X82154070Y-103503904D01*
X82124485Y-103650000D01*
X82124485Y-103820787D01*
X81501849Y-103198151D01*
X81317479Y-103074959D01*
X81100000Y-103031700D01*
X77794096Y-103031700D01*
X77800515Y-103000000D01*
X77800515Y-102003183D01*
X77985398Y-101818300D01*
X78000000Y-101818300D01*
X78217479Y-101775041D01*
X78401849Y-101651849D01*
X79403698Y-100650000D01*
X82124485Y-100650000D01*
X82124485Y-102350000D01*
X82150166Y-102486484D01*
X82230828Y-102611836D01*
X82353904Y-102695930D01*
X82500000Y-102725515D01*
X84500000Y-102725515D01*
X84636484Y-102699834D01*
X84761836Y-102619172D01*
X84845930Y-102496096D01*
X84875515Y-102350000D01*
X84875515Y-101428183D01*
X86151849Y-100151849D01*
X86275041Y-99967479D01*
X86318300Y-99750000D01*
X86318300Y-98985398D01*
X86715398Y-98588300D01*
X88074485Y-98588300D01*
X88074485Y-98820000D01*
X88100166Y-98956484D01*
X88180828Y-99081836D01*
X88303904Y-99165930D01*
X88450000Y-99195515D01*
X90050000Y-99195515D01*
X90186484Y-99169834D01*
X90311836Y-99089172D01*
X90395930Y-98966096D01*
X90425515Y-98820000D01*
X90425515Y-97220000D01*
X90399834Y-97083516D01*
X90319172Y-96958164D01*
X90196096Y-96874070D01*
X90050000Y-96844485D01*
X88450000Y-96844485D01*
X88313516Y-96870166D01*
X88188164Y-96950828D01*
X88104070Y-97073904D01*
X88074485Y-97220000D01*
X88074485Y-97451700D01*
X86480000Y-97451700D01*
X86262521Y-97494959D01*
X86078151Y-97618151D01*
X85348151Y-98348151D01*
X85224959Y-98532521D01*
X85181700Y-98750000D01*
X85181700Y-99514602D01*
X84421817Y-100274485D01*
X82500000Y-100274485D01*
X82363516Y-100300166D01*
X82238164Y-100380828D01*
X82154070Y-100503904D01*
X82124485Y-100650000D01*
X79403698Y-100650000D01*
X79651849Y-100401849D01*
X79775041Y-100217479D01*
X79818300Y-100000000D01*
X79818300Y-99475515D01*
X80250000Y-99475515D01*
X80386484Y-99449834D01*
X80511836Y-99369172D01*
X80595930Y-99246096D01*
X80625515Y-99100000D01*
X80625515Y-97429213D01*
X81574485Y-98378183D01*
X81574485Y-98820000D01*
X81600166Y-98956484D01*
X81680828Y-99081836D01*
X81803904Y-99165930D01*
X81950000Y-99195515D01*
X83550000Y-99195515D01*
X83686484Y-99169834D01*
X83811836Y-99089172D01*
X83895930Y-98966096D01*
X83925515Y-98820000D01*
X83925515Y-97648183D01*
X85151849Y-96421849D01*
X85275041Y-96237479D01*
X85318300Y-96020000D01*
X85318300Y-94500000D01*
X85275041Y-94282521D01*
X85151849Y-94098151D01*
X83601849Y-92548151D01*
X83417479Y-92424959D01*
X83200000Y-92381700D01*
X74053265Y-92381700D01*
X74053260Y-92381699D01*
X73835781Y-92424959D01*
X73651411Y-92548151D01*
X72293349Y-93906213D01*
X72170157Y-94090583D01*
X72126898Y-94308062D01*
X72126898Y-96219404D01*
X69198151Y-99148151D01*
X69074959Y-99332521D01*
X69031700Y-99550000D01*
X69031700Y-107450000D01*
X69074959Y-107667479D01*
X69198151Y-107851849D01*
X70248151Y-108901849D01*
X70432521Y-109025041D01*
X70650000Y-109068300D01*
X76450000Y-109068300D01*
X76667479Y-109025041D01*
X76851849Y-108901849D01*
X77191849Y-108561849D01*
X77315041Y-108377479D01*
X77358301Y-108160000D01*
X77358300Y-108159995D01*
X77358300Y-107915515D01*
X77425000Y-107915515D01*
X77561484Y-107889834D01*
X77686836Y-107809172D01*
X77770930Y-107686096D01*
X77800515Y-107540000D01*
X77800515Y-105000000D01*
X77774834Y-104863516D01*
X77694172Y-104738164D01*
X77571096Y-104654070D01*
X77425000Y-104624485D01*
X76155000Y-104624485D01*
X76018516Y-104650166D01*
X75893164Y-104730828D01*
X75809070Y-104853904D01*
X75779485Y-105000000D01*
X75779485Y-107540000D01*
X75805166Y-107676484D01*
X75885828Y-107801836D01*
X76008904Y-107885930D01*
X76155000Y-107915515D01*
X76221700Y-107915515D01*
X76221700Y-107924602D01*
X76214602Y-107931700D01*
X70885398Y-107931700D01*
X70168300Y-107214602D01*
X70168300Y-105621998D01*
X70218151Y-105671849D01*
X70402521Y-105795041D01*
X70620000Y-105838301D01*
X70620005Y-105838300D01*
X70699485Y-105838300D01*
X70699485Y-107540000D01*
X70725166Y-107676484D01*
X70805828Y-107801836D01*
X70928904Y-107885930D01*
X71075000Y-107915515D01*
X72345000Y-107915515D01*
X72481484Y-107889834D01*
X72606836Y-107809172D01*
X72690930Y-107686096D01*
X72720515Y-107540000D01*
X72720515Y-105000000D01*
X72694834Y-104863516D01*
X72614172Y-104738164D01*
X72491096Y-104654070D01*
X72345000Y-104624485D01*
X71075000Y-104624485D01*
X70938516Y-104650166D01*
X70918300Y-104663175D01*
X70918300Y-103338685D01*
X70928904Y-103345930D01*
X71075000Y-103375515D01*
X72345000Y-103375515D01*
X72481484Y-103349834D01*
X72606836Y-103269172D01*
X72690930Y-103146096D01*
X72720515Y-103000000D01*
X72720515Y-100460000D01*
X72694834Y-100323516D01*
X72614172Y-100198164D01*
X72491096Y-100114070D01*
X72345000Y-100084485D01*
X72278300Y-100084485D01*
X72278300Y-100025398D01*
X73485398Y-98818300D01*
X73874485Y-98818300D01*
X73874485Y-99100000D01*
X73900166Y-99236484D01*
X73980828Y-99361836D01*
X74103904Y-99445930D01*
X74250000Y-99475515D01*
X76250000Y-99475515D01*
X76386484Y-99449834D01*
X76511836Y-99369172D01*
X76595930Y-99246096D01*
X76625515Y-99100000D01*
X76625515Y-97929213D01*
X77348151Y-98651849D01*
X77532521Y-98775041D01*
X77750000Y-98818300D01*
X77874485Y-98818300D01*
X77874485Y-99100000D01*
X77900166Y-99236484D01*
X77980828Y-99361836D01*
X78103904Y-99445930D01*
X78250000Y-99475515D01*
X78681700Y-99475515D01*
X78681700Y-99764602D01*
X77800515Y-100645787D01*
X77800515Y-100460000D01*
X77774834Y-100323516D01*
X77694172Y-100198164D01*
X77571096Y-100114070D01*
X77425000Y-100084485D01*
X76155000Y-100084485D01*
X76018516Y-100110166D01*
X75893164Y-100190828D01*
X75809070Y-100313904D01*
X75779485Y-100460000D01*
X75779485Y-103000000D01*
X75785450Y-103031700D01*
X75254096Y-103031700D01*
X75260515Y-103000000D01*
X75260515Y-100460000D01*
X75234834Y-100323516D01*
X75154172Y-100198164D01*
X75031096Y-100114070D01*
X74885000Y-100084485D01*
X73615000Y-100084485D01*
X73478516Y-100110166D01*
X73353164Y-100190828D01*
X73269070Y-100313904D01*
X73239485Y-100460000D01*
X73239485Y-103000000D01*
X73265166Y-103136484D01*
X73345828Y-103261836D01*
X73468904Y-103345930D01*
X73615000Y-103375515D01*
X73797146Y-103375515D01*
X73848151Y-103451849D01*
X74398149Y-104001846D01*
X74398151Y-104001849D01*
X74508672Y-104075697D01*
X74582520Y-104125041D01*
X74800000Y-104168300D01*
X80864602Y-104168300D01*
X81196302Y-104500000D01*
X80848151Y-104848151D01*
X80724959Y-105032521D01*
X80681700Y-105250000D01*
X80681700Y-111186500D01*
X67563500Y-111186500D01*
X67563500Y-94389801D01*
X68031359Y-94389801D01*
X68330384Y-95113496D01*
X68883592Y-95667670D01*
X69606763Y-95967957D01*
X70389801Y-95968641D01*
X71113496Y-95669616D01*
X71667670Y-95116408D01*
X71967957Y-94393237D01*
X71968641Y-93610199D01*
X71669616Y-92886504D01*
X71116408Y-92332330D01*
X70393237Y-92032043D01*
X69610199Y-92031359D01*
X68886504Y-92330384D01*
X68332330Y-92883592D01*
X68032043Y-93606763D01*
X68031359Y-94389801D01*
X67563500Y-94389801D01*
X67563500Y-91563500D01*
X95186500Y-91563500D01*
X95186500Y-99436500D01*
G36*
X88436500Y-116936500D02*
X80500000Y-116936500D01*
X80475295Y-116941503D01*
X80455099Y-116955099D01*
X78955099Y-118455099D01*
X78941167Y-118476105D01*
X78936500Y-118500000D01*
X78936500Y-136436500D01*
X69063500Y-136436500D01*
X69063500Y-114526302D01*
X72026302Y-111563500D01*
X88436500Y-111563500D01*
X88436500Y-116936500D01*
X88436500Y-116936500D01*
G37*
X88436500Y-116936500D02*
X80500000Y-116936500D01*
X80475295Y-116941503D01*
X80455099Y-116955099D01*
X78955099Y-118455099D01*
X78941167Y-118476105D01*
X78936500Y-118500000D01*
X78936500Y-136436500D01*
X69063500Y-136436500D01*
X69063500Y-114526302D01*
X72026302Y-111563500D01*
X88436500Y-111563500D01*
X88436500Y-116936500D01*
M02*
