G04 #@! TF.FileFunction,Legend,Top*
%FSLAX46Y46*%
G04 Gerber Fmt 4.6, Leading zero omitted, Abs format (unit mm)*
G04 Created by KiCad (PCBNEW 4.0.6) date 06/24/17 22:10:55*
%MOMM*%
%LPD*%
G01*
G04 APERTURE LIST*
%ADD10C,0.100000*%
%ADD11C,0.150000*%
%ADD12C,0.300000*%
%ADD13C,0.400000*%
%ADD14C,0.010000*%
G04 APERTURE END LIST*
D10*
D11*
X79999600Y-155999600D02*
X79999600Y-187999600D01*
X187999600Y-187999600D01*
X187999600Y-155999600D01*
X79999600Y-155999600D01*
D10*
D11*
X10000000Y-10000000D02*
X10000000Y-189999600D01*
X189999600Y-189999600D01*
X189999600Y-10000000D01*
X10000000Y-10000000D01*
D10*
D11*
X12000000Y-12000000D02*
X12000000Y-187999600D01*
X187999600Y-187999600D01*
X187999600Y-12000000D01*
X12000000Y-12000000D01*
D10*
D11*
X60000000Y-12000000D02*
X60000000Y-10000000D01*
D10*
D11*
X110000000Y-12000000D02*
X110000000Y-10000000D01*
D10*
D11*
X160000000Y-12000000D02*
X160000000Y-10000000D01*
D10*
D11*
X35990476Y-11588095D02*
X35247619Y-11588095D01*
X35619048Y-11588095D02*
X35619048Y-10288095D01*
X35495238Y-10473810D01*
X35371429Y-10597619D01*
X35247619Y-10659524D01*
D10*
D11*
X85247619Y-10411905D02*
X85309524Y-10350000D01*
X85433333Y-10288095D01*
X85742857Y-10288095D01*
X85866667Y-10350000D01*
X85928571Y-10411905D01*
X85990476Y-10535714D01*
X85990476Y-10659524D01*
X85928571Y-10845238D01*
X85185714Y-11588095D01*
X85990476Y-11588095D01*
D10*
D11*
X135185714Y-10288095D02*
X135990476Y-10288095D01*
X135557143Y-10783333D01*
X135742857Y-10783333D01*
X135866667Y-10845238D01*
X135928571Y-10907143D01*
X135990476Y-11030952D01*
X135990476Y-11340476D01*
X135928571Y-11464286D01*
X135866667Y-11526190D01*
X135742857Y-11588095D01*
X135371429Y-11588095D01*
X135247619Y-11526190D01*
X135185714Y-11464286D01*
D10*
D11*
X185866667Y-10721429D02*
X185866667Y-11588095D01*
X185557143Y-10226190D02*
X185247619Y-11154762D01*
X186052381Y-11154762D01*
D10*
D11*
X60000000Y-187999600D02*
X60000000Y-189999600D01*
D10*
D11*
X110000000Y-187999600D02*
X110000000Y-189999600D01*
D10*
D11*
X160000000Y-187999600D02*
X160000000Y-189999600D01*
D10*
D11*
X35990476Y-189587695D02*
X35247619Y-189587695D01*
X35619048Y-189587695D02*
X35619048Y-188287695D01*
X35495238Y-188473410D01*
X35371429Y-188597219D01*
X35247619Y-188659124D01*
D10*
D11*
X85247619Y-188411505D02*
X85309524Y-188349600D01*
X85433333Y-188287695D01*
X85742857Y-188287695D01*
X85866667Y-188349600D01*
X85928571Y-188411505D01*
X85990476Y-188535314D01*
X85990476Y-188659124D01*
X85928571Y-188844838D01*
X85185714Y-189587695D01*
X85990476Y-189587695D01*
D10*
D11*
X135185714Y-188287695D02*
X135990476Y-188287695D01*
X135557143Y-188782933D01*
X135742857Y-188782933D01*
X135866667Y-188844838D01*
X135928571Y-188906743D01*
X135990476Y-189030552D01*
X135990476Y-189340076D01*
X135928571Y-189463886D01*
X135866667Y-189525790D01*
X135742857Y-189587695D01*
X135371429Y-189587695D01*
X135247619Y-189525790D01*
X135185714Y-189463886D01*
D10*
D11*
X185866667Y-188721029D02*
X185866667Y-189587695D01*
X185557143Y-188225790D02*
X185247619Y-189154362D01*
X186052381Y-189154362D01*
D10*
D11*
X10000000Y-60000000D02*
X12000000Y-60000000D01*
D10*
D11*
X10000000Y-110000000D02*
X12000000Y-110000000D01*
D10*
D11*
X10000000Y-160000000D02*
X12000000Y-160000000D01*
D10*
D11*
X10690476Y-35216667D02*
X11309524Y-35216667D01*
X10566667Y-35588095D02*
X11000000Y-34288095D01*
X11433333Y-35588095D01*
D10*
D11*
X11092857Y-84907143D02*
X11278571Y-84969048D01*
X11340476Y-85030952D01*
X11402381Y-85154762D01*
X11402381Y-85340476D01*
X11340476Y-85464286D01*
X11278571Y-85526190D01*
X11154762Y-85588095D01*
X10659524Y-85588095D01*
X10659524Y-84288095D01*
X11092857Y-84288095D01*
X11216667Y-84350000D01*
X11278571Y-84411905D01*
X11340476Y-84535714D01*
X11340476Y-84659524D01*
X11278571Y-84783333D01*
X11216667Y-84845238D01*
X11092857Y-84907143D01*
X10659524Y-84907143D01*
D10*
D11*
X11402381Y-135464286D02*
X11340476Y-135526190D01*
X11154762Y-135588095D01*
X11030952Y-135588095D01*
X10845238Y-135526190D01*
X10721429Y-135402381D01*
X10659524Y-135278571D01*
X10597619Y-135030952D01*
X10597619Y-134845238D01*
X10659524Y-134597619D01*
X10721429Y-134473810D01*
X10845238Y-134350000D01*
X11030952Y-134288095D01*
X11154762Y-134288095D01*
X11340476Y-134350000D01*
X11402381Y-134411905D01*
D10*
D11*
X10659524Y-185588095D02*
X10659524Y-184288095D01*
X10969048Y-184288095D01*
X11154762Y-184350000D01*
X11278571Y-184473810D01*
X11340476Y-184597619D01*
X11402381Y-184845238D01*
X11402381Y-185030952D01*
X11340476Y-185278571D01*
X11278571Y-185402381D01*
X11154762Y-185526190D01*
X10969048Y-185588095D01*
X10659524Y-185588095D01*
D10*
D11*
X189999600Y-60000000D02*
X187999600Y-60000000D01*
D10*
D11*
X189999600Y-110000000D02*
X187999600Y-110000000D01*
D10*
D11*
X189999600Y-160000000D02*
X187999600Y-160000000D01*
D10*
D11*
X188690076Y-35216667D02*
X189309124Y-35216667D01*
X188566267Y-35588095D02*
X188999600Y-34288095D01*
X189432933Y-35588095D01*
D10*
D11*
X189092457Y-84907143D02*
X189278171Y-84969048D01*
X189340076Y-85030952D01*
X189401981Y-85154762D01*
X189401981Y-85340476D01*
X189340076Y-85464286D01*
X189278171Y-85526190D01*
X189154362Y-85588095D01*
X188659124Y-85588095D01*
X188659124Y-84288095D01*
X189092457Y-84288095D01*
X189216267Y-84350000D01*
X189278171Y-84411905D01*
X189340076Y-84535714D01*
X189340076Y-84659524D01*
X189278171Y-84783333D01*
X189216267Y-84845238D01*
X189092457Y-84907143D01*
X188659124Y-84907143D01*
D10*
D11*
X189401981Y-135464286D02*
X189340076Y-135526190D01*
X189154362Y-135588095D01*
X189030552Y-135588095D01*
X188844838Y-135526190D01*
X188721029Y-135402381D01*
X188659124Y-135278571D01*
X188597219Y-135030952D01*
X188597219Y-134845238D01*
X188659124Y-134597619D01*
X188721029Y-134473810D01*
X188844838Y-134350000D01*
X189030552Y-134288095D01*
X189154362Y-134288095D01*
X189340076Y-134350000D01*
X189401981Y-134411905D01*
D10*
D11*
X188659124Y-185588095D02*
X188659124Y-184288095D01*
X188968648Y-184288095D01*
X189154362Y-184350000D01*
X189278171Y-184473810D01*
X189340076Y-184597619D01*
X189401981Y-184845238D01*
X189401981Y-185030952D01*
X189340076Y-185278571D01*
X189278171Y-185402381D01*
X189154362Y-185526190D01*
X188968648Y-185588095D01*
X188659124Y-185588095D01*
D10*
D11*
X103356743Y-183778171D02*
X103356743Y-182278171D01*
X103713886Y-182278171D01*
X103928171Y-182349600D01*
X104071029Y-182492457D01*
X104142457Y-182635314D01*
X104213886Y-182921029D01*
X104213886Y-183135314D01*
X104142457Y-183421029D01*
X104071029Y-183563886D01*
X103928171Y-183706743D01*
X103713886Y-183778171D01*
X103356743Y-183778171D01*
X105499600Y-183778171D02*
X105499600Y-182992457D01*
X105428171Y-182849600D01*
X105285314Y-182778171D01*
X104999600Y-182778171D01*
X104856743Y-182849600D01*
X105499600Y-183706743D02*
X105356743Y-183778171D01*
X104999600Y-183778171D01*
X104856743Y-183706743D01*
X104785314Y-183563886D01*
X104785314Y-183421029D01*
X104856743Y-183278171D01*
X104999600Y-183206743D01*
X105356743Y-183206743D01*
X105499600Y-183135314D01*
X105999600Y-182778171D02*
X106571029Y-182778171D01*
X106213886Y-182278171D02*
X106213886Y-183563886D01*
X106285314Y-183706743D01*
X106428172Y-183778171D01*
X106571029Y-183778171D01*
X107642457Y-183706743D02*
X107499600Y-183778171D01*
X107213886Y-183778171D01*
X107071029Y-183706743D01*
X106999600Y-183563886D01*
X106999600Y-182992457D01*
X107071029Y-182849600D01*
X107213886Y-182778171D01*
X107499600Y-182778171D01*
X107642457Y-182849600D01*
X107713886Y-182992457D01*
X107713886Y-183135314D01*
X106999600Y-183278171D01*
X108356743Y-183635314D02*
X108428171Y-183706743D01*
X108356743Y-183778171D01*
X108285314Y-183706743D01*
X108356743Y-183635314D01*
X108356743Y-183778171D01*
X108356743Y-182849600D02*
X108428171Y-182921029D01*
X108356743Y-182992457D01*
X108285314Y-182921029D01*
X108356743Y-182849600D01*
X108356743Y-182992457D01*
X110142457Y-182421029D02*
X110213886Y-182349600D01*
X110356743Y-182278171D01*
X110713886Y-182278171D01*
X110856743Y-182349600D01*
X110928172Y-182421029D01*
X110999600Y-182563886D01*
X110999600Y-182706743D01*
X110928172Y-182921029D01*
X110071029Y-183778171D01*
X110999600Y-183778171D01*
X111928171Y-182278171D02*
X112071028Y-182278171D01*
X112213885Y-182349600D01*
X112285314Y-182421029D01*
X112356743Y-182563886D01*
X112428171Y-182849600D01*
X112428171Y-183206743D01*
X112356743Y-183492457D01*
X112285314Y-183635314D01*
X112213885Y-183706743D01*
X112071028Y-183778171D01*
X111928171Y-183778171D01*
X111785314Y-183706743D01*
X111713885Y-183635314D01*
X111642457Y-183492457D01*
X111571028Y-183206743D01*
X111571028Y-182849600D01*
X111642457Y-182563886D01*
X111713885Y-182421029D01*
X111785314Y-182349600D01*
X111928171Y-182278171D01*
X113856742Y-183778171D02*
X112999599Y-183778171D01*
X113428171Y-183778171D02*
X113428171Y-182278171D01*
X113285314Y-182492457D01*
X113142456Y-182635314D01*
X112999599Y-182706743D01*
X114356742Y-182278171D02*
X115356742Y-182278171D01*
X114713885Y-183778171D01*
X115928170Y-183206743D02*
X117071027Y-183206743D01*
X118071027Y-182278171D02*
X118213884Y-182278171D01*
X118356741Y-182349600D01*
X118428170Y-182421029D01*
X118499599Y-182563886D01*
X118571027Y-182849600D01*
X118571027Y-183206743D01*
X118499599Y-183492457D01*
X118428170Y-183635314D01*
X118356741Y-183706743D01*
X118213884Y-183778171D01*
X118071027Y-183778171D01*
X117928170Y-183706743D01*
X117856741Y-183635314D01*
X117785313Y-183492457D01*
X117713884Y-183206743D01*
X117713884Y-182849600D01*
X117785313Y-182563886D01*
X117856741Y-182421029D01*
X117928170Y-182349600D01*
X118071027Y-182278171D01*
X119071027Y-182278171D02*
X119999598Y-182278171D01*
X119499598Y-182849600D01*
X119713884Y-182849600D01*
X119856741Y-182921029D01*
X119928170Y-182992457D01*
X119999598Y-183135314D01*
X119999598Y-183492457D01*
X119928170Y-183635314D01*
X119856741Y-183706743D01*
X119713884Y-183778171D01*
X119285312Y-183778171D01*
X119142455Y-183706743D01*
X119071027Y-183635314D01*
X120642455Y-183206743D02*
X121785312Y-183206743D01*
X122356741Y-182278171D02*
X123285312Y-182278171D01*
X122785312Y-182849600D01*
X122999598Y-182849600D01*
X123142455Y-182921029D01*
X123213884Y-182992457D01*
X123285312Y-183135314D01*
X123285312Y-183492457D01*
X123213884Y-183635314D01*
X123142455Y-183706743D01*
X122999598Y-183778171D01*
X122571026Y-183778171D01*
X122428169Y-183706743D01*
X122356741Y-183635314D01*
X124713883Y-183778171D02*
X123856740Y-183778171D01*
X124285312Y-183778171D02*
X124285312Y-182278171D01*
X124142455Y-182492457D01*
X123999597Y-182635314D01*
X123856740Y-182706743D01*
D10*
D11*
X79999600Y-184499600D02*
X187999600Y-184499600D01*
D10*
D11*
X81356743Y-186578171D02*
X81356743Y-185078171D01*
X82213886Y-186578171D02*
X81571029Y-185721029D01*
X82213886Y-185078171D02*
X81356743Y-185935314D01*
X82856743Y-186578171D02*
X82856743Y-185578171D01*
X82856743Y-185078171D02*
X82785314Y-185149600D01*
X82856743Y-185221029D01*
X82928171Y-185149600D01*
X82856743Y-185078171D01*
X82856743Y-185221029D01*
X84428172Y-186435314D02*
X84356743Y-186506743D01*
X84142457Y-186578171D01*
X83999600Y-186578171D01*
X83785315Y-186506743D01*
X83642457Y-186363886D01*
X83571029Y-186221029D01*
X83499600Y-185935314D01*
X83499600Y-185721029D01*
X83571029Y-185435314D01*
X83642457Y-185292457D01*
X83785315Y-185149600D01*
X83999600Y-185078171D01*
X84142457Y-185078171D01*
X84356743Y-185149600D01*
X84428172Y-185221029D01*
X85713886Y-186578171D02*
X85713886Y-185792457D01*
X85642457Y-185649600D01*
X85499600Y-185578171D01*
X85213886Y-185578171D01*
X85071029Y-185649600D01*
X85713886Y-186506743D02*
X85571029Y-186578171D01*
X85213886Y-186578171D01*
X85071029Y-186506743D01*
X84999600Y-186363886D01*
X84999600Y-186221029D01*
X85071029Y-186078171D01*
X85213886Y-186006743D01*
X85571029Y-186006743D01*
X85713886Y-185935314D01*
X87071029Y-186578171D02*
X87071029Y-185078171D01*
X87071029Y-186506743D02*
X86928172Y-186578171D01*
X86642458Y-186578171D01*
X86499600Y-186506743D01*
X86428172Y-186435314D01*
X86356743Y-186292457D01*
X86356743Y-185863886D01*
X86428172Y-185721029D01*
X86499600Y-185649600D01*
X86642458Y-185578171D01*
X86928172Y-185578171D01*
X87071029Y-185649600D01*
X88928172Y-185792457D02*
X89428172Y-185792457D01*
X89642458Y-186578171D02*
X88928172Y-186578171D01*
X88928172Y-185078171D01*
X89642458Y-185078171D01*
X90285315Y-186435314D02*
X90356743Y-186506743D01*
X90285315Y-186578171D01*
X90213886Y-186506743D01*
X90285315Y-186435314D01*
X90285315Y-186578171D01*
X90999601Y-186578171D02*
X90999601Y-185078171D01*
X91356744Y-185078171D01*
X91571029Y-185149600D01*
X91713887Y-185292457D01*
X91785315Y-185435314D01*
X91856744Y-185721029D01*
X91856744Y-185935314D01*
X91785315Y-186221029D01*
X91713887Y-186363886D01*
X91571029Y-186506743D01*
X91356744Y-186578171D01*
X90999601Y-186578171D01*
X92499601Y-186435314D02*
X92571029Y-186506743D01*
X92499601Y-186578171D01*
X92428172Y-186506743D01*
X92499601Y-186435314D01*
X92499601Y-186578171D01*
X93142458Y-186149600D02*
X93856744Y-186149600D01*
X92999601Y-186578171D02*
X93499601Y-185078171D01*
X93999601Y-186578171D01*
X94499601Y-186435314D02*
X94571029Y-186506743D01*
X94499601Y-186578171D01*
X94428172Y-186506743D01*
X94499601Y-186435314D01*
X94499601Y-186578171D01*
X97499601Y-186578171D02*
X97499601Y-185078171D01*
X97642458Y-186006743D02*
X98071029Y-186578171D01*
X98071029Y-185578171D02*
X97499601Y-186149600D01*
X98713887Y-186578171D02*
X98713887Y-185578171D01*
X98713887Y-185078171D02*
X98642458Y-185149600D01*
X98713887Y-185221029D01*
X98785315Y-185149600D01*
X98713887Y-185078171D01*
X98713887Y-185221029D01*
X100071030Y-186506743D02*
X99928173Y-186578171D01*
X99642459Y-186578171D01*
X99499601Y-186506743D01*
X99428173Y-186435314D01*
X99356744Y-186292457D01*
X99356744Y-185863886D01*
X99428173Y-185721029D01*
X99499601Y-185649600D01*
X99642459Y-185578171D01*
X99928173Y-185578171D01*
X100071030Y-185649600D01*
X101356744Y-186578171D02*
X101356744Y-185792457D01*
X101285315Y-185649600D01*
X101142458Y-185578171D01*
X100856744Y-185578171D01*
X100713887Y-185649600D01*
X101356744Y-186506743D02*
X101213887Y-186578171D01*
X100856744Y-186578171D01*
X100713887Y-186506743D01*
X100642458Y-186363886D01*
X100642458Y-186221029D01*
X100713887Y-186078171D01*
X100856744Y-186006743D01*
X101213887Y-186006743D01*
X101356744Y-185935314D01*
X102713887Y-186578171D02*
X102713887Y-185078171D01*
X102713887Y-186506743D02*
X102571030Y-186578171D01*
X102285316Y-186578171D01*
X102142458Y-186506743D01*
X102071030Y-186435314D01*
X101999601Y-186292457D01*
X101999601Y-185863886D01*
X102071030Y-185721029D01*
X102142458Y-185649600D01*
X102285316Y-185578171D01*
X102571030Y-185578171D01*
X102713887Y-185649600D01*
X105213887Y-185578171D02*
X105213887Y-186578171D01*
X104856744Y-185006743D02*
X104499601Y-186078171D01*
X105428173Y-186078171D01*
X105999601Y-186435314D02*
X106071029Y-186506743D01*
X105999601Y-186578171D01*
X105928172Y-186506743D01*
X105999601Y-186435314D01*
X105999601Y-186578171D01*
X106999601Y-185078171D02*
X107142458Y-185078171D01*
X107285315Y-185149600D01*
X107356744Y-185221029D01*
X107428173Y-185363886D01*
X107499601Y-185649600D01*
X107499601Y-186006743D01*
X107428173Y-186292457D01*
X107356744Y-186435314D01*
X107285315Y-186506743D01*
X107142458Y-186578171D01*
X106999601Y-186578171D01*
X106856744Y-186506743D01*
X106785315Y-186435314D01*
X106713887Y-186292457D01*
X106642458Y-186006743D01*
X106642458Y-185649600D01*
X106713887Y-185363886D01*
X106785315Y-185221029D01*
X106856744Y-185149600D01*
X106999601Y-185078171D01*
X108142458Y-186435314D02*
X108213886Y-186506743D01*
X108142458Y-186578171D01*
X108071029Y-186506743D01*
X108142458Y-186435314D01*
X108142458Y-186578171D01*
X109499601Y-185078171D02*
X109213887Y-185078171D01*
X109071030Y-185149600D01*
X108999601Y-185221029D01*
X108856744Y-185435314D01*
X108785315Y-185721029D01*
X108785315Y-186292457D01*
X108856744Y-186435314D01*
X108928172Y-186506743D01*
X109071030Y-186578171D01*
X109356744Y-186578171D01*
X109499601Y-186506743D01*
X109571030Y-186435314D01*
X109642458Y-186292457D01*
X109642458Y-185935314D01*
X109571030Y-185792457D01*
X109499601Y-185721029D01*
X109356744Y-185649600D01*
X109071030Y-185649600D01*
X108928172Y-185721029D01*
X108856744Y-185792457D01*
X108785315Y-185935314D01*
D10*
D11*
X79999600Y-181499600D02*
X187999600Y-181499600D01*
D10*
D12*
X167213886Y-183778171D02*
X166713886Y-183063886D01*
X166356743Y-183778171D02*
X166356743Y-182278171D01*
X166928171Y-182278171D01*
X167071029Y-182349600D01*
X167142457Y-182421029D01*
X167213886Y-182563886D01*
X167213886Y-182778171D01*
X167142457Y-182921029D01*
X167071029Y-182992457D01*
X166928171Y-183063886D01*
X166356743Y-183063886D01*
X168428171Y-183706743D02*
X168285314Y-183778171D01*
X167999600Y-183778171D01*
X167856743Y-183706743D01*
X167785314Y-183563886D01*
X167785314Y-182992457D01*
X167856743Y-182849600D01*
X167999600Y-182778171D01*
X168285314Y-182778171D01*
X168428171Y-182849600D01*
X168499600Y-182992457D01*
X168499600Y-183135314D01*
X167785314Y-183278171D01*
X168999600Y-182778171D02*
X169356743Y-183778171D01*
X169713885Y-182778171D01*
X170285314Y-183635314D02*
X170356742Y-183706743D01*
X170285314Y-183778171D01*
X170213885Y-183706743D01*
X170285314Y-183635314D01*
X170285314Y-183778171D01*
X170285314Y-182849600D02*
X170356742Y-182921029D01*
X170285314Y-182992457D01*
X170213885Y-182921029D01*
X170285314Y-182849600D01*
X170285314Y-182992457D01*
X172928171Y-183778171D02*
X172071028Y-183778171D01*
X172499600Y-183778171D02*
X172499600Y-182278171D01*
X172356743Y-182492457D01*
X172213885Y-182635314D01*
X172071028Y-182706743D01*
X173571028Y-183635314D02*
X173642456Y-183706743D01*
X173571028Y-183778171D01*
X173499599Y-183706743D01*
X173571028Y-183635314D01*
X173571028Y-183778171D01*
X174499600Y-182921029D02*
X174356742Y-182849600D01*
X174285314Y-182778171D01*
X174213885Y-182635314D01*
X174213885Y-182563886D01*
X174285314Y-182421029D01*
X174356742Y-182349600D01*
X174499600Y-182278171D01*
X174785314Y-182278171D01*
X174928171Y-182349600D01*
X174999600Y-182421029D01*
X175071028Y-182563886D01*
X175071028Y-182635314D01*
X174999600Y-182778171D01*
X174928171Y-182849600D01*
X174785314Y-182921029D01*
X174499600Y-182921029D01*
X174356742Y-182992457D01*
X174285314Y-183063886D01*
X174213885Y-183206743D01*
X174213885Y-183492457D01*
X174285314Y-183635314D01*
X174356742Y-183706743D01*
X174499600Y-183778171D01*
X174785314Y-183778171D01*
X174928171Y-183706743D01*
X174999600Y-183635314D01*
X175071028Y-183492457D01*
X175071028Y-183206743D01*
X174999600Y-183063886D01*
X174928171Y-182992457D01*
X174785314Y-182921029D01*
D10*
D11*
X81285314Y-183706743D02*
X81499600Y-183778171D01*
X81856743Y-183778171D01*
X81999600Y-183706743D01*
X82071029Y-183635314D01*
X82142457Y-183492457D01*
X82142457Y-183349600D01*
X82071029Y-183206743D01*
X81999600Y-183135314D01*
X81856743Y-183063886D01*
X81571029Y-182992457D01*
X81428171Y-182921029D01*
X81356743Y-182849600D01*
X81285314Y-182706743D01*
X81285314Y-182563886D01*
X81356743Y-182421029D01*
X81428171Y-182349600D01*
X81571029Y-182278171D01*
X81928171Y-182278171D01*
X82142457Y-182349600D01*
X82785314Y-183778171D02*
X82785314Y-182778171D01*
X82785314Y-182278171D02*
X82713885Y-182349600D01*
X82785314Y-182421029D01*
X82856742Y-182349600D01*
X82785314Y-182278171D01*
X82785314Y-182421029D01*
X83356743Y-182778171D02*
X84142457Y-182778171D01*
X83356743Y-183778171D01*
X84142457Y-183778171D01*
X85285314Y-183706743D02*
X85142457Y-183778171D01*
X84856743Y-183778171D01*
X84713886Y-183706743D01*
X84642457Y-183563886D01*
X84642457Y-182992457D01*
X84713886Y-182849600D01*
X84856743Y-182778171D01*
X85142457Y-182778171D01*
X85285314Y-182849600D01*
X85356743Y-182992457D01*
X85356743Y-183135314D01*
X84642457Y-183278171D01*
X85999600Y-183635314D02*
X86071028Y-183706743D01*
X85999600Y-183778171D01*
X85928171Y-183706743D01*
X85999600Y-183635314D01*
X85999600Y-183778171D01*
X85999600Y-182849600D02*
X86071028Y-182921029D01*
X85999600Y-182992457D01*
X85928171Y-182921029D01*
X85999600Y-182849600D01*
X85999600Y-182992457D01*
X87856743Y-182278171D02*
X87856743Y-183492457D01*
X87928171Y-183635314D01*
X87999600Y-183706743D01*
X88142457Y-183778171D01*
X88428171Y-183778171D01*
X88571029Y-183706743D01*
X88642457Y-183635314D01*
X88713886Y-183492457D01*
X88713886Y-182278171D01*
X89356743Y-183706743D02*
X89499600Y-183778171D01*
X89785315Y-183778171D01*
X89928172Y-183706743D01*
X89999600Y-183563886D01*
X89999600Y-183492457D01*
X89928172Y-183349600D01*
X89785315Y-183278171D01*
X89571029Y-183278171D01*
X89428172Y-183206743D01*
X89356743Y-183063886D01*
X89356743Y-182992457D01*
X89428172Y-182849600D01*
X89571029Y-182778171D01*
X89785315Y-182778171D01*
X89928172Y-182849600D01*
X91213886Y-183706743D02*
X91071029Y-183778171D01*
X90785315Y-183778171D01*
X90642458Y-183706743D01*
X90571029Y-183563886D01*
X90571029Y-182992457D01*
X90642458Y-182849600D01*
X90785315Y-182778171D01*
X91071029Y-182778171D01*
X91213886Y-182849600D01*
X91285315Y-182992457D01*
X91285315Y-183135314D01*
X90571029Y-183278171D01*
X91928172Y-183778171D02*
X91928172Y-182778171D01*
X91928172Y-183063886D02*
X91999600Y-182921029D01*
X92071029Y-182849600D01*
X92213886Y-182778171D01*
X92356743Y-182778171D01*
D10*
D11*
X166356743Y-186578171D02*
X166356743Y-185078171D01*
X167713886Y-186578171D02*
X167713886Y-185078171D01*
X167713886Y-186506743D02*
X167571029Y-186578171D01*
X167285315Y-186578171D01*
X167142457Y-186506743D01*
X167071029Y-186435314D01*
X166999600Y-186292457D01*
X166999600Y-185863886D01*
X167071029Y-185721029D01*
X167142457Y-185649600D01*
X167285315Y-185578171D01*
X167571029Y-185578171D01*
X167713886Y-185649600D01*
X168428172Y-186435314D02*
X168499600Y-186506743D01*
X168428172Y-186578171D01*
X168356743Y-186506743D01*
X168428172Y-186435314D01*
X168428172Y-186578171D01*
X168428172Y-185649600D02*
X168499600Y-185721029D01*
X168428172Y-185792457D01*
X168356743Y-185721029D01*
X168428172Y-185649600D01*
X168428172Y-185792457D01*
X171071029Y-186578171D02*
X170213886Y-186578171D01*
X170642458Y-186578171D02*
X170642458Y-185078171D01*
X170499601Y-185292457D01*
X170356743Y-185435314D01*
X170213886Y-185506743D01*
X172785314Y-185006743D02*
X171499600Y-186935314D01*
X174071029Y-186578171D02*
X173213886Y-186578171D01*
X173642458Y-186578171D02*
X173642458Y-185078171D01*
X173499601Y-185292457D01*
X173356743Y-185435314D01*
X173213886Y-185506743D01*
D10*
D11*
X79999600Y-177499600D02*
X187999600Y-177499600D01*
D10*
D13*
X81451981Y-178204362D02*
X82594838Y-178204362D01*
X81773410Y-180204362D02*
X82023410Y-178204362D01*
X83011505Y-180204362D02*
X83178171Y-178871029D01*
X83261505Y-178204362D02*
X83154362Y-178299600D01*
X83237695Y-178394838D01*
X83344839Y-178299600D01*
X83261505Y-178204362D01*
X83237695Y-178394838D01*
X83844838Y-178871029D02*
X84606743Y-178871029D01*
X84213886Y-178204362D02*
X83999600Y-179918648D01*
X84071030Y-180109124D01*
X84249601Y-180204362D01*
X84440077Y-180204362D01*
X85392458Y-180204362D02*
X85213887Y-180109124D01*
X85142457Y-179918648D01*
X85356743Y-178204362D01*
X86928172Y-180109124D02*
X86725791Y-180204362D01*
X86344839Y-180204362D01*
X86166267Y-180109124D01*
X86094838Y-179918648D01*
X86190076Y-179156743D01*
X86309124Y-178966267D01*
X86511505Y-178871029D01*
X86892457Y-178871029D01*
X87071029Y-178966267D01*
X87142457Y-179156743D01*
X87118648Y-179347219D01*
X86142457Y-179537695D01*
X87892457Y-180013886D02*
X87975792Y-180109124D01*
X87868648Y-180204362D01*
X87785315Y-180109124D01*
X87892457Y-180013886D01*
X87868648Y-180204362D01*
X88023410Y-178966267D02*
X88106744Y-179061505D01*
X87999600Y-179156743D01*
X87916267Y-179061505D01*
X88023410Y-178966267D01*
X87999600Y-179156743D01*
X91297220Y-180204362D02*
X90344839Y-180204362D01*
X90594839Y-178204362D01*
X91963887Y-180204362D02*
X92130553Y-178871029D01*
X92213887Y-178204362D02*
X92106744Y-178299600D01*
X92190077Y-178394838D01*
X92297221Y-178299600D01*
X92213887Y-178204362D01*
X92190077Y-178394838D01*
X92797220Y-178871029D02*
X93559125Y-178871029D01*
X93166268Y-178204362D02*
X92951982Y-179918648D01*
X93023412Y-180109124D01*
X93201983Y-180204362D01*
X93392459Y-180204362D01*
X93940077Y-178871029D02*
X94701982Y-178871029D01*
X94309125Y-178204362D02*
X94094839Y-179918648D01*
X94166269Y-180109124D01*
X94344840Y-180204362D01*
X94535316Y-180204362D01*
X95487697Y-180204362D02*
X95309126Y-180109124D01*
X95237696Y-179918648D01*
X95451982Y-178204362D01*
X97023411Y-180109124D02*
X96821030Y-180204362D01*
X96440078Y-180204362D01*
X96261506Y-180109124D01*
X96190077Y-179918648D01*
X96285315Y-179156743D01*
X96404363Y-178966267D01*
X96606744Y-178871029D01*
X96987696Y-178871029D01*
X97166268Y-178966267D01*
X97237696Y-179156743D01*
X97213887Y-179347219D01*
X96237696Y-179537695D01*
X99487697Y-180204362D02*
X99737697Y-178204362D01*
X100213888Y-178204362D01*
X100487697Y-178299600D01*
X100654364Y-178490076D01*
X100725793Y-178680552D01*
X100773412Y-179061505D01*
X100737698Y-179347219D01*
X100594841Y-179728171D01*
X100475792Y-179918648D01*
X100261507Y-180109124D01*
X99963888Y-180204362D01*
X99487697Y-180204362D01*
X101487697Y-180204362D02*
X101654363Y-178871029D01*
X101606744Y-179251981D02*
X101725793Y-179061505D01*
X101832936Y-178966267D01*
X102035316Y-178871029D01*
X102225792Y-178871029D01*
X102725792Y-180204362D02*
X102892458Y-178871029D01*
X102975792Y-178204362D02*
X102868649Y-178299600D01*
X102951982Y-178394838D01*
X103059126Y-178299600D01*
X102975792Y-178204362D01*
X102951982Y-178394838D01*
X103654363Y-178871029D02*
X103963888Y-180204362D01*
X104606744Y-178871029D01*
X105975793Y-180109124D02*
X105773412Y-180204362D01*
X105392460Y-180204362D01*
X105213888Y-180109124D01*
X105142459Y-179918648D01*
X105237697Y-179156743D01*
X105356745Y-178966267D01*
X105559126Y-178871029D01*
X105940078Y-178871029D01*
X106118650Y-178966267D01*
X106190078Y-179156743D01*
X106166269Y-179347219D01*
X105190078Y-179537695D01*
X106916269Y-180204362D02*
X107082935Y-178871029D01*
X107035316Y-179251981D02*
X107154365Y-179061505D01*
X107261508Y-178966267D01*
X107463888Y-178871029D01*
X107654364Y-178871029D01*
D10*
D11*
X81856743Y-175592457D02*
X81356743Y-175592457D01*
X81356743Y-176378171D02*
X81356743Y-174878171D01*
X82071029Y-174878171D01*
X82642457Y-176378171D02*
X82642457Y-175378171D01*
X82642457Y-174878171D02*
X82571028Y-174949600D01*
X82642457Y-175021029D01*
X82713885Y-174949600D01*
X82642457Y-174878171D01*
X82642457Y-175021029D01*
X83571029Y-176378171D02*
X83428171Y-176306743D01*
X83356743Y-176163886D01*
X83356743Y-174878171D01*
X84713885Y-176306743D02*
X84571028Y-176378171D01*
X84285314Y-176378171D01*
X84142457Y-176306743D01*
X84071028Y-176163886D01*
X84071028Y-175592457D01*
X84142457Y-175449600D01*
X84285314Y-175378171D01*
X84571028Y-175378171D01*
X84713885Y-175449600D01*
X84785314Y-175592457D01*
X84785314Y-175735314D01*
X84071028Y-175878171D01*
X85428171Y-176235314D02*
X85499599Y-176306743D01*
X85428171Y-176378171D01*
X85356742Y-176306743D01*
X85428171Y-176235314D01*
X85428171Y-176378171D01*
X85428171Y-175449600D02*
X85499599Y-175521029D01*
X85428171Y-175592457D01*
X85356742Y-175521029D01*
X85428171Y-175449600D01*
X85428171Y-175592457D01*
X87285314Y-176378171D02*
X87285314Y-174878171D01*
X87285314Y-175592457D02*
X88142457Y-175592457D01*
X88142457Y-176378171D02*
X88142457Y-174878171D01*
X88856743Y-176378171D02*
X88856743Y-175378171D01*
X88856743Y-174878171D02*
X88785314Y-174949600D01*
X88856743Y-175021029D01*
X88928171Y-174949600D01*
X88856743Y-174878171D01*
X88856743Y-175021029D01*
X90213886Y-175378171D02*
X90213886Y-176592457D01*
X90142457Y-176735314D01*
X90071029Y-176806743D01*
X89928172Y-176878171D01*
X89713886Y-176878171D01*
X89571029Y-176806743D01*
X90213886Y-176306743D02*
X90071029Y-176378171D01*
X89785315Y-176378171D01*
X89642457Y-176306743D01*
X89571029Y-176235314D01*
X89499600Y-176092457D01*
X89499600Y-175663886D01*
X89571029Y-175521029D01*
X89642457Y-175449600D01*
X89785315Y-175378171D01*
X90071029Y-175378171D01*
X90213886Y-175449600D01*
X90928172Y-176378171D02*
X90928172Y-174878171D01*
X91571029Y-176378171D02*
X91571029Y-175592457D01*
X91499600Y-175449600D01*
X91356743Y-175378171D01*
X91142458Y-175378171D01*
X90999600Y-175449600D01*
X90928172Y-175521029D01*
X93428172Y-176378171D02*
X93428172Y-174878171D01*
X93999600Y-174878171D01*
X94142458Y-174949600D01*
X94213886Y-175021029D01*
X94285315Y-175163886D01*
X94285315Y-175378171D01*
X94213886Y-175521029D01*
X94142458Y-175592457D01*
X93999600Y-175663886D01*
X93428172Y-175663886D01*
X95142458Y-176378171D02*
X94999600Y-176306743D01*
X94928172Y-176235314D01*
X94856743Y-176092457D01*
X94856743Y-175663886D01*
X94928172Y-175521029D01*
X94999600Y-175449600D01*
X95142458Y-175378171D01*
X95356743Y-175378171D01*
X95499600Y-175449600D01*
X95571029Y-175521029D01*
X95642458Y-175663886D01*
X95642458Y-176092457D01*
X95571029Y-176235314D01*
X95499600Y-176306743D01*
X95356743Y-176378171D01*
X95142458Y-176378171D01*
X96142458Y-175378171D02*
X96428172Y-176378171D01*
X96713886Y-175663886D01*
X96999601Y-176378171D01*
X97285315Y-175378171D01*
X98428172Y-176306743D02*
X98285315Y-176378171D01*
X97999601Y-176378171D01*
X97856744Y-176306743D01*
X97785315Y-176163886D01*
X97785315Y-175592457D01*
X97856744Y-175449600D01*
X97999601Y-175378171D01*
X98285315Y-175378171D01*
X98428172Y-175449600D01*
X98499601Y-175592457D01*
X98499601Y-175735314D01*
X97785315Y-175878171D01*
X99142458Y-176378171D02*
X99142458Y-175378171D01*
X99142458Y-175663886D02*
X99213886Y-175521029D01*
X99285315Y-175449600D01*
X99428172Y-175378171D01*
X99571029Y-175378171D01*
X101142457Y-176306743D02*
X101356743Y-176378171D01*
X101713886Y-176378171D01*
X101856743Y-176306743D01*
X101928172Y-176235314D01*
X101999600Y-176092457D01*
X101999600Y-175949600D01*
X101928172Y-175806743D01*
X101856743Y-175735314D01*
X101713886Y-175663886D01*
X101428172Y-175592457D01*
X101285314Y-175521029D01*
X101213886Y-175449600D01*
X101142457Y-175306743D01*
X101142457Y-175163886D01*
X101213886Y-175021029D01*
X101285314Y-174949600D01*
X101428172Y-174878171D01*
X101785314Y-174878171D01*
X101999600Y-174949600D01*
X102499600Y-174878171D02*
X102856743Y-176378171D01*
X103142457Y-175306743D01*
X103428171Y-176378171D01*
X103785314Y-174878171D01*
X104356743Y-176235314D02*
X104428171Y-176306743D01*
X104356743Y-176378171D01*
X104285314Y-176306743D01*
X104356743Y-176235314D01*
X104356743Y-176378171D01*
X105071029Y-176378171D02*
X105071029Y-174878171D01*
X105213886Y-175806743D02*
X105642457Y-176378171D01*
X105642457Y-175378171D02*
X105071029Y-175949600D01*
X106285315Y-176378171D02*
X106285315Y-175378171D01*
X106285315Y-174878171D02*
X106213886Y-174949600D01*
X106285315Y-175021029D01*
X106356743Y-174949600D01*
X106285315Y-174878171D01*
X106285315Y-175021029D01*
X107642458Y-176306743D02*
X107499601Y-176378171D01*
X107213887Y-176378171D01*
X107071029Y-176306743D01*
X106999601Y-176235314D01*
X106928172Y-176092457D01*
X106928172Y-175663886D01*
X106999601Y-175521029D01*
X107071029Y-175449600D01*
X107213887Y-175378171D01*
X107499601Y-175378171D01*
X107642458Y-175449600D01*
X108928172Y-176378171D02*
X108928172Y-175592457D01*
X108856743Y-175449600D01*
X108713886Y-175378171D01*
X108428172Y-175378171D01*
X108285315Y-175449600D01*
X108928172Y-176306743D02*
X108785315Y-176378171D01*
X108428172Y-176378171D01*
X108285315Y-176306743D01*
X108213886Y-176163886D01*
X108213886Y-176021029D01*
X108285315Y-175878171D01*
X108428172Y-175806743D01*
X108785315Y-175806743D01*
X108928172Y-175735314D01*
X110285315Y-176378171D02*
X110285315Y-174878171D01*
X110285315Y-176306743D02*
X110142458Y-176378171D01*
X109856744Y-176378171D01*
X109713886Y-176306743D01*
X109642458Y-176235314D01*
X109571029Y-176092457D01*
X109571029Y-175663886D01*
X109642458Y-175521029D01*
X109713886Y-175449600D01*
X109856744Y-175378171D01*
X110142458Y-175378171D01*
X110285315Y-175449600D01*
X110642458Y-176521029D02*
X111785315Y-176521029D01*
X112142458Y-175378171D02*
X112142458Y-176878171D01*
X112142458Y-175449600D02*
X112285315Y-175378171D01*
X112571029Y-175378171D01*
X112713886Y-175449600D01*
X112785315Y-175521029D01*
X112856744Y-175663886D01*
X112856744Y-176092457D01*
X112785315Y-176235314D01*
X112713886Y-176306743D01*
X112571029Y-176378171D01*
X112285315Y-176378171D01*
X112142458Y-176306743D01*
X114142458Y-176306743D02*
X113999601Y-176378171D01*
X113713887Y-176378171D01*
X113571029Y-176306743D01*
X113499601Y-176235314D01*
X113428172Y-176092457D01*
X113428172Y-175663886D01*
X113499601Y-175521029D01*
X113571029Y-175449600D01*
X113713887Y-175378171D01*
X113999601Y-175378171D01*
X114142458Y-175449600D01*
X114785315Y-176378171D02*
X114785315Y-174878171D01*
X114785315Y-175449600D02*
X114928172Y-175378171D01*
X115213886Y-175378171D01*
X115356743Y-175449600D01*
X115428172Y-175521029D01*
X115499601Y-175663886D01*
X115499601Y-176092457D01*
X115428172Y-176235314D01*
X115356743Y-176306743D01*
X115213886Y-176378171D01*
X114928172Y-176378171D01*
X114785315Y-176306743D01*
D10*
D11*
X79999600Y-171499600D02*
X187999600Y-171499600D01*
D10*
D11*
X81285314Y-173606743D02*
X81499600Y-173678171D01*
X81856743Y-173678171D01*
X81999600Y-173606743D01*
X82071029Y-173535314D01*
X82142457Y-173392457D01*
X82142457Y-173249600D01*
X82071029Y-173106743D01*
X81999600Y-173035314D01*
X81856743Y-172963886D01*
X81571029Y-172892457D01*
X81428171Y-172821029D01*
X81356743Y-172749600D01*
X81285314Y-172606743D01*
X81285314Y-172463886D01*
X81356743Y-172321029D01*
X81428171Y-172249600D01*
X81571029Y-172178171D01*
X81928171Y-172178171D01*
X82142457Y-172249600D01*
X82785314Y-173678171D02*
X82785314Y-172178171D01*
X83428171Y-173678171D02*
X83428171Y-172892457D01*
X83356742Y-172749600D01*
X83213885Y-172678171D01*
X82999600Y-172678171D01*
X82856742Y-172749600D01*
X82785314Y-172821029D01*
X84713885Y-173606743D02*
X84571028Y-173678171D01*
X84285314Y-173678171D01*
X84142457Y-173606743D01*
X84071028Y-173463886D01*
X84071028Y-172892457D01*
X84142457Y-172749600D01*
X84285314Y-172678171D01*
X84571028Y-172678171D01*
X84713885Y-172749600D01*
X84785314Y-172892457D01*
X84785314Y-173035314D01*
X84071028Y-173178171D01*
X85999599Y-173606743D02*
X85856742Y-173678171D01*
X85571028Y-173678171D01*
X85428171Y-173606743D01*
X85356742Y-173463886D01*
X85356742Y-172892457D01*
X85428171Y-172749600D01*
X85571028Y-172678171D01*
X85856742Y-172678171D01*
X85999599Y-172749600D01*
X86071028Y-172892457D01*
X86071028Y-173035314D01*
X85356742Y-173178171D01*
X86499599Y-172678171D02*
X87071028Y-172678171D01*
X86713885Y-172178171D02*
X86713885Y-173463886D01*
X86785313Y-173606743D01*
X86928171Y-173678171D01*
X87071028Y-173678171D01*
X87571028Y-173535314D02*
X87642456Y-173606743D01*
X87571028Y-173678171D01*
X87499599Y-173606743D01*
X87571028Y-173535314D01*
X87571028Y-173678171D01*
X87571028Y-172749600D02*
X87642456Y-172821029D01*
X87571028Y-172892457D01*
X87499599Y-172821029D01*
X87571028Y-172749600D01*
X87571028Y-172892457D01*
D10*
D11*
X99999600Y-181499600D02*
X99999600Y-184499600D01*
D10*
D11*
X163999600Y-181499600D02*
X163999600Y-187999600D01*
X115000000Y-91000000D02*
X115000000Y-139000000D01*
X67000000Y-91000000D02*
X115000000Y-91000000D01*
X67000000Y-139000000D02*
X67000000Y-91000000D01*
X67000000Y-139000000D02*
X115000000Y-139000000D01*
X74535715Y-92202381D02*
X74773810Y-93202381D01*
X74964287Y-92488095D01*
X75154763Y-93202381D01*
X75392858Y-92202381D01*
X75678572Y-92202381D02*
X75916667Y-93202381D01*
X76107144Y-92488095D01*
X76297620Y-93202381D01*
X76535715Y-92202381D01*
X76821429Y-92202381D02*
X77059524Y-93202381D01*
X77250001Y-92488095D01*
X77440477Y-93202381D01*
X77678572Y-92202381D01*
X78059524Y-93107143D02*
X78107143Y-93154762D01*
X78059524Y-93202381D01*
X78011905Y-93154762D01*
X78059524Y-93107143D01*
X78059524Y-93202381D01*
X78535714Y-93202381D02*
X78535714Y-92202381D01*
X78773809Y-92202381D01*
X78916667Y-92250000D01*
X79011905Y-92345238D01*
X79059524Y-92440476D01*
X79107143Y-92630952D01*
X79107143Y-92773810D01*
X79059524Y-92964286D01*
X79011905Y-93059524D01*
X78916667Y-93154762D01*
X78773809Y-93202381D01*
X78535714Y-93202381D01*
X79535714Y-93202381D02*
X79535714Y-92535714D01*
X79535714Y-92202381D02*
X79488095Y-92250000D01*
X79535714Y-92297619D01*
X79583333Y-92250000D01*
X79535714Y-92202381D01*
X79535714Y-92297619D01*
X80440476Y-92535714D02*
X80440476Y-93345238D01*
X80392857Y-93440476D01*
X80345238Y-93488095D01*
X80249999Y-93535714D01*
X80107142Y-93535714D01*
X80011904Y-93488095D01*
X80440476Y-93154762D02*
X80345238Y-93202381D01*
X80154761Y-93202381D01*
X80059523Y-93154762D01*
X80011904Y-93107143D01*
X79964285Y-93011905D01*
X79964285Y-92726190D01*
X80011904Y-92630952D01*
X80059523Y-92583333D01*
X80154761Y-92535714D01*
X80345238Y-92535714D01*
X80440476Y-92583333D01*
X80916666Y-93202381D02*
X80916666Y-92535714D01*
X80916666Y-92202381D02*
X80869047Y-92250000D01*
X80916666Y-92297619D01*
X80964285Y-92250000D01*
X80916666Y-92202381D01*
X80916666Y-92297619D01*
X81249999Y-92535714D02*
X81630951Y-92535714D01*
X81392856Y-92202381D02*
X81392856Y-93059524D01*
X81440475Y-93154762D01*
X81535713Y-93202381D01*
X81630951Y-93202381D01*
X82392857Y-93202381D02*
X82392857Y-92678571D01*
X82345238Y-92583333D01*
X82250000Y-92535714D01*
X82059523Y-92535714D01*
X81964285Y-92583333D01*
X82392857Y-93154762D02*
X82297619Y-93202381D01*
X82059523Y-93202381D01*
X81964285Y-93154762D01*
X81916666Y-93059524D01*
X81916666Y-92964286D01*
X81964285Y-92869048D01*
X82059523Y-92821429D01*
X82297619Y-92821429D01*
X82392857Y-92773810D01*
X83011904Y-93202381D02*
X82916666Y-93154762D01*
X82869047Y-93059524D01*
X82869047Y-92202381D01*
X83392857Y-92821429D02*
X84154762Y-92821429D01*
X84583333Y-93154762D02*
X84726190Y-93202381D01*
X84964286Y-93202381D01*
X85059524Y-93154762D01*
X85107143Y-93107143D01*
X85154762Y-93011905D01*
X85154762Y-92916667D01*
X85107143Y-92821429D01*
X85059524Y-92773810D01*
X84964286Y-92726190D01*
X84773809Y-92678571D01*
X84678571Y-92630952D01*
X84630952Y-92583333D01*
X84583333Y-92488095D01*
X84583333Y-92392857D01*
X84630952Y-92297619D01*
X84678571Y-92250000D01*
X84773809Y-92202381D01*
X85011905Y-92202381D01*
X85154762Y-92250000D01*
X86011905Y-92535714D02*
X86011905Y-93535714D01*
X86011905Y-93154762D02*
X85916667Y-93202381D01*
X85726190Y-93202381D01*
X85630952Y-93154762D01*
X85583333Y-93107143D01*
X85535714Y-93011905D01*
X85535714Y-92726190D01*
X85583333Y-92630952D01*
X85630952Y-92583333D01*
X85726190Y-92535714D01*
X85916667Y-92535714D01*
X86011905Y-92583333D01*
X86488095Y-93202381D02*
X86488095Y-92535714D01*
X86488095Y-92726190D02*
X86535714Y-92630952D01*
X86583333Y-92583333D01*
X86678571Y-92535714D01*
X86773810Y-92535714D01*
X86964286Y-92535714D02*
X87345238Y-92535714D01*
X87107143Y-92202381D02*
X87107143Y-93059524D01*
X87154762Y-93154762D01*
X87250000Y-93202381D01*
X87345238Y-93202381D01*
X87678572Y-93107143D02*
X87726191Y-93154762D01*
X87678572Y-93202381D01*
X87630953Y-93154762D01*
X87678572Y-93107143D01*
X87678572Y-93202381D01*
X88726191Y-93107143D02*
X88678572Y-93154762D01*
X88535715Y-93202381D01*
X88440477Y-93202381D01*
X88297619Y-93154762D01*
X88202381Y-93059524D01*
X88154762Y-92964286D01*
X88107143Y-92773810D01*
X88107143Y-92630952D01*
X88154762Y-92440476D01*
X88202381Y-92345238D01*
X88297619Y-92250000D01*
X88440477Y-92202381D01*
X88535715Y-92202381D01*
X88678572Y-92250000D01*
X88726191Y-92297619D01*
X89345238Y-92202381D02*
X89535715Y-92202381D01*
X89630953Y-92250000D01*
X89726191Y-92345238D01*
X89773810Y-92535714D01*
X89773810Y-92869048D01*
X89726191Y-93059524D01*
X89630953Y-93154762D01*
X89535715Y-93202381D01*
X89345238Y-93202381D01*
X89250000Y-93154762D01*
X89154762Y-93059524D01*
X89107143Y-92869048D01*
X89107143Y-92535714D01*
X89154762Y-92345238D01*
X89250000Y-92250000D01*
X89345238Y-92202381D01*
X90202381Y-93202381D02*
X90202381Y-92202381D01*
X90535715Y-92916667D01*
X90869048Y-92202381D01*
X90869048Y-93202381D01*
X76202381Y-110333333D02*
X76916667Y-110333333D01*
X77059524Y-110380953D01*
X77154762Y-110476191D01*
X77202381Y-110619048D01*
X77202381Y-110714286D01*
X77202381Y-109857143D02*
X76202381Y-109857143D01*
X76202381Y-109476190D01*
X76250000Y-109380952D01*
X76297619Y-109333333D01*
X76392857Y-109285714D01*
X76535714Y-109285714D01*
X76630952Y-109333333D01*
X76678571Y-109380952D01*
X76726190Y-109476190D01*
X76726190Y-109857143D01*
X77202381Y-108333333D02*
X77202381Y-108904762D01*
X77202381Y-108619048D02*
X76202381Y-108619048D01*
X76345238Y-108714286D01*
X76440476Y-108809524D01*
X76488095Y-108904762D01*
X74178571Y-110559523D02*
X74178571Y-110892857D01*
X74702381Y-110892857D02*
X73702381Y-110892857D01*
X73702381Y-110416666D01*
X74416667Y-110083333D02*
X74416667Y-109607142D01*
X74702381Y-110178571D02*
X73702381Y-109845238D01*
X74702381Y-109511904D01*
X74702381Y-109178571D02*
X73702381Y-109178571D01*
X74702381Y-108607142D01*
X73702381Y-108607142D01*
D12*
X68678572Y-101607143D02*
X69821429Y-101607143D01*
X68678572Y-106107143D02*
X69821429Y-106107143D01*
X69250000Y-106678571D02*
X69250000Y-105535714D01*
D11*
X94510417Y-93291667D02*
X93677084Y-93291667D01*
X93895834Y-91541667D01*
X95093751Y-93291667D02*
X95239584Y-92125000D01*
X95312501Y-91541667D02*
X95218750Y-91625000D01*
X95291667Y-91708333D01*
X95385417Y-91625000D01*
X95312501Y-91541667D01*
X95291667Y-91708333D01*
X95822917Y-92125000D02*
X96489583Y-92125000D01*
X96145834Y-91541667D02*
X95958334Y-93041667D01*
X96020833Y-93208333D01*
X96177084Y-93291667D01*
X96343750Y-93291667D01*
X96822917Y-92125000D02*
X97489583Y-92125000D01*
X97145834Y-91541667D02*
X96958334Y-93041667D01*
X97020833Y-93208333D01*
X97177084Y-93291667D01*
X97343750Y-93291667D01*
X98177084Y-93291667D02*
X98020833Y-93208333D01*
X97958334Y-93041667D01*
X98145834Y-91541667D01*
X99520833Y-93208333D02*
X99343751Y-93291667D01*
X99010417Y-93291667D01*
X98854167Y-93208333D01*
X98791667Y-93041667D01*
X98875000Y-92375000D01*
X98979167Y-92208333D01*
X99156250Y-92125000D01*
X99489584Y-92125000D01*
X99645833Y-92208333D01*
X99708334Y-92375000D01*
X99687501Y-92541667D01*
X98833333Y-92708333D01*
X101677084Y-93291667D02*
X101895834Y-91541667D01*
X102312500Y-91541667D01*
X102552083Y-91625000D01*
X102697917Y-91791667D01*
X102760416Y-91958333D01*
X102802084Y-92291667D01*
X102770834Y-92541667D01*
X102645833Y-92875000D01*
X102541667Y-93041667D01*
X102354166Y-93208333D01*
X102093750Y-93291667D01*
X101677084Y-93291667D01*
X103427084Y-93291667D02*
X103572917Y-92125000D01*
X103531250Y-92458333D02*
X103635417Y-92291667D01*
X103729166Y-92208333D01*
X103906250Y-92125000D01*
X104072917Y-92125000D01*
X104510417Y-93291667D02*
X104656250Y-92125000D01*
X104729167Y-91541667D02*
X104635416Y-91625000D01*
X104708333Y-91708333D01*
X104802083Y-91625000D01*
X104729167Y-91541667D01*
X104708333Y-91708333D01*
X105322916Y-92125000D02*
X105593750Y-93291667D01*
X106156249Y-92125000D01*
X107354165Y-93208333D02*
X107177083Y-93291667D01*
X106843749Y-93291667D01*
X106687499Y-93208333D01*
X106624999Y-93041667D01*
X106708332Y-92375000D01*
X106812499Y-92208333D01*
X106989582Y-92125000D01*
X107322916Y-92125000D01*
X107479165Y-92208333D01*
X107541666Y-92375000D01*
X107520833Y-92541667D01*
X106666665Y-92708333D01*
X108177083Y-93291667D02*
X108322916Y-92125000D01*
X108281249Y-92458333D02*
X108385416Y-92291667D01*
X108479165Y-92208333D01*
X108656249Y-92125000D01*
X108822916Y-92125000D01*
D10*
X93845238Y-93952381D02*
X94178571Y-94952381D01*
X94511905Y-93952381D01*
X95226191Y-94904762D02*
X95130953Y-94952381D01*
X94940476Y-94952381D01*
X94845238Y-94904762D01*
X94797619Y-94809524D01*
X94797619Y-94428571D01*
X94845238Y-94333333D01*
X94940476Y-94285714D01*
X95130953Y-94285714D01*
X95226191Y-94333333D01*
X95273810Y-94428571D01*
X95273810Y-94523810D01*
X94797619Y-94619048D01*
X95702381Y-94952381D02*
X95702381Y-94285714D01*
X95702381Y-94476190D02*
X95750000Y-94380952D01*
X95797619Y-94333333D01*
X95892857Y-94285714D01*
X95988096Y-94285714D01*
X97607144Y-94952381D02*
X97035715Y-94952381D01*
X97321429Y-94952381D02*
X97321429Y-93952381D01*
X97226191Y-94095238D01*
X97130953Y-94190476D01*
X97035715Y-94238095D01*
X98035715Y-94857143D02*
X98083334Y-94904762D01*
X98035715Y-94952381D01*
X97988096Y-94904762D01*
X98035715Y-94857143D01*
X98035715Y-94952381D01*
X98988096Y-93952381D02*
X98511905Y-93952381D01*
X98464286Y-94428571D01*
X98511905Y-94380952D01*
X98607143Y-94333333D01*
X98845239Y-94333333D01*
X98940477Y-94380952D01*
X98988096Y-94428571D01*
X99035715Y-94523810D01*
X99035715Y-94761905D01*
X98988096Y-94857143D01*
X98940477Y-94904762D01*
X98845239Y-94952381D01*
X98607143Y-94952381D01*
X98511905Y-94904762D01*
X98464286Y-94857143D01*
X99464286Y-94952381D02*
X99464286Y-93952381D01*
X99464286Y-94333333D02*
X99559524Y-94285714D01*
X99750001Y-94285714D01*
X99845239Y-94333333D01*
X99892858Y-94380952D01*
X99940477Y-94476190D01*
X99940477Y-94761905D01*
X99892858Y-94857143D01*
X99845239Y-94904762D01*
X99750001Y-94952381D01*
X99559524Y-94952381D01*
X99464286Y-94904762D01*
D11*
X88500000Y-116000000D02*
X88500000Y-114750000D01*
X88500000Y-116000000D02*
X90000000Y-116000000D01*
X88500000Y-106000000D02*
X90000000Y-106000000D01*
X88500000Y-106000000D02*
X88500000Y-107250000D01*
D14*
G36*
X76015892Y-111368270D02*
X76431711Y-111406540D01*
X76827701Y-111455770D01*
X77108754Y-111506918D01*
X77328344Y-111579539D01*
X77539945Y-111693188D01*
X77797033Y-111867419D01*
X77907491Y-111946214D01*
X78262064Y-112193396D01*
X78637963Y-112444817D01*
X78962547Y-112652053D01*
X79006757Y-112679019D01*
X79452842Y-113028177D01*
X79854798Y-113489795D01*
X80168595Y-114006999D01*
X80309133Y-114361354D01*
X80404082Y-114798805D01*
X80465697Y-115336308D01*
X80490823Y-115907295D01*
X80476303Y-116445195D01*
X80426895Y-116845149D01*
X80323741Y-117217945D01*
X80165851Y-117626918D01*
X80032547Y-117898956D01*
X79883863Y-118175380D01*
X79813746Y-118345784D01*
X79812649Y-118448745D01*
X79871022Y-118522844D01*
X79876899Y-118527789D01*
X80094891Y-118807469D01*
X80225501Y-119186784D01*
X80252861Y-119472296D01*
X80202219Y-119999778D01*
X80045824Y-120398093D01*
X79774655Y-120676431D01*
X79379691Y-120843977D01*
X78851913Y-120909919D01*
X78841041Y-120910234D01*
X78497959Y-120932842D01*
X78231249Y-120994444D01*
X77959812Y-121119455D01*
X77759768Y-121235766D01*
X76796911Y-121745548D01*
X75686837Y-122200923D01*
X74444568Y-122595971D01*
X74018112Y-122709561D01*
X73699084Y-122786968D01*
X73479634Y-122822607D01*
X73296042Y-122819511D01*
X73084587Y-122780714D01*
X72989158Y-122758540D01*
X72770619Y-122666992D01*
X72499970Y-122500264D01*
X72311093Y-122356065D01*
X72060917Y-122163287D01*
X71828379Y-122014185D01*
X71701268Y-121954869D01*
X71423559Y-121829991D01*
X71080468Y-121620504D01*
X70723392Y-121363950D01*
X70403725Y-121097875D01*
X70172865Y-120859822D01*
X70137369Y-120812457D01*
X69984276Y-120544499D01*
X69909143Y-120262543D01*
X69903032Y-120178625D01*
X70164212Y-120178625D01*
X70305630Y-120611324D01*
X70344530Y-120678464D01*
X70516220Y-120875688D01*
X70791924Y-121109974D01*
X71122359Y-121346452D01*
X71458242Y-121550255D01*
X71750290Y-121686515D01*
X71786667Y-121698783D01*
X71967306Y-121791254D01*
X72206581Y-121958151D01*
X72371162Y-122092992D01*
X72624895Y-122301231D01*
X72856039Y-122443564D01*
X73095175Y-122521840D01*
X73372881Y-122537908D01*
X73719738Y-122493618D01*
X74166326Y-122390817D01*
X74728612Y-122235548D01*
X75256764Y-122069202D01*
X75799688Y-121871830D01*
X76333672Y-121654868D01*
X76835004Y-121429753D01*
X77279972Y-121207924D01*
X77644864Y-121000817D01*
X77905967Y-120819870D01*
X78039570Y-120676520D01*
X78052000Y-120632540D01*
X78122175Y-120576473D01*
X78284833Y-120600094D01*
X78642378Y-120648601D01*
X79029738Y-120626585D01*
X79396025Y-120544805D01*
X79690351Y-120414018D01*
X79847628Y-120269749D01*
X79891645Y-120137154D01*
X79938812Y-119899705D01*
X79963336Y-119730272D01*
X79967252Y-119262509D01*
X79848883Y-118908073D01*
X79609270Y-118669813D01*
X79568279Y-118647007D01*
X79282249Y-118542112D01*
X79005360Y-118551181D01*
X78676432Y-118677387D01*
X78641294Y-118695054D01*
X78442216Y-118779627D01*
X78322068Y-118797892D01*
X78306000Y-118779721D01*
X78223458Y-118742629D01*
X77983863Y-118715287D01*
X77599266Y-118698572D01*
X77120667Y-118693334D01*
X75935333Y-118693334D01*
X75935333Y-119304266D01*
X75067500Y-119248381D01*
X74566223Y-119214500D01*
X74209453Y-119182634D01*
X73972644Y-119145068D01*
X73831250Y-119094087D01*
X73760726Y-119021978D01*
X73736524Y-118921026D01*
X73734000Y-118829288D01*
X73708254Y-118634508D01*
X73600828Y-118505599D01*
X73426041Y-118408508D01*
X73088921Y-118307466D01*
X72875708Y-118314887D01*
X72697652Y-118386647D01*
X72636647Y-118533341D01*
X72633333Y-118615394D01*
X72618065Y-118777488D01*
X72539059Y-118846308D01*
X72346517Y-118860229D01*
X72315833Y-118860053D01*
X71969868Y-118844027D01*
X71596496Y-118805826D01*
X71237714Y-118752402D01*
X70935522Y-118690708D01*
X70731919Y-118627696D01*
X70671322Y-118587816D01*
X70616049Y-118539697D01*
X70602630Y-118622020D01*
X70564556Y-118770166D01*
X70467490Y-119007320D01*
X70369094Y-119210004D01*
X70185412Y-119708792D01*
X70164212Y-120178625D01*
X69903032Y-120178625D01*
X69888274Y-119975983D01*
X69862289Y-119648186D01*
X69791269Y-119418408D01*
X69656126Y-119219715D01*
X69483545Y-118947195D01*
X69381787Y-118650268D01*
X69367938Y-118449975D01*
X69673980Y-118449975D01*
X69682290Y-118661488D01*
X69749135Y-118895685D01*
X69856283Y-119093822D01*
X69985500Y-119197153D01*
X70016002Y-119201334D01*
X70025931Y-119143199D01*
X69947426Y-118998999D01*
X69915421Y-118953838D01*
X69778932Y-118671954D01*
X69778339Y-118651569D01*
X70041135Y-118651569D01*
X70097298Y-118797818D01*
X70187058Y-118862667D01*
X70249125Y-118791894D01*
X70262667Y-118698330D01*
X70224307Y-118539563D01*
X70139190Y-118467580D01*
X70056575Y-118514979D01*
X70041135Y-118651569D01*
X69778339Y-118651569D01*
X69773656Y-118490733D01*
X69780803Y-118348137D01*
X69742436Y-118319892D01*
X69673980Y-118449975D01*
X69367938Y-118449975D01*
X69363317Y-118383146D01*
X69421177Y-118227667D01*
X69924000Y-118227667D01*
X69966333Y-118270000D01*
X70008667Y-118227667D01*
X69966333Y-118185334D01*
X69924000Y-118227667D01*
X69421177Y-118227667D01*
X69425386Y-118216357D01*
X69560135Y-118112804D01*
X70109191Y-118112804D01*
X70126227Y-118160208D01*
X70215349Y-118230360D01*
X70363748Y-118333938D01*
X70422061Y-118330674D01*
X70432000Y-118227667D01*
X70359909Y-118125475D01*
X70241500Y-118103360D01*
X70109191Y-118112804D01*
X69560135Y-118112804D01*
X69596042Y-118085210D01*
X69853936Y-117957492D01*
X70119900Y-117867978D01*
X70267075Y-117846667D01*
X70345987Y-117834674D01*
X70367988Y-117774902D01*
X70330010Y-117631658D01*
X70228984Y-117369251D01*
X70225215Y-117359834D01*
X70025660Y-116690419D01*
X69986115Y-116195667D01*
X70250090Y-116195667D01*
X70273618Y-116452634D01*
X70327790Y-116749554D01*
X70402955Y-117057174D01*
X70489464Y-117346245D01*
X70577666Y-117587515D01*
X70657911Y-117751733D01*
X70720549Y-117809647D01*
X70755929Y-117732007D01*
X70756195Y-117729733D01*
X70784056Y-117485800D01*
X71516379Y-117545220D01*
X71991302Y-117586691D01*
X72322529Y-117625825D01*
X72535427Y-117669855D01*
X72655364Y-117726013D01*
X72707706Y-117801533D01*
X72718000Y-117887843D01*
X72749930Y-118026032D01*
X72877359Y-118045879D01*
X72915325Y-118039464D01*
X73120299Y-118047213D01*
X73377604Y-118114117D01*
X73433665Y-118135872D01*
X73664321Y-118230315D01*
X73777838Y-118251307D01*
X73815521Y-118185140D01*
X73818674Y-118018106D01*
X73818667Y-118008099D01*
X73818667Y-117746197D01*
X74644167Y-117801363D01*
X75136548Y-117836151D01*
X75484764Y-117868986D01*
X75713714Y-117907403D01*
X75848300Y-117958935D01*
X75913422Y-118031120D01*
X75933981Y-118131490D01*
X75935333Y-118192061D01*
X75935333Y-118439334D01*
X78231709Y-118439334D01*
X78178264Y-118079500D01*
X78172649Y-117740053D01*
X78233350Y-117254171D01*
X78314998Y-116830667D01*
X78425587Y-116264005D01*
X78480527Y-115817492D01*
X78475616Y-115449950D01*
X78406649Y-115120197D01*
X78269421Y-114787054D01*
X78069465Y-114425663D01*
X77814475Y-114036423D01*
X77575372Y-113744581D01*
X77395833Y-113591799D01*
X77189534Y-113455395D01*
X77139955Y-113381088D01*
X77249214Y-113361897D01*
X77459333Y-113382462D01*
X77670584Y-113405793D01*
X77788867Y-113409145D01*
X77798000Y-113405125D01*
X77723781Y-113314129D01*
X77527937Y-113192150D01*
X77250686Y-113058007D01*
X76932245Y-112930522D01*
X76612833Y-112828515D01*
X76511422Y-112803042D01*
X75859845Y-112653202D01*
X74996200Y-112985101D01*
X74590227Y-113147747D01*
X74308187Y-113281356D01*
X74112668Y-113408301D01*
X73966261Y-113550953D01*
X73892393Y-113645202D01*
X73741945Y-113833904D01*
X73652903Y-113892914D01*
X73600401Y-113838250D01*
X73598849Y-113834290D01*
X73572304Y-113643756D01*
X73585659Y-113484921D01*
X73583462Y-113317728D01*
X73502221Y-113274667D01*
X73260415Y-113334478D01*
X72944333Y-113499276D01*
X72591775Y-113747111D01*
X72376002Y-113928740D01*
X72152859Y-114126488D01*
X72027236Y-114220854D01*
X71971122Y-114222103D01*
X71956503Y-114140499D01*
X71956000Y-114082642D01*
X72019935Y-113765979D01*
X72217157Y-113403155D01*
X72555786Y-112979828D01*
X72621224Y-112908123D01*
X72822351Y-112688578D01*
X72914446Y-112576174D01*
X72904324Y-112554550D01*
X72798802Y-112607345D01*
X72730307Y-112646266D01*
X72497055Y-112807621D01*
X72308036Y-112983482D01*
X72294789Y-112999500D01*
X72160068Y-113137894D01*
X72064888Y-113190000D01*
X71925635Y-113252888D01*
X71713111Y-113422739D01*
X71456022Y-113671332D01*
X71183074Y-113970448D01*
X70922974Y-114291866D01*
X70866353Y-114368225D01*
X70549754Y-114858128D01*
X70354883Y-115310011D01*
X70262780Y-115780092D01*
X70250090Y-116195667D01*
X69986115Y-116195667D01*
X69972002Y-116019102D01*
X70061554Y-115302759D01*
X70089330Y-115179667D01*
X70250685Y-114502334D01*
X70004953Y-114798667D01*
X69856706Y-114989739D01*
X69767940Y-115127831D01*
X69756944Y-115158500D01*
X69688384Y-115219210D01*
X69660821Y-115222000D01*
X69607134Y-115157275D01*
X69623435Y-114998328D01*
X69695773Y-114798004D01*
X69810197Y-114609146D01*
X69828461Y-114587000D01*
X70012798Y-114362766D01*
X70095100Y-114239785D01*
X70072648Y-114226379D01*
X69942722Y-114330865D01*
X69899147Y-114370776D01*
X69701399Y-114528597D01*
X69598847Y-114554775D01*
X69594641Y-114459797D01*
X69691934Y-114254151D01*
X69808686Y-114069648D01*
X70163041Y-113576564D01*
X70489702Y-113200054D01*
X70831338Y-112902674D01*
X71230619Y-112646976D01*
X71700679Y-112409274D01*
X72115226Y-112224155D01*
X72532529Y-112052461D01*
X72895680Y-111916897D01*
X73090679Y-111854685D01*
X73592999Y-111715027D01*
X73324833Y-111605604D01*
X73145281Y-111525579D01*
X73058210Y-111473492D01*
X73056667Y-111470060D01*
X73134754Y-111457991D01*
X73342708Y-111448631D01*
X73641065Y-111443508D01*
X73755167Y-111443005D01*
X74179390Y-111433394D01*
X74627164Y-111409054D01*
X75003360Y-111375195D01*
X75011655Y-111374195D01*
X75464071Y-111349761D01*
X76015892Y-111368270D01*
X76015892Y-111368270D01*
G37*
X76015892Y-111368270D02*
X76431711Y-111406540D01*
X76827701Y-111455770D01*
X77108754Y-111506918D01*
X77328344Y-111579539D01*
X77539945Y-111693188D01*
X77797033Y-111867419D01*
X77907491Y-111946214D01*
X78262064Y-112193396D01*
X78637963Y-112444817D01*
X78962547Y-112652053D01*
X79006757Y-112679019D01*
X79452842Y-113028177D01*
X79854798Y-113489795D01*
X80168595Y-114006999D01*
X80309133Y-114361354D01*
X80404082Y-114798805D01*
X80465697Y-115336308D01*
X80490823Y-115907295D01*
X80476303Y-116445195D01*
X80426895Y-116845149D01*
X80323741Y-117217945D01*
X80165851Y-117626918D01*
X80032547Y-117898956D01*
X79883863Y-118175380D01*
X79813746Y-118345784D01*
X79812649Y-118448745D01*
X79871022Y-118522844D01*
X79876899Y-118527789D01*
X80094891Y-118807469D01*
X80225501Y-119186784D01*
X80252861Y-119472296D01*
X80202219Y-119999778D01*
X80045824Y-120398093D01*
X79774655Y-120676431D01*
X79379691Y-120843977D01*
X78851913Y-120909919D01*
X78841041Y-120910234D01*
X78497959Y-120932842D01*
X78231249Y-120994444D01*
X77959812Y-121119455D01*
X77759768Y-121235766D01*
X76796911Y-121745548D01*
X75686837Y-122200923D01*
X74444568Y-122595971D01*
X74018112Y-122709561D01*
X73699084Y-122786968D01*
X73479634Y-122822607D01*
X73296042Y-122819511D01*
X73084587Y-122780714D01*
X72989158Y-122758540D01*
X72770619Y-122666992D01*
X72499970Y-122500264D01*
X72311093Y-122356065D01*
X72060917Y-122163287D01*
X71828379Y-122014185D01*
X71701268Y-121954869D01*
X71423559Y-121829991D01*
X71080468Y-121620504D01*
X70723392Y-121363950D01*
X70403725Y-121097875D01*
X70172865Y-120859822D01*
X70137369Y-120812457D01*
X69984276Y-120544499D01*
X69909143Y-120262543D01*
X69903032Y-120178625D01*
X70164212Y-120178625D01*
X70305630Y-120611324D01*
X70344530Y-120678464D01*
X70516220Y-120875688D01*
X70791924Y-121109974D01*
X71122359Y-121346452D01*
X71458242Y-121550255D01*
X71750290Y-121686515D01*
X71786667Y-121698783D01*
X71967306Y-121791254D01*
X72206581Y-121958151D01*
X72371162Y-122092992D01*
X72624895Y-122301231D01*
X72856039Y-122443564D01*
X73095175Y-122521840D01*
X73372881Y-122537908D01*
X73719738Y-122493618D01*
X74166326Y-122390817D01*
X74728612Y-122235548D01*
X75256764Y-122069202D01*
X75799688Y-121871830D01*
X76333672Y-121654868D01*
X76835004Y-121429753D01*
X77279972Y-121207924D01*
X77644864Y-121000817D01*
X77905967Y-120819870D01*
X78039570Y-120676520D01*
X78052000Y-120632540D01*
X78122175Y-120576473D01*
X78284833Y-120600094D01*
X78642378Y-120648601D01*
X79029738Y-120626585D01*
X79396025Y-120544805D01*
X79690351Y-120414018D01*
X79847628Y-120269749D01*
X79891645Y-120137154D01*
X79938812Y-119899705D01*
X79963336Y-119730272D01*
X79967252Y-119262509D01*
X79848883Y-118908073D01*
X79609270Y-118669813D01*
X79568279Y-118647007D01*
X79282249Y-118542112D01*
X79005360Y-118551181D01*
X78676432Y-118677387D01*
X78641294Y-118695054D01*
X78442216Y-118779627D01*
X78322068Y-118797892D01*
X78306000Y-118779721D01*
X78223458Y-118742629D01*
X77983863Y-118715287D01*
X77599266Y-118698572D01*
X77120667Y-118693334D01*
X75935333Y-118693334D01*
X75935333Y-119304266D01*
X75067500Y-119248381D01*
X74566223Y-119214500D01*
X74209453Y-119182634D01*
X73972644Y-119145068D01*
X73831250Y-119094087D01*
X73760726Y-119021978D01*
X73736524Y-118921026D01*
X73734000Y-118829288D01*
X73708254Y-118634508D01*
X73600828Y-118505599D01*
X73426041Y-118408508D01*
X73088921Y-118307466D01*
X72875708Y-118314887D01*
X72697652Y-118386647D01*
X72636647Y-118533341D01*
X72633333Y-118615394D01*
X72618065Y-118777488D01*
X72539059Y-118846308D01*
X72346517Y-118860229D01*
X72315833Y-118860053D01*
X71969868Y-118844027D01*
X71596496Y-118805826D01*
X71237714Y-118752402D01*
X70935522Y-118690708D01*
X70731919Y-118627696D01*
X70671322Y-118587816D01*
X70616049Y-118539697D01*
X70602630Y-118622020D01*
X70564556Y-118770166D01*
X70467490Y-119007320D01*
X70369094Y-119210004D01*
X70185412Y-119708792D01*
X70164212Y-120178625D01*
X69903032Y-120178625D01*
X69888274Y-119975983D01*
X69862289Y-119648186D01*
X69791269Y-119418408D01*
X69656126Y-119219715D01*
X69483545Y-118947195D01*
X69381787Y-118650268D01*
X69367938Y-118449975D01*
X69673980Y-118449975D01*
X69682290Y-118661488D01*
X69749135Y-118895685D01*
X69856283Y-119093822D01*
X69985500Y-119197153D01*
X70016002Y-119201334D01*
X70025931Y-119143199D01*
X69947426Y-118998999D01*
X69915421Y-118953838D01*
X69778932Y-118671954D01*
X69778339Y-118651569D01*
X70041135Y-118651569D01*
X70097298Y-118797818D01*
X70187058Y-118862667D01*
X70249125Y-118791894D01*
X70262667Y-118698330D01*
X70224307Y-118539563D01*
X70139190Y-118467580D01*
X70056575Y-118514979D01*
X70041135Y-118651569D01*
X69778339Y-118651569D01*
X69773656Y-118490733D01*
X69780803Y-118348137D01*
X69742436Y-118319892D01*
X69673980Y-118449975D01*
X69367938Y-118449975D01*
X69363317Y-118383146D01*
X69421177Y-118227667D01*
X69924000Y-118227667D01*
X69966333Y-118270000D01*
X70008667Y-118227667D01*
X69966333Y-118185334D01*
X69924000Y-118227667D01*
X69421177Y-118227667D01*
X69425386Y-118216357D01*
X69560135Y-118112804D01*
X70109191Y-118112804D01*
X70126227Y-118160208D01*
X70215349Y-118230360D01*
X70363748Y-118333938D01*
X70422061Y-118330674D01*
X70432000Y-118227667D01*
X70359909Y-118125475D01*
X70241500Y-118103360D01*
X70109191Y-118112804D01*
X69560135Y-118112804D01*
X69596042Y-118085210D01*
X69853936Y-117957492D01*
X70119900Y-117867978D01*
X70267075Y-117846667D01*
X70345987Y-117834674D01*
X70367988Y-117774902D01*
X70330010Y-117631658D01*
X70228984Y-117369251D01*
X70225215Y-117359834D01*
X70025660Y-116690419D01*
X69986115Y-116195667D01*
X70250090Y-116195667D01*
X70273618Y-116452634D01*
X70327790Y-116749554D01*
X70402955Y-117057174D01*
X70489464Y-117346245D01*
X70577666Y-117587515D01*
X70657911Y-117751733D01*
X70720549Y-117809647D01*
X70755929Y-117732007D01*
X70756195Y-117729733D01*
X70784056Y-117485800D01*
X71516379Y-117545220D01*
X71991302Y-117586691D01*
X72322529Y-117625825D01*
X72535427Y-117669855D01*
X72655364Y-117726013D01*
X72707706Y-117801533D01*
X72718000Y-117887843D01*
X72749930Y-118026032D01*
X72877359Y-118045879D01*
X72915325Y-118039464D01*
X73120299Y-118047213D01*
X73377604Y-118114117D01*
X73433665Y-118135872D01*
X73664321Y-118230315D01*
X73777838Y-118251307D01*
X73815521Y-118185140D01*
X73818674Y-118018106D01*
X73818667Y-118008099D01*
X73818667Y-117746197D01*
X74644167Y-117801363D01*
X75136548Y-117836151D01*
X75484764Y-117868986D01*
X75713714Y-117907403D01*
X75848300Y-117958935D01*
X75913422Y-118031120D01*
X75933981Y-118131490D01*
X75935333Y-118192061D01*
X75935333Y-118439334D01*
X78231709Y-118439334D01*
X78178264Y-118079500D01*
X78172649Y-117740053D01*
X78233350Y-117254171D01*
X78314998Y-116830667D01*
X78425587Y-116264005D01*
X78480527Y-115817492D01*
X78475616Y-115449950D01*
X78406649Y-115120197D01*
X78269421Y-114787054D01*
X78069465Y-114425663D01*
X77814475Y-114036423D01*
X77575372Y-113744581D01*
X77395833Y-113591799D01*
X77189534Y-113455395D01*
X77139955Y-113381088D01*
X77249214Y-113361897D01*
X77459333Y-113382462D01*
X77670584Y-113405793D01*
X77788867Y-113409145D01*
X77798000Y-113405125D01*
X77723781Y-113314129D01*
X77527937Y-113192150D01*
X77250686Y-113058007D01*
X76932245Y-112930522D01*
X76612833Y-112828515D01*
X76511422Y-112803042D01*
X75859845Y-112653202D01*
X74996200Y-112985101D01*
X74590227Y-113147747D01*
X74308187Y-113281356D01*
X74112668Y-113408301D01*
X73966261Y-113550953D01*
X73892393Y-113645202D01*
X73741945Y-113833904D01*
X73652903Y-113892914D01*
X73600401Y-113838250D01*
X73598849Y-113834290D01*
X73572304Y-113643756D01*
X73585659Y-113484921D01*
X73583462Y-113317728D01*
X73502221Y-113274667D01*
X73260415Y-113334478D01*
X72944333Y-113499276D01*
X72591775Y-113747111D01*
X72376002Y-113928740D01*
X72152859Y-114126488D01*
X72027236Y-114220854D01*
X71971122Y-114222103D01*
X71956503Y-114140499D01*
X71956000Y-114082642D01*
X72019935Y-113765979D01*
X72217157Y-113403155D01*
X72555786Y-112979828D01*
X72621224Y-112908123D01*
X72822351Y-112688578D01*
X72914446Y-112576174D01*
X72904324Y-112554550D01*
X72798802Y-112607345D01*
X72730307Y-112646266D01*
X72497055Y-112807621D01*
X72308036Y-112983482D01*
X72294789Y-112999500D01*
X72160068Y-113137894D01*
X72064888Y-113190000D01*
X71925635Y-113252888D01*
X71713111Y-113422739D01*
X71456022Y-113671332D01*
X71183074Y-113970448D01*
X70922974Y-114291866D01*
X70866353Y-114368225D01*
X70549754Y-114858128D01*
X70354883Y-115310011D01*
X70262780Y-115780092D01*
X70250090Y-116195667D01*
X69986115Y-116195667D01*
X69972002Y-116019102D01*
X70061554Y-115302759D01*
X70089330Y-115179667D01*
X70250685Y-114502334D01*
X70004953Y-114798667D01*
X69856706Y-114989739D01*
X69767940Y-115127831D01*
X69756944Y-115158500D01*
X69688384Y-115219210D01*
X69660821Y-115222000D01*
X69607134Y-115157275D01*
X69623435Y-114998328D01*
X69695773Y-114798004D01*
X69810197Y-114609146D01*
X69828461Y-114587000D01*
X70012798Y-114362766D01*
X70095100Y-114239785D01*
X70072648Y-114226379D01*
X69942722Y-114330865D01*
X69899147Y-114370776D01*
X69701399Y-114528597D01*
X69598847Y-114554775D01*
X69594641Y-114459797D01*
X69691934Y-114254151D01*
X69808686Y-114069648D01*
X70163041Y-113576564D01*
X70489702Y-113200054D01*
X70831338Y-112902674D01*
X71230619Y-112646976D01*
X71700679Y-112409274D01*
X72115226Y-112224155D01*
X72532529Y-112052461D01*
X72895680Y-111916897D01*
X73090679Y-111854685D01*
X73592999Y-111715027D01*
X73324833Y-111605604D01*
X73145281Y-111525579D01*
X73058210Y-111473492D01*
X73056667Y-111470060D01*
X73134754Y-111457991D01*
X73342708Y-111448631D01*
X73641065Y-111443508D01*
X73755167Y-111443005D01*
X74179390Y-111433394D01*
X74627164Y-111409054D01*
X75003360Y-111375195D01*
X75011655Y-111374195D01*
X75464071Y-111349761D01*
X76015892Y-111368270D01*
G36*
X73486623Y-120612360D02*
X73856719Y-120785963D01*
X74093833Y-120960332D01*
X74211429Y-121094780D01*
X74211401Y-121206522D01*
X74079838Y-121309979D01*
X73802830Y-121419573D01*
X73585833Y-121486984D01*
X73266936Y-121581933D01*
X73007315Y-121660765D01*
X72852875Y-121709501D01*
X72836127Y-121715326D01*
X72755081Y-121663566D01*
X72644311Y-121496275D01*
X72802667Y-121496275D01*
X72816241Y-121565608D01*
X72878221Y-121589180D01*
X73020496Y-121563647D01*
X73274954Y-121485668D01*
X73445518Y-121428892D01*
X73761867Y-121318009D01*
X73940695Y-121239000D01*
X74006808Y-121175538D01*
X73985015Y-121111296D01*
X73963566Y-121087947D01*
X73741727Y-120973118D01*
X73454556Y-120959255D01*
X73169454Y-121042178D01*
X73016422Y-121146705D01*
X72870074Y-121324769D01*
X72803104Y-121486326D01*
X72802667Y-121496275D01*
X72644311Y-121496275D01*
X72642643Y-121493756D01*
X72553655Y-121310831D01*
X72364723Y-120871647D01*
X72542256Y-120694114D01*
X72788670Y-120559449D01*
X73117033Y-120534527D01*
X73486623Y-120612360D01*
X73486623Y-120612360D01*
G37*
X73486623Y-120612360D02*
X73856719Y-120785963D01*
X74093833Y-120960332D01*
X74211429Y-121094780D01*
X74211401Y-121206522D01*
X74079838Y-121309979D01*
X73802830Y-121419573D01*
X73585833Y-121486984D01*
X73266936Y-121581933D01*
X73007315Y-121660765D01*
X72852875Y-121709501D01*
X72836127Y-121715326D01*
X72755081Y-121663566D01*
X72644311Y-121496275D01*
X72802667Y-121496275D01*
X72816241Y-121565608D01*
X72878221Y-121589180D01*
X73020496Y-121563647D01*
X73274954Y-121485668D01*
X73445518Y-121428892D01*
X73761867Y-121318009D01*
X73940695Y-121239000D01*
X74006808Y-121175538D01*
X73985015Y-121111296D01*
X73963566Y-121087947D01*
X73741727Y-120973118D01*
X73454556Y-120959255D01*
X73169454Y-121042178D01*
X73016422Y-121146705D01*
X72870074Y-121324769D01*
X72803104Y-121486326D01*
X72802667Y-121496275D01*
X72644311Y-121496275D01*
X72642643Y-121493756D01*
X72553655Y-121310831D01*
X72364723Y-120871647D01*
X72542256Y-120694114D01*
X72788670Y-120559449D01*
X73117033Y-120534527D01*
X73486623Y-120612360D01*
G36*
X78930272Y-118813507D02*
X79238391Y-118942327D01*
X79421918Y-119161998D01*
X79473585Y-119441268D01*
X79386122Y-119748886D01*
X79206169Y-119999638D01*
X78997563Y-120203970D01*
X78854388Y-120287847D01*
X78738986Y-120265154D01*
X78661600Y-120200400D01*
X78586333Y-120046795D01*
X78554049Y-119840567D01*
X78528509Y-119595535D01*
X78483839Y-119418196D01*
X78475201Y-119206922D01*
X78484259Y-119180109D01*
X78692238Y-119180109D01*
X78736394Y-119403469D01*
X78758725Y-119461510D01*
X78827173Y-119680519D01*
X78842178Y-119841806D01*
X78838260Y-119857558D01*
X78837587Y-119939512D01*
X78910804Y-119922638D01*
X79018129Y-119833617D01*
X79119782Y-119699130D01*
X79143816Y-119652614D01*
X79204959Y-119385280D01*
X79129496Y-119184356D01*
X78960823Y-119086248D01*
X78766346Y-119075672D01*
X78692238Y-119180109D01*
X78484259Y-119180109D01*
X78542562Y-119007534D01*
X78651450Y-118839170D01*
X78787082Y-118794083D01*
X78930272Y-118813507D01*
X78930272Y-118813507D01*
G37*
X78930272Y-118813507D02*
X79238391Y-118942327D01*
X79421918Y-119161998D01*
X79473585Y-119441268D01*
X79386122Y-119748886D01*
X79206169Y-119999638D01*
X78997563Y-120203970D01*
X78854388Y-120287847D01*
X78738986Y-120265154D01*
X78661600Y-120200400D01*
X78586333Y-120046795D01*
X78554049Y-119840567D01*
X78528509Y-119595535D01*
X78483839Y-119418196D01*
X78475201Y-119206922D01*
X78484259Y-119180109D01*
X78692238Y-119180109D01*
X78736394Y-119403469D01*
X78758725Y-119461510D01*
X78827173Y-119680519D01*
X78842178Y-119841806D01*
X78838260Y-119857558D01*
X78837587Y-119939512D01*
X78910804Y-119922638D01*
X79018129Y-119833617D01*
X79119782Y-119699130D01*
X79143816Y-119652614D01*
X79204959Y-119385280D01*
X79129496Y-119184356D01*
X78960823Y-119086248D01*
X78766346Y-119075672D01*
X78692238Y-119180109D01*
X78484259Y-119180109D01*
X78542562Y-119007534D01*
X78651450Y-118839170D01*
X78787082Y-118794083D01*
X78930272Y-118813507D01*
G36*
X73594010Y-119707578D02*
X73603551Y-119715818D01*
X73626905Y-119823374D01*
X73527318Y-119926700D01*
X73342299Y-120034759D01*
X73227567Y-120018102D01*
X73187247Y-119969127D01*
X73202648Y-119864982D01*
X73318442Y-119760593D01*
X73470329Y-119695083D01*
X73594010Y-119707578D01*
X73594010Y-119707578D01*
G37*
X73594010Y-119707578D02*
X73603551Y-119715818D01*
X73626905Y-119823374D01*
X73527318Y-119926700D01*
X73342299Y-120034759D01*
X73227567Y-120018102D01*
X73187247Y-119969127D01*
X73202648Y-119864982D01*
X73318442Y-119760593D01*
X73470329Y-119695083D01*
X73594010Y-119707578D01*
G36*
X72658158Y-119511122D02*
X72774895Y-119619366D01*
X72838907Y-119764985D01*
X72832344Y-119838784D01*
X72745261Y-119953663D01*
X72619353Y-119910482D01*
X72565600Y-119861734D01*
X72471948Y-119693572D01*
X72499348Y-119540921D01*
X72541841Y-119501885D01*
X72658158Y-119511122D01*
X72658158Y-119511122D01*
G37*
X72658158Y-119511122D02*
X72774895Y-119619366D01*
X72838907Y-119764985D01*
X72832344Y-119838784D01*
X72745261Y-119953663D01*
X72619353Y-119910482D01*
X72565600Y-119861734D01*
X72471948Y-119693572D01*
X72499348Y-119540921D01*
X72541841Y-119501885D01*
X72658158Y-119511122D01*
G36*
X73328236Y-119250767D02*
X73636080Y-119364379D01*
X73796759Y-119479608D01*
X73927233Y-119637873D01*
X73969305Y-119748859D01*
X73962343Y-119763212D01*
X73908279Y-119757226D01*
X73903333Y-119722200D01*
X73826216Y-119571861D01*
X73624133Y-119444467D01*
X73340985Y-119350404D01*
X73020671Y-119300060D01*
X72707094Y-119303819D01*
X72444153Y-119372070D01*
X72437267Y-119375338D01*
X72310259Y-119433785D01*
X72322226Y-119409023D01*
X72421667Y-119326338D01*
X72659571Y-119224896D01*
X72982247Y-119201989D01*
X73328236Y-119250767D01*
X73328236Y-119250767D01*
G37*
X73328236Y-119250767D02*
X73636080Y-119364379D01*
X73796759Y-119479608D01*
X73927233Y-119637873D01*
X73969305Y-119748859D01*
X73962343Y-119763212D01*
X73908279Y-119757226D01*
X73903333Y-119722200D01*
X73826216Y-119571861D01*
X73624133Y-119444467D01*
X73340985Y-119350404D01*
X73020671Y-119300060D01*
X72707094Y-119303819D01*
X72444153Y-119372070D01*
X72437267Y-119375338D01*
X72310259Y-119433785D01*
X72322226Y-119409023D01*
X72421667Y-119326338D01*
X72659571Y-119224896D01*
X72982247Y-119201989D01*
X73328236Y-119250767D01*
G36*
X75353568Y-116038371D02*
X75627083Y-116182654D01*
X75669927Y-116206282D01*
X75975340Y-116374808D01*
X76159544Y-116481347D01*
X76247986Y-116548567D01*
X76266112Y-116599132D01*
X76239368Y-116655710D01*
X76216989Y-116693574D01*
X76158696Y-116749478D01*
X76055229Y-116743601D01*
X75873268Y-116666513D01*
X75595395Y-116517642D01*
X75327588Y-116368067D01*
X75125168Y-116253981D01*
X75026611Y-116197088D01*
X75023174Y-116194836D01*
X75029044Y-116113719D01*
X75054100Y-116036623D01*
X75099445Y-115974273D01*
X75188478Y-115971884D01*
X75353568Y-116038371D01*
X75353568Y-116038371D01*
G37*
X75353568Y-116038371D02*
X75627083Y-116182654D01*
X75669927Y-116206282D01*
X75975340Y-116374808D01*
X76159544Y-116481347D01*
X76247986Y-116548567D01*
X76266112Y-116599132D01*
X76239368Y-116655710D01*
X76216989Y-116693574D01*
X76158696Y-116749478D01*
X76055229Y-116743601D01*
X75873268Y-116666513D01*
X75595395Y-116517642D01*
X75327588Y-116368067D01*
X75125168Y-116253981D01*
X75026611Y-116197088D01*
X75023174Y-116194836D01*
X75029044Y-116113719D01*
X75054100Y-116036623D01*
X75099445Y-115974273D01*
X75188478Y-115971884D01*
X75353568Y-116038371D01*
G36*
X71810652Y-115951797D02*
X71898824Y-116018184D01*
X71888263Y-116103556D01*
X71758787Y-116163208D01*
X71549438Y-116202519D01*
X71255668Y-116272076D01*
X70996373Y-116376572D01*
X70930443Y-116416213D01*
X70763252Y-116508317D01*
X70658461Y-116520374D01*
X70655276Y-116517721D01*
X70606224Y-116410146D01*
X70687166Y-116286139D01*
X70834167Y-116170479D01*
X71068513Y-116049087D01*
X71343043Y-115967360D01*
X71607257Y-115932521D01*
X71810652Y-115951797D01*
X71810652Y-115951797D01*
G37*
X71810652Y-115951797D02*
X71898824Y-116018184D01*
X71888263Y-116103556D01*
X71758787Y-116163208D01*
X71549438Y-116202519D01*
X71255668Y-116272076D01*
X70996373Y-116376572D01*
X70930443Y-116416213D01*
X70763252Y-116508317D01*
X70658461Y-116520374D01*
X70655276Y-116517721D01*
X70606224Y-116410146D01*
X70687166Y-116286139D01*
X70834167Y-116170479D01*
X71068513Y-116049087D01*
X71343043Y-115967360D01*
X71607257Y-115932521D01*
X71810652Y-115951797D01*
D11*
X96500000Y-98075000D02*
X94500000Y-98075000D01*
X94500000Y-95925000D02*
X96500000Y-95925000D01*
X86500000Y-102575000D02*
X84500000Y-102575000D01*
X84500000Y-100425000D02*
X86500000Y-100425000D01*
X84500000Y-103425000D02*
X86500000Y-103425000D01*
X86500000Y-105575000D02*
X84500000Y-105575000D01*
X78250000Y-96575000D02*
X76250000Y-96575000D01*
X76250000Y-94425000D02*
X78250000Y-94425000D01*
X70440000Y-107810000D02*
X78060000Y-107810000D01*
X78060000Y-107810000D02*
X78060000Y-100190000D01*
X78060000Y-100190000D02*
X70440000Y-100190000D01*
X70440000Y-100190000D02*
X70440000Y-107810000D01*
X78250000Y-99325000D02*
X76250000Y-99325000D01*
X76250000Y-97175000D02*
X78250000Y-97175000D01*
X100000000Y-99000000D02*
X102000000Y-99000000D01*
X99546000Y-97500000D02*
X99546000Y-99500000D01*
X102454000Y-97500000D02*
X102454000Y-99600000D01*
D14*
G36*
X107555814Y-93968931D02*
X107639635Y-94413555D01*
X107948920Y-94541053D01*
X108258206Y-94668551D01*
X108629246Y-94416246D01*
X108733157Y-94345996D01*
X108827087Y-94283272D01*
X108906652Y-94230938D01*
X108967470Y-94191857D01*
X109005157Y-94168893D01*
X109015421Y-94163942D01*
X109033910Y-94176676D01*
X109073420Y-94211882D01*
X109129522Y-94265062D01*
X109197787Y-94331718D01*
X109273786Y-94407354D01*
X109353092Y-94487472D01*
X109431275Y-94567574D01*
X109503907Y-94643164D01*
X109566559Y-94709745D01*
X109614803Y-94762818D01*
X109644210Y-94797887D01*
X109651241Y-94809623D01*
X109641123Y-94831260D01*
X109612759Y-94878662D01*
X109569129Y-94947193D01*
X109513218Y-95032215D01*
X109448006Y-95129093D01*
X109410219Y-95184350D01*
X109341343Y-95285248D01*
X109280140Y-95376299D01*
X109229578Y-95452970D01*
X109192628Y-95510728D01*
X109172258Y-95545043D01*
X109169197Y-95552254D01*
X109176136Y-95572748D01*
X109195051Y-95620513D01*
X109223087Y-95688832D01*
X109257391Y-95770989D01*
X109295109Y-95860270D01*
X109333387Y-95949958D01*
X109369370Y-96033338D01*
X109400206Y-96103694D01*
X109423039Y-96154310D01*
X109435017Y-96178471D01*
X109435724Y-96179422D01*
X109454531Y-96184036D01*
X109504618Y-96194328D01*
X109580793Y-96209287D01*
X109677865Y-96227901D01*
X109790643Y-96249159D01*
X109856442Y-96261418D01*
X109976950Y-96284362D01*
X110085797Y-96306195D01*
X110177476Y-96325722D01*
X110246481Y-96341748D01*
X110287304Y-96353079D01*
X110295511Y-96356674D01*
X110303548Y-96381006D01*
X110310033Y-96435959D01*
X110314970Y-96515108D01*
X110318364Y-96612026D01*
X110320218Y-96720287D01*
X110320538Y-96833465D01*
X110319327Y-96945135D01*
X110316590Y-97048868D01*
X110312331Y-97138241D01*
X110306555Y-97206826D01*
X110299267Y-97248197D01*
X110294895Y-97256810D01*
X110268764Y-97267133D01*
X110213393Y-97281892D01*
X110136107Y-97299352D01*
X110044230Y-97317780D01*
X110012158Y-97323741D01*
X109857524Y-97352066D01*
X109735375Y-97374876D01*
X109641673Y-97393080D01*
X109572384Y-97407583D01*
X109523471Y-97419292D01*
X109490897Y-97429115D01*
X109470628Y-97437956D01*
X109458626Y-97446724D01*
X109456947Y-97448457D01*
X109440184Y-97476371D01*
X109414614Y-97530695D01*
X109382788Y-97604777D01*
X109347260Y-97691965D01*
X109310583Y-97785608D01*
X109275311Y-97879052D01*
X109243996Y-97965647D01*
X109219193Y-98038740D01*
X109203454Y-98091678D01*
X109199332Y-98117811D01*
X109199676Y-98118726D01*
X109213641Y-98140086D01*
X109245322Y-98187084D01*
X109291391Y-98254827D01*
X109348518Y-98338423D01*
X109413373Y-98432982D01*
X109431843Y-98459854D01*
X109497699Y-98557275D01*
X109555650Y-98646163D01*
X109602538Y-98721412D01*
X109635207Y-98777920D01*
X109650500Y-98810581D01*
X109651241Y-98814593D01*
X109638392Y-98835684D01*
X109602888Y-98877464D01*
X109549293Y-98935445D01*
X109482171Y-99005135D01*
X109406087Y-99082045D01*
X109325604Y-99161683D01*
X109245287Y-99239561D01*
X109169699Y-99311186D01*
X109103405Y-99372070D01*
X109050969Y-99417721D01*
X109016955Y-99443650D01*
X109007545Y-99447883D01*
X108985643Y-99437912D01*
X108940800Y-99411020D01*
X108880321Y-99371736D01*
X108833789Y-99340117D01*
X108749475Y-99282098D01*
X108649626Y-99213784D01*
X108549473Y-99145579D01*
X108495627Y-99109075D01*
X108313371Y-98985800D01*
X108160381Y-99068520D01*
X108090682Y-99104759D01*
X108031414Y-99132926D01*
X107991311Y-99148991D01*
X107981103Y-99151226D01*
X107968829Y-99134722D01*
X107944613Y-99088082D01*
X107910263Y-99015609D01*
X107867588Y-98921606D01*
X107818394Y-98810374D01*
X107764490Y-98686215D01*
X107707684Y-98553432D01*
X107649782Y-98416327D01*
X107592593Y-98279202D01*
X107537924Y-98146358D01*
X107487584Y-98022098D01*
X107443380Y-97910725D01*
X107407119Y-97816539D01*
X107380609Y-97743844D01*
X107365658Y-97696941D01*
X107363254Y-97680833D01*
X107382311Y-97660286D01*
X107424036Y-97626933D01*
X107479706Y-97587702D01*
X107484378Y-97584599D01*
X107628264Y-97469423D01*
X107744283Y-97335053D01*
X107831430Y-97185784D01*
X107888699Y-97025913D01*
X107915086Y-96859737D01*
X107909585Y-96691552D01*
X107871190Y-96525655D01*
X107798895Y-96366342D01*
X107777626Y-96331487D01*
X107666996Y-96190737D01*
X107536302Y-96077714D01*
X107390064Y-95993003D01*
X107232808Y-95937194D01*
X107069057Y-95910874D01*
X106903333Y-95914630D01*
X106740162Y-95949050D01*
X106584065Y-96014723D01*
X106439567Y-96112235D01*
X106394869Y-96151813D01*
X106281112Y-96275703D01*
X106198218Y-96406124D01*
X106141356Y-96552315D01*
X106109687Y-96697088D01*
X106101869Y-96859860D01*
X106127938Y-97023440D01*
X106185245Y-97182298D01*
X106271144Y-97330906D01*
X106382986Y-97463735D01*
X106518123Y-97575256D01*
X106535883Y-97587011D01*
X106592150Y-97625508D01*
X106634923Y-97658863D01*
X106655372Y-97680160D01*
X106655669Y-97680833D01*
X106651279Y-97703871D01*
X106633876Y-97756157D01*
X106605268Y-97833390D01*
X106567265Y-97931268D01*
X106521674Y-98045491D01*
X106470303Y-98171758D01*
X106414962Y-98305767D01*
X106357458Y-98443218D01*
X106299601Y-98579808D01*
X106243198Y-98711237D01*
X106190058Y-98833205D01*
X106141990Y-98941409D01*
X106100801Y-99031549D01*
X106068301Y-99099323D01*
X106046297Y-99140430D01*
X106037436Y-99151226D01*
X106010360Y-99142819D01*
X105959697Y-99120272D01*
X105894183Y-99087613D01*
X105858159Y-99068520D01*
X105705168Y-98985800D01*
X105522912Y-99109075D01*
X105429875Y-99172228D01*
X105328015Y-99241727D01*
X105232562Y-99307165D01*
X105184750Y-99340117D01*
X105117505Y-99385273D01*
X105060564Y-99421057D01*
X105021354Y-99442938D01*
X105008619Y-99447563D01*
X104990083Y-99435085D01*
X104949059Y-99400252D01*
X104889525Y-99346678D01*
X104815458Y-99277983D01*
X104730835Y-99197781D01*
X104677315Y-99146286D01*
X104583681Y-99054286D01*
X104502759Y-98971999D01*
X104437823Y-98902945D01*
X104392142Y-98850644D01*
X104368989Y-98818616D01*
X104366768Y-98812116D01*
X104377076Y-98787394D01*
X104405561Y-98737405D01*
X104449063Y-98667212D01*
X104504423Y-98581875D01*
X104568480Y-98486456D01*
X104586697Y-98459854D01*
X104653073Y-98363167D01*
X104712622Y-98276117D01*
X104762016Y-98203595D01*
X104797925Y-98150493D01*
X104817019Y-98121703D01*
X104818864Y-98118726D01*
X104816105Y-98095782D01*
X104801462Y-98045336D01*
X104777487Y-97974041D01*
X104746734Y-97888547D01*
X104711756Y-97795507D01*
X104675107Y-97701574D01*
X104639339Y-97613399D01*
X104607006Y-97537634D01*
X104580662Y-97480931D01*
X104562858Y-97449943D01*
X104561593Y-97448457D01*
X104550706Y-97439601D01*
X104532318Y-97430843D01*
X104502394Y-97421277D01*
X104456897Y-97409996D01*
X104391791Y-97396093D01*
X104303039Y-97378663D01*
X104186607Y-97356798D01*
X104038458Y-97329591D01*
X104006382Y-97323741D01*
X103911314Y-97305374D01*
X103828435Y-97287405D01*
X103765070Y-97271569D01*
X103728542Y-97259600D01*
X103723644Y-97256810D01*
X103715573Y-97232072D01*
X103709013Y-97176790D01*
X103703967Y-97097389D01*
X103700441Y-97000296D01*
X103698439Y-96891938D01*
X103697964Y-96778740D01*
X103699023Y-96667128D01*
X103701618Y-96563529D01*
X103705754Y-96474368D01*
X103711437Y-96406072D01*
X103718669Y-96365066D01*
X103723029Y-96356674D01*
X103747302Y-96348208D01*
X103802574Y-96334435D01*
X103883338Y-96316550D01*
X103984088Y-96295748D01*
X104099317Y-96273223D01*
X104162098Y-96261418D01*
X104281213Y-96239151D01*
X104387435Y-96218979D01*
X104475573Y-96201915D01*
X104540434Y-96188969D01*
X104576826Y-96181155D01*
X104582816Y-96179422D01*
X104592939Y-96159890D01*
X104614338Y-96112843D01*
X104644161Y-96045003D01*
X104679555Y-95963091D01*
X104717668Y-95873828D01*
X104755647Y-95783935D01*
X104790640Y-95700135D01*
X104819794Y-95629147D01*
X104840257Y-95577694D01*
X104849177Y-95552497D01*
X104849343Y-95551396D01*
X104839231Y-95531519D01*
X104810883Y-95485777D01*
X104767277Y-95418717D01*
X104711394Y-95334884D01*
X104646213Y-95238826D01*
X104608321Y-95183650D01*
X104539275Y-95082481D01*
X104477950Y-94990630D01*
X104427337Y-94912744D01*
X104390429Y-94853469D01*
X104370218Y-94817451D01*
X104367299Y-94809377D01*
X104379847Y-94790584D01*
X104414537Y-94750457D01*
X104466937Y-94693493D01*
X104532616Y-94624185D01*
X104607144Y-94547031D01*
X104686087Y-94466525D01*
X104765017Y-94387163D01*
X104839500Y-94313440D01*
X104905106Y-94249852D01*
X104957404Y-94200894D01*
X104991961Y-94171061D01*
X105003522Y-94163942D01*
X105022346Y-94173953D01*
X105067369Y-94202078D01*
X105134213Y-94245454D01*
X105218501Y-94301218D01*
X105315856Y-94366506D01*
X105389293Y-94416246D01*
X105760333Y-94668551D01*
X106378905Y-94413555D01*
X106462725Y-93968931D01*
X106546546Y-93524307D01*
X107471994Y-93524307D01*
X107555814Y-93968931D01*
X107555814Y-93968931D01*
G37*
X107555814Y-93968931D02*
X107639635Y-94413555D01*
X107948920Y-94541053D01*
X108258206Y-94668551D01*
X108629246Y-94416246D01*
X108733157Y-94345996D01*
X108827087Y-94283272D01*
X108906652Y-94230938D01*
X108967470Y-94191857D01*
X109005157Y-94168893D01*
X109015421Y-94163942D01*
X109033910Y-94176676D01*
X109073420Y-94211882D01*
X109129522Y-94265062D01*
X109197787Y-94331718D01*
X109273786Y-94407354D01*
X109353092Y-94487472D01*
X109431275Y-94567574D01*
X109503907Y-94643164D01*
X109566559Y-94709745D01*
X109614803Y-94762818D01*
X109644210Y-94797887D01*
X109651241Y-94809623D01*
X109641123Y-94831260D01*
X109612759Y-94878662D01*
X109569129Y-94947193D01*
X109513218Y-95032215D01*
X109448006Y-95129093D01*
X109410219Y-95184350D01*
X109341343Y-95285248D01*
X109280140Y-95376299D01*
X109229578Y-95452970D01*
X109192628Y-95510728D01*
X109172258Y-95545043D01*
X109169197Y-95552254D01*
X109176136Y-95572748D01*
X109195051Y-95620513D01*
X109223087Y-95688832D01*
X109257391Y-95770989D01*
X109295109Y-95860270D01*
X109333387Y-95949958D01*
X109369370Y-96033338D01*
X109400206Y-96103694D01*
X109423039Y-96154310D01*
X109435017Y-96178471D01*
X109435724Y-96179422D01*
X109454531Y-96184036D01*
X109504618Y-96194328D01*
X109580793Y-96209287D01*
X109677865Y-96227901D01*
X109790643Y-96249159D01*
X109856442Y-96261418D01*
X109976950Y-96284362D01*
X110085797Y-96306195D01*
X110177476Y-96325722D01*
X110246481Y-96341748D01*
X110287304Y-96353079D01*
X110295511Y-96356674D01*
X110303548Y-96381006D01*
X110310033Y-96435959D01*
X110314970Y-96515108D01*
X110318364Y-96612026D01*
X110320218Y-96720287D01*
X110320538Y-96833465D01*
X110319327Y-96945135D01*
X110316590Y-97048868D01*
X110312331Y-97138241D01*
X110306555Y-97206826D01*
X110299267Y-97248197D01*
X110294895Y-97256810D01*
X110268764Y-97267133D01*
X110213393Y-97281892D01*
X110136107Y-97299352D01*
X110044230Y-97317780D01*
X110012158Y-97323741D01*
X109857524Y-97352066D01*
X109735375Y-97374876D01*
X109641673Y-97393080D01*
X109572384Y-97407583D01*
X109523471Y-97419292D01*
X109490897Y-97429115D01*
X109470628Y-97437956D01*
X109458626Y-97446724D01*
X109456947Y-97448457D01*
X109440184Y-97476371D01*
X109414614Y-97530695D01*
X109382788Y-97604777D01*
X109347260Y-97691965D01*
X109310583Y-97785608D01*
X109275311Y-97879052D01*
X109243996Y-97965647D01*
X109219193Y-98038740D01*
X109203454Y-98091678D01*
X109199332Y-98117811D01*
X109199676Y-98118726D01*
X109213641Y-98140086D01*
X109245322Y-98187084D01*
X109291391Y-98254827D01*
X109348518Y-98338423D01*
X109413373Y-98432982D01*
X109431843Y-98459854D01*
X109497699Y-98557275D01*
X109555650Y-98646163D01*
X109602538Y-98721412D01*
X109635207Y-98777920D01*
X109650500Y-98810581D01*
X109651241Y-98814593D01*
X109638392Y-98835684D01*
X109602888Y-98877464D01*
X109549293Y-98935445D01*
X109482171Y-99005135D01*
X109406087Y-99082045D01*
X109325604Y-99161683D01*
X109245287Y-99239561D01*
X109169699Y-99311186D01*
X109103405Y-99372070D01*
X109050969Y-99417721D01*
X109016955Y-99443650D01*
X109007545Y-99447883D01*
X108985643Y-99437912D01*
X108940800Y-99411020D01*
X108880321Y-99371736D01*
X108833789Y-99340117D01*
X108749475Y-99282098D01*
X108649626Y-99213784D01*
X108549473Y-99145579D01*
X108495627Y-99109075D01*
X108313371Y-98985800D01*
X108160381Y-99068520D01*
X108090682Y-99104759D01*
X108031414Y-99132926D01*
X107991311Y-99148991D01*
X107981103Y-99151226D01*
X107968829Y-99134722D01*
X107944613Y-99088082D01*
X107910263Y-99015609D01*
X107867588Y-98921606D01*
X107818394Y-98810374D01*
X107764490Y-98686215D01*
X107707684Y-98553432D01*
X107649782Y-98416327D01*
X107592593Y-98279202D01*
X107537924Y-98146358D01*
X107487584Y-98022098D01*
X107443380Y-97910725D01*
X107407119Y-97816539D01*
X107380609Y-97743844D01*
X107365658Y-97696941D01*
X107363254Y-97680833D01*
X107382311Y-97660286D01*
X107424036Y-97626933D01*
X107479706Y-97587702D01*
X107484378Y-97584599D01*
X107628264Y-97469423D01*
X107744283Y-97335053D01*
X107831430Y-97185784D01*
X107888699Y-97025913D01*
X107915086Y-96859737D01*
X107909585Y-96691552D01*
X107871190Y-96525655D01*
X107798895Y-96366342D01*
X107777626Y-96331487D01*
X107666996Y-96190737D01*
X107536302Y-96077714D01*
X107390064Y-95993003D01*
X107232808Y-95937194D01*
X107069057Y-95910874D01*
X106903333Y-95914630D01*
X106740162Y-95949050D01*
X106584065Y-96014723D01*
X106439567Y-96112235D01*
X106394869Y-96151813D01*
X106281112Y-96275703D01*
X106198218Y-96406124D01*
X106141356Y-96552315D01*
X106109687Y-96697088D01*
X106101869Y-96859860D01*
X106127938Y-97023440D01*
X106185245Y-97182298D01*
X106271144Y-97330906D01*
X106382986Y-97463735D01*
X106518123Y-97575256D01*
X106535883Y-97587011D01*
X106592150Y-97625508D01*
X106634923Y-97658863D01*
X106655372Y-97680160D01*
X106655669Y-97680833D01*
X106651279Y-97703871D01*
X106633876Y-97756157D01*
X106605268Y-97833390D01*
X106567265Y-97931268D01*
X106521674Y-98045491D01*
X106470303Y-98171758D01*
X106414962Y-98305767D01*
X106357458Y-98443218D01*
X106299601Y-98579808D01*
X106243198Y-98711237D01*
X106190058Y-98833205D01*
X106141990Y-98941409D01*
X106100801Y-99031549D01*
X106068301Y-99099323D01*
X106046297Y-99140430D01*
X106037436Y-99151226D01*
X106010360Y-99142819D01*
X105959697Y-99120272D01*
X105894183Y-99087613D01*
X105858159Y-99068520D01*
X105705168Y-98985800D01*
X105522912Y-99109075D01*
X105429875Y-99172228D01*
X105328015Y-99241727D01*
X105232562Y-99307165D01*
X105184750Y-99340117D01*
X105117505Y-99385273D01*
X105060564Y-99421057D01*
X105021354Y-99442938D01*
X105008619Y-99447563D01*
X104990083Y-99435085D01*
X104949059Y-99400252D01*
X104889525Y-99346678D01*
X104815458Y-99277983D01*
X104730835Y-99197781D01*
X104677315Y-99146286D01*
X104583681Y-99054286D01*
X104502759Y-98971999D01*
X104437823Y-98902945D01*
X104392142Y-98850644D01*
X104368989Y-98818616D01*
X104366768Y-98812116D01*
X104377076Y-98787394D01*
X104405561Y-98737405D01*
X104449063Y-98667212D01*
X104504423Y-98581875D01*
X104568480Y-98486456D01*
X104586697Y-98459854D01*
X104653073Y-98363167D01*
X104712622Y-98276117D01*
X104762016Y-98203595D01*
X104797925Y-98150493D01*
X104817019Y-98121703D01*
X104818864Y-98118726D01*
X104816105Y-98095782D01*
X104801462Y-98045336D01*
X104777487Y-97974041D01*
X104746734Y-97888547D01*
X104711756Y-97795507D01*
X104675107Y-97701574D01*
X104639339Y-97613399D01*
X104607006Y-97537634D01*
X104580662Y-97480931D01*
X104562858Y-97449943D01*
X104561593Y-97448457D01*
X104550706Y-97439601D01*
X104532318Y-97430843D01*
X104502394Y-97421277D01*
X104456897Y-97409996D01*
X104391791Y-97396093D01*
X104303039Y-97378663D01*
X104186607Y-97356798D01*
X104038458Y-97329591D01*
X104006382Y-97323741D01*
X103911314Y-97305374D01*
X103828435Y-97287405D01*
X103765070Y-97271569D01*
X103728542Y-97259600D01*
X103723644Y-97256810D01*
X103715573Y-97232072D01*
X103709013Y-97176790D01*
X103703967Y-97097389D01*
X103700441Y-97000296D01*
X103698439Y-96891938D01*
X103697964Y-96778740D01*
X103699023Y-96667128D01*
X103701618Y-96563529D01*
X103705754Y-96474368D01*
X103711437Y-96406072D01*
X103718669Y-96365066D01*
X103723029Y-96356674D01*
X103747302Y-96348208D01*
X103802574Y-96334435D01*
X103883338Y-96316550D01*
X103984088Y-96295748D01*
X104099317Y-96273223D01*
X104162098Y-96261418D01*
X104281213Y-96239151D01*
X104387435Y-96218979D01*
X104475573Y-96201915D01*
X104540434Y-96188969D01*
X104576826Y-96181155D01*
X104582816Y-96179422D01*
X104592939Y-96159890D01*
X104614338Y-96112843D01*
X104644161Y-96045003D01*
X104679555Y-95963091D01*
X104717668Y-95873828D01*
X104755647Y-95783935D01*
X104790640Y-95700135D01*
X104819794Y-95629147D01*
X104840257Y-95577694D01*
X104849177Y-95552497D01*
X104849343Y-95551396D01*
X104839231Y-95531519D01*
X104810883Y-95485777D01*
X104767277Y-95418717D01*
X104711394Y-95334884D01*
X104646213Y-95238826D01*
X104608321Y-95183650D01*
X104539275Y-95082481D01*
X104477950Y-94990630D01*
X104427337Y-94912744D01*
X104390429Y-94853469D01*
X104370218Y-94817451D01*
X104367299Y-94809377D01*
X104379847Y-94790584D01*
X104414537Y-94750457D01*
X104466937Y-94693493D01*
X104532616Y-94624185D01*
X104607144Y-94547031D01*
X104686087Y-94466525D01*
X104765017Y-94387163D01*
X104839500Y-94313440D01*
X104905106Y-94249852D01*
X104957404Y-94200894D01*
X104991961Y-94171061D01*
X105003522Y-94163942D01*
X105022346Y-94173953D01*
X105067369Y-94202078D01*
X105134213Y-94245454D01*
X105218501Y-94301218D01*
X105315856Y-94366506D01*
X105389293Y-94416246D01*
X105760333Y-94668551D01*
X106378905Y-94413555D01*
X106462725Y-93968931D01*
X106546546Y-93524307D01*
X107471994Y-93524307D01*
X107555814Y-93968931D01*
D11*
X90250000Y-94500000D02*
X90250000Y-99000000D01*
X81750000Y-94500000D02*
X81750000Y-99000000D01*
X81750000Y-99000000D02*
X90250000Y-99000000D01*
X81750000Y-94500000D02*
X90250000Y-94500000D01*
D12*
X81600000Y-94100000D02*
G75*
G03X81600000Y-94100000I-250000J0D01*
G01*
D11*
X87404762Y-117547619D02*
X87309524Y-117500000D01*
X87214286Y-117404762D01*
X87071429Y-117261905D01*
X86976190Y-117214286D01*
X86880952Y-117214286D01*
X86928571Y-117452381D02*
X86833333Y-117404762D01*
X86738095Y-117309524D01*
X86690476Y-117119048D01*
X86690476Y-116785714D01*
X86738095Y-116595238D01*
X86833333Y-116500000D01*
X86928571Y-116452381D01*
X87119048Y-116452381D01*
X87214286Y-116500000D01*
X87309524Y-116595238D01*
X87357143Y-116785714D01*
X87357143Y-117119048D01*
X87309524Y-117309524D01*
X87214286Y-117404762D01*
X87119048Y-117452381D01*
X86928571Y-117452381D01*
X88309524Y-117452381D02*
X87738095Y-117452381D01*
X88023809Y-117452381D02*
X88023809Y-116452381D01*
X87928571Y-116595238D01*
X87833333Y-116690476D01*
X87738095Y-116738095D01*
X82871429Y-138452381D02*
X82871429Y-137452381D01*
X83252382Y-137452381D01*
X83347620Y-137500000D01*
X83395239Y-137547619D01*
X83442858Y-137642857D01*
X83442858Y-137785714D01*
X83395239Y-137880952D01*
X83347620Y-137928571D01*
X83252382Y-137976190D01*
X82871429Y-137976190D01*
X84061905Y-137452381D02*
X84252382Y-137452381D01*
X84347620Y-137500000D01*
X84442858Y-137595238D01*
X84490477Y-137785714D01*
X84490477Y-138119048D01*
X84442858Y-138309524D01*
X84347620Y-138404762D01*
X84252382Y-138452381D01*
X84061905Y-138452381D01*
X83966667Y-138404762D01*
X83871429Y-138309524D01*
X83823810Y-138119048D01*
X83823810Y-137785714D01*
X83871429Y-137595238D01*
X83966667Y-137500000D01*
X84061905Y-137452381D01*
X84823810Y-137452381D02*
X85061905Y-138452381D01*
X85252382Y-137738095D01*
X85442858Y-138452381D01*
X85680953Y-137452381D01*
X86061905Y-137928571D02*
X86395239Y-137928571D01*
X86538096Y-138452381D02*
X86061905Y-138452381D01*
X86061905Y-137452381D01*
X86538096Y-137452381D01*
X87538096Y-138452381D02*
X87204762Y-137976190D01*
X86966667Y-138452381D02*
X86966667Y-137452381D01*
X87347620Y-137452381D01*
X87442858Y-137500000D01*
X87490477Y-137547619D01*
X87538096Y-137642857D01*
X87538096Y-137785714D01*
X87490477Y-137880952D01*
X87442858Y-137928571D01*
X87347620Y-137976190D01*
X86966667Y-137976190D01*
X87966667Y-138071429D02*
X88728572Y-138071429D01*
X88347620Y-138452381D02*
X88347620Y-137690476D01*
X71171429Y-138252381D02*
X71171429Y-137252381D01*
X71552382Y-137252381D01*
X71647620Y-137300000D01*
X71695239Y-137347619D01*
X71742858Y-137442857D01*
X71742858Y-137585714D01*
X71695239Y-137680952D01*
X71647620Y-137728571D01*
X71552382Y-137776190D01*
X71171429Y-137776190D01*
X72361905Y-137252381D02*
X72552382Y-137252381D01*
X72647620Y-137300000D01*
X72742858Y-137395238D01*
X72790477Y-137585714D01*
X72790477Y-137919048D01*
X72742858Y-138109524D01*
X72647620Y-138204762D01*
X72552382Y-138252381D01*
X72361905Y-138252381D01*
X72266667Y-138204762D01*
X72171429Y-138109524D01*
X72123810Y-137919048D01*
X72123810Y-137585714D01*
X72171429Y-137395238D01*
X72266667Y-137300000D01*
X72361905Y-137252381D01*
X73123810Y-137252381D02*
X73361905Y-138252381D01*
X73552382Y-137538095D01*
X73742858Y-138252381D01*
X73980953Y-137252381D01*
X74361905Y-137728571D02*
X74695239Y-137728571D01*
X74838096Y-138252381D02*
X74361905Y-138252381D01*
X74361905Y-137252381D01*
X74838096Y-137252381D01*
X75838096Y-138252381D02*
X75504762Y-137776190D01*
X75266667Y-138252381D02*
X75266667Y-137252381D01*
X75647620Y-137252381D01*
X75742858Y-137300000D01*
X75790477Y-137347619D01*
X75838096Y-137442857D01*
X75838096Y-137585714D01*
X75790477Y-137680952D01*
X75742858Y-137728571D01*
X75647620Y-137776190D01*
X75266667Y-137776190D01*
X76266667Y-137871429D02*
X77028572Y-137871429D01*
X107400001Y-137928571D02*
X107542858Y-137976190D01*
X107590477Y-138023810D01*
X107638096Y-138119048D01*
X107638096Y-138261905D01*
X107590477Y-138357143D01*
X107542858Y-138404762D01*
X107447620Y-138452381D01*
X107066667Y-138452381D01*
X107066667Y-137452381D01*
X107400001Y-137452381D01*
X107495239Y-137500000D01*
X107542858Y-137547619D01*
X107590477Y-137642857D01*
X107590477Y-137738095D01*
X107542858Y-137833333D01*
X107495239Y-137880952D01*
X107400001Y-137928571D01*
X107066667Y-137928571D01*
X108066667Y-137928571D02*
X108400001Y-137928571D01*
X108542858Y-138452381D02*
X108066667Y-138452381D01*
X108066667Y-137452381D01*
X108542858Y-137452381D01*
X108971429Y-138452381D02*
X108971429Y-137452381D01*
X109209524Y-137452381D01*
X109352382Y-137500000D01*
X109447620Y-137595238D01*
X109495239Y-137690476D01*
X109542858Y-137880952D01*
X109542858Y-138023810D01*
X109495239Y-138214286D01*
X109447620Y-138309524D01*
X109352382Y-138404762D01*
X109209524Y-138452381D01*
X108971429Y-138452381D01*
X109971429Y-138071429D02*
X110733334Y-138071429D01*
X96200001Y-137928571D02*
X96342858Y-137976190D01*
X96390477Y-138023810D01*
X96438096Y-138119048D01*
X96438096Y-138261905D01*
X96390477Y-138357143D01*
X96342858Y-138404762D01*
X96247620Y-138452381D01*
X95866667Y-138452381D01*
X95866667Y-137452381D01*
X96200001Y-137452381D01*
X96295239Y-137500000D01*
X96342858Y-137547619D01*
X96390477Y-137642857D01*
X96390477Y-137738095D01*
X96342858Y-137833333D01*
X96295239Y-137880952D01*
X96200001Y-137928571D01*
X95866667Y-137928571D01*
X96866667Y-137928571D02*
X97200001Y-137928571D01*
X97342858Y-138452381D02*
X96866667Y-138452381D01*
X96866667Y-137452381D01*
X97342858Y-137452381D01*
X97771429Y-138452381D02*
X97771429Y-137452381D01*
X98009524Y-137452381D01*
X98152382Y-137500000D01*
X98247620Y-137595238D01*
X98295239Y-137690476D01*
X98342858Y-137880952D01*
X98342858Y-138023810D01*
X98295239Y-138214286D01*
X98247620Y-138309524D01*
X98152382Y-138404762D01*
X98009524Y-138452381D01*
X97771429Y-138452381D01*
X98771429Y-138071429D02*
X99533334Y-138071429D01*
X99152382Y-138452381D02*
X99152382Y-137690476D01*
X93333334Y-99452381D02*
X93000000Y-98976190D01*
X92761905Y-99452381D02*
X92761905Y-98452381D01*
X93142858Y-98452381D01*
X93238096Y-98500000D01*
X93285715Y-98547619D01*
X93333334Y-98642857D01*
X93333334Y-98785714D01*
X93285715Y-98880952D01*
X93238096Y-98928571D01*
X93142858Y-98976190D01*
X92761905Y-98976190D01*
X94238096Y-98452381D02*
X93761905Y-98452381D01*
X93714286Y-98928571D01*
X93761905Y-98880952D01*
X93857143Y-98833333D01*
X94095239Y-98833333D01*
X94190477Y-98880952D01*
X94238096Y-98928571D01*
X94285715Y-99023810D01*
X94285715Y-99261905D01*
X94238096Y-99357143D01*
X94190477Y-99404762D01*
X94095239Y-99452381D01*
X93857143Y-99452381D01*
X93761905Y-99404762D01*
X93714286Y-99357143D01*
X80833334Y-101952381D02*
X80500000Y-101476190D01*
X80261905Y-101952381D02*
X80261905Y-100952381D01*
X80642858Y-100952381D01*
X80738096Y-101000000D01*
X80785715Y-101047619D01*
X80833334Y-101142857D01*
X80833334Y-101285714D01*
X80785715Y-101380952D01*
X80738096Y-101428571D01*
X80642858Y-101476190D01*
X80261905Y-101476190D01*
X81785715Y-101952381D02*
X81214286Y-101952381D01*
X81500000Y-101952381D02*
X81500000Y-100952381D01*
X81404762Y-101095238D01*
X81309524Y-101190476D01*
X81214286Y-101238095D01*
X80833334Y-104952381D02*
X80500000Y-104476190D01*
X80261905Y-104952381D02*
X80261905Y-103952381D01*
X80642858Y-103952381D01*
X80738096Y-104000000D01*
X80785715Y-104047619D01*
X80833334Y-104142857D01*
X80833334Y-104285714D01*
X80785715Y-104380952D01*
X80738096Y-104428571D01*
X80642858Y-104476190D01*
X80261905Y-104476190D01*
X81214286Y-104047619D02*
X81261905Y-104000000D01*
X81357143Y-103952381D01*
X81595239Y-103952381D01*
X81690477Y-104000000D01*
X81738096Y-104047619D01*
X81785715Y-104142857D01*
X81785715Y-104238095D01*
X81738096Y-104380952D01*
X81166667Y-104952381D01*
X81785715Y-104952381D01*
X72583334Y-96202381D02*
X72250000Y-95726190D01*
X72011905Y-96202381D02*
X72011905Y-95202381D01*
X72392858Y-95202381D01*
X72488096Y-95250000D01*
X72535715Y-95297619D01*
X72583334Y-95392857D01*
X72583334Y-95535714D01*
X72535715Y-95630952D01*
X72488096Y-95678571D01*
X72392858Y-95726190D01*
X72011905Y-95726190D01*
X73440477Y-95535714D02*
X73440477Y-96202381D01*
X73202381Y-95154762D02*
X72964286Y-95869048D01*
X73583334Y-95869048D01*
X72077143Y-110430476D02*
X72124762Y-110478095D01*
X72172381Y-110620952D01*
X72172381Y-110716190D01*
X72124762Y-110859048D01*
X72029524Y-110954286D01*
X71934286Y-111001905D01*
X71743810Y-111049524D01*
X71600952Y-111049524D01*
X71410476Y-111001905D01*
X71315238Y-110954286D01*
X71220000Y-110859048D01*
X71172381Y-110716190D01*
X71172381Y-110620952D01*
X71220000Y-110478095D01*
X71267619Y-110430476D01*
X72172381Y-110001905D02*
X71172381Y-110001905D01*
X72172381Y-109430476D01*
X71172381Y-109430476D01*
X72172381Y-108430476D02*
X72172381Y-109001905D01*
X72172381Y-108716191D02*
X71172381Y-108716191D01*
X71315238Y-108811429D01*
X71410476Y-108906667D01*
X71458095Y-109001905D01*
X72433334Y-98802381D02*
X72100000Y-98326190D01*
X71861905Y-98802381D02*
X71861905Y-97802381D01*
X72242858Y-97802381D01*
X72338096Y-97850000D01*
X72385715Y-97897619D01*
X72433334Y-97992857D01*
X72433334Y-98135714D01*
X72385715Y-98230952D01*
X72338096Y-98278571D01*
X72242858Y-98326190D01*
X71861905Y-98326190D01*
X72766667Y-97802381D02*
X73385715Y-97802381D01*
X73052381Y-98183333D01*
X73195239Y-98183333D01*
X73290477Y-98230952D01*
X73338096Y-98278571D01*
X73385715Y-98373810D01*
X73385715Y-98611905D01*
X73338096Y-98707143D01*
X73290477Y-98754762D01*
X73195239Y-98802381D01*
X72909524Y-98802381D01*
X72814286Y-98754762D01*
X72766667Y-98707143D01*
X97261905Y-99452381D02*
X97261905Y-98452381D01*
X97500000Y-98452381D01*
X97642858Y-98500000D01*
X97738096Y-98595238D01*
X97785715Y-98690476D01*
X97833334Y-98880952D01*
X97833334Y-99023810D01*
X97785715Y-99214286D01*
X97738096Y-99309524D01*
X97642858Y-99404762D01*
X97500000Y-99452381D01*
X97261905Y-99452381D01*
X98166667Y-98452381D02*
X98785715Y-98452381D01*
X98452381Y-98833333D01*
X98595239Y-98833333D01*
X98690477Y-98880952D01*
X98738096Y-98928571D01*
X98785715Y-99023810D01*
X98785715Y-99261905D01*
X98738096Y-99357143D01*
X98690477Y-99404762D01*
X98595239Y-99452381D01*
X98309524Y-99452381D01*
X98214286Y-99404762D01*
X98166667Y-99357143D01*
X79638095Y-97752381D02*
X79638095Y-98561905D01*
X79685714Y-98657143D01*
X79733333Y-98704762D01*
X79828571Y-98752381D01*
X80019048Y-98752381D01*
X80114286Y-98704762D01*
X80161905Y-98657143D01*
X80209524Y-98561905D01*
X80209524Y-97752381D01*
X81209524Y-98752381D02*
X80638095Y-98752381D01*
X80923809Y-98752381D02*
X80923809Y-97752381D01*
X80828571Y-97895238D01*
X80733333Y-97990476D01*
X80638095Y-98038095D01*
M02*
