M48
;DRILL file {KiCad 4.0.6} date 06/24/17 22:10:58
;FORMAT={-:-/ absolute / metric / decimal}
FMAT,2
METRIC,TZ
T1C0.400
T2C1.000
T3C2.000
%
G90
G05
M71
T1
X84.5Y-113.5
X84.5Y-115.5
X86.Y-113.54
X86.Y-115.5
X87.5Y-113.5
X87.5Y-115.5
T2
X91.Y-101.
X91.Y-103.
X91.Y-105.
X91.Y-107.
X91.Y-109.
X91.Y-111.
X91.Y-113.
X91.Y-115.
X91.Y-117.
X91.Y-119.
X91.Y-121.
X93.Y-101.
X93.Y-103.
X93.Y-105.
X93.Y-107.
X93.Y-109.
X93.Y-111.
X93.Y-113.
X93.Y-115.
X93.Y-117.
X93.Y-119.
X93.Y-121.
X95.Y-101.
X95.Y-103.
X95.Y-105.
X95.Y-107.
X95.Y-109.
X95.Y-111.
X95.Y-113.
X95.Y-115.
X95.Y-117.
X95.Y-119.
X95.Y-121.
X97.Y-101.
X97.Y-103.
X97.Y-105.
X97.Y-107.
X97.Y-109.
X97.Y-111.
X97.Y-113.
X97.Y-115.
X97.Y-117.
X97.Y-119.
X97.Y-121.
X99.Y-101.
X99.Y-103.
X99.Y-105.
X99.Y-107.
X99.Y-109.
X99.Y-111.
X99.Y-113.
X99.Y-115.
X99.Y-117.
X99.Y-119.
X99.Y-121.
X101.Y-101.
X101.Y-103.
X101.Y-105.
X101.Y-107.
X101.Y-109.
X101.Y-111.
X101.Y-113.
X101.Y-115.
X101.Y-117.
X101.Y-119.
X101.Y-121.
X103.Y-101.
X103.Y-103.
X103.Y-105.
X103.Y-107.
X103.Y-109.
X103.Y-111.
X103.Y-113.
X103.Y-115.
X103.Y-117.
X103.Y-119.
X103.Y-121.
X105.Y-101.
X105.Y-103.
X105.Y-105.
X105.Y-107.
X105.Y-109.
X105.Y-111.
X105.Y-113.
X105.Y-115.
X105.Y-117.
X105.Y-119.
X105.Y-121.
X107.Y-101.
X107.Y-103.
X107.Y-105.
X107.Y-107.
X107.Y-109.
X107.Y-111.
X107.Y-113.
X107.Y-115.
X107.Y-117.
X107.Y-119.
X107.Y-121.
X109.Y-101.
X109.Y-103.
X109.Y-105.
X109.Y-107.
X109.Y-109.
X109.Y-111.
X109.Y-113.
X109.Y-115.
X109.Y-117.
X109.Y-119.
X109.Y-121.
X111.Y-101.
X111.Y-103.
X111.Y-105.
X111.Y-107.
X111.Y-109.
X111.Y-111.
X111.Y-113.
X111.Y-115.
X111.Y-117.
X111.Y-119.
X111.Y-121.
X113.Y-101.
X113.Y-103.
X113.Y-105.
X113.Y-107.
X113.Y-109.
X113.Y-111.
X113.Y-113.
X113.Y-115.
X113.Y-117.
X113.Y-119.
X113.Y-121.
T3
X70.58Y-125.
X70.58Y-130.
X70.58Y-135.
X77.59Y-125.
X77.59Y-130.
X77.59Y-135.
X82.18Y-124.9
X82.18Y-129.9
X82.18Y-134.9
X89.19Y-124.9
X89.19Y-129.9
X89.19Y-134.9
X93.58Y-125.
X93.58Y-130.
X93.58Y-135.
X100.59Y-125.
X100.59Y-130.
X100.59Y-135.
X105.08Y-125.
X105.08Y-130.
X105.08Y-135.
X112.09Y-125.
X112.09Y-130.
X112.09Y-135.
T0
M30
