%FSLAX45Y45*%
G04 Gerber Fmt 4.5, Leading zero omitted, Abs format (unit mm)*
G04 Created by KiCad (PCBNEW 4.0.6) date 06/24/17 22:10:58*
%MOMM*%
%LPD*%
G01*
G04 APERTURE LIST*
%ADD10C,0.127000*%
%ADD11C,0.150000*%
%ADD12C,0.200000*%
%ADD13C,0.300000*%
G04 APERTURE END LIST*
D10*
D11*
X11500000Y-9100000D02*
X11500000Y-13900000D01*
X6700000Y-9100000D02*
X11500000Y-9100000D01*
X6700000Y-13900000D02*
X6700000Y-9100000D01*
X6700000Y-13900000D02*
X11500000Y-13900000D01*
D12*
X8430000Y-11330000D02*
X8470000Y-11370000D01*
X8470000Y-11330000D02*
X8430000Y-11370000D01*
X8430000Y-11530000D02*
X8470000Y-11570000D01*
X8470000Y-11530000D02*
X8430000Y-11570000D01*
X8580000Y-11334000D02*
X8620000Y-11374000D01*
X8620000Y-11334000D02*
X8580000Y-11374000D01*
X8580000Y-11530000D02*
X8620000Y-11570000D01*
X8620000Y-11530000D02*
X8580000Y-11570000D01*
X8730000Y-11330000D02*
X8770000Y-11370000D01*
X8770000Y-11330000D02*
X8730000Y-11370000D01*
X8730000Y-11530000D02*
X8770000Y-11570000D01*
X8770000Y-11530000D02*
X8730000Y-11570000D01*
X9150000Y-10100000D02*
G75*
G03X9150000Y-10100000I-50000J0D01*
G01*
X9150000Y-10300000D02*
G75*
G03X9150000Y-10300000I-50000J0D01*
G01*
X9150000Y-10500000D02*
G75*
G03X9150000Y-10500000I-50000J0D01*
G01*
X9150000Y-10700000D02*
G75*
G03X9150000Y-10700000I-50000J0D01*
G01*
X9150000Y-10900000D02*
G75*
G03X9150000Y-10900000I-50000J0D01*
G01*
X9150000Y-11100000D02*
G75*
G03X9150000Y-11100000I-50000J0D01*
G01*
X9150000Y-11300000D02*
G75*
G03X9150000Y-11300000I-50000J0D01*
G01*
X9150000Y-11500000D02*
G75*
G03X9150000Y-11500000I-50000J0D01*
G01*
X9150000Y-11700000D02*
G75*
G03X9150000Y-11700000I-50000J0D01*
G01*
X9150000Y-11900000D02*
G75*
G03X9150000Y-11900000I-50000J0D01*
G01*
X9150000Y-12100000D02*
G75*
G03X9150000Y-12100000I-50000J0D01*
G01*
X9350000Y-10100000D02*
G75*
G03X9350000Y-10100000I-50000J0D01*
G01*
X9350000Y-10300000D02*
G75*
G03X9350000Y-10300000I-50000J0D01*
G01*
X9350000Y-10500000D02*
G75*
G03X9350000Y-10500000I-50000J0D01*
G01*
X9350000Y-10700000D02*
G75*
G03X9350000Y-10700000I-50000J0D01*
G01*
X9350000Y-10900000D02*
G75*
G03X9350000Y-10900000I-50000J0D01*
G01*
X9350000Y-11100000D02*
G75*
G03X9350000Y-11100000I-50000J0D01*
G01*
X9350000Y-11300000D02*
G75*
G03X9350000Y-11300000I-50000J0D01*
G01*
X9350000Y-11500000D02*
G75*
G03X9350000Y-11500000I-50000J0D01*
G01*
X9350000Y-11700000D02*
G75*
G03X9350000Y-11700000I-50000J0D01*
G01*
X9350000Y-11900000D02*
G75*
G03X9350000Y-11900000I-50000J0D01*
G01*
X9350000Y-12100000D02*
G75*
G03X9350000Y-12100000I-50000J0D01*
G01*
X9550000Y-10100000D02*
G75*
G03X9550000Y-10100000I-50000J0D01*
G01*
X9550000Y-10300000D02*
G75*
G03X9550000Y-10300000I-50000J0D01*
G01*
X9550000Y-10500000D02*
G75*
G03X9550000Y-10500000I-50000J0D01*
G01*
X9550000Y-10700000D02*
G75*
G03X9550000Y-10700000I-50000J0D01*
G01*
X9550000Y-10900000D02*
G75*
G03X9550000Y-10900000I-50000J0D01*
G01*
X9550000Y-11100000D02*
G75*
G03X9550000Y-11100000I-50000J0D01*
G01*
X9550000Y-11300000D02*
G75*
G03X9550000Y-11300000I-50000J0D01*
G01*
X9550000Y-11500000D02*
G75*
G03X9550000Y-11500000I-50000J0D01*
G01*
X9550000Y-11700000D02*
G75*
G03X9550000Y-11700000I-50000J0D01*
G01*
X9550000Y-11900000D02*
G75*
G03X9550000Y-11900000I-50000J0D01*
G01*
X9550000Y-12100000D02*
G75*
G03X9550000Y-12100000I-50000J0D01*
G01*
X9750000Y-10100000D02*
G75*
G03X9750000Y-10100000I-50000J0D01*
G01*
X9750000Y-10300000D02*
G75*
G03X9750000Y-10300000I-50000J0D01*
G01*
X9750000Y-10500000D02*
G75*
G03X9750000Y-10500000I-50000J0D01*
G01*
X9750000Y-10700000D02*
G75*
G03X9750000Y-10700000I-50000J0D01*
G01*
X9750000Y-10900000D02*
G75*
G03X9750000Y-10900000I-50000J0D01*
G01*
X9750000Y-11100000D02*
G75*
G03X9750000Y-11100000I-50000J0D01*
G01*
X9750000Y-11300000D02*
G75*
G03X9750000Y-11300000I-50000J0D01*
G01*
X9750000Y-11500000D02*
G75*
G03X9750000Y-11500000I-50000J0D01*
G01*
X9750000Y-11700000D02*
G75*
G03X9750000Y-11700000I-50000J0D01*
G01*
X9750000Y-11900000D02*
G75*
G03X9750000Y-11900000I-50000J0D01*
G01*
X9750000Y-12100000D02*
G75*
G03X9750000Y-12100000I-50000J0D01*
G01*
X9950000Y-10100000D02*
G75*
G03X9950000Y-10100000I-50000J0D01*
G01*
X9950000Y-10300000D02*
G75*
G03X9950000Y-10300000I-50000J0D01*
G01*
X9950000Y-10500000D02*
G75*
G03X9950000Y-10500000I-50000J0D01*
G01*
X9950000Y-10700000D02*
G75*
G03X9950000Y-10700000I-50000J0D01*
G01*
X9950000Y-10900000D02*
G75*
G03X9950000Y-10900000I-50000J0D01*
G01*
X9950000Y-11100000D02*
G75*
G03X9950000Y-11100000I-50000J0D01*
G01*
X9950000Y-11300000D02*
G75*
G03X9950000Y-11300000I-50000J0D01*
G01*
X9950000Y-11500000D02*
G75*
G03X9950000Y-11500000I-50000J0D01*
G01*
X9950000Y-11700000D02*
G75*
G03X9950000Y-11700000I-50000J0D01*
G01*
X9950000Y-11900000D02*
G75*
G03X9950000Y-11900000I-50000J0D01*
G01*
X9950000Y-12100000D02*
G75*
G03X9950000Y-12100000I-50000J0D01*
G01*
X10150000Y-10100000D02*
G75*
G03X10150000Y-10100000I-50000J0D01*
G01*
X10150000Y-10300000D02*
G75*
G03X10150000Y-10300000I-50000J0D01*
G01*
X10150000Y-10500000D02*
G75*
G03X10150000Y-10500000I-50000J0D01*
G01*
X10150000Y-10700000D02*
G75*
G03X10150000Y-10700000I-50000J0D01*
G01*
X10150000Y-10900000D02*
G75*
G03X10150000Y-10900000I-50000J0D01*
G01*
X10150000Y-11100000D02*
G75*
G03X10150000Y-11100000I-50000J0D01*
G01*
X10150000Y-11300000D02*
G75*
G03X10150000Y-11300000I-50000J0D01*
G01*
X10150000Y-11500000D02*
G75*
G03X10150000Y-11500000I-50000J0D01*
G01*
X10150000Y-11700000D02*
G75*
G03X10150000Y-11700000I-50000J0D01*
G01*
X10150000Y-11900000D02*
G75*
G03X10150000Y-11900000I-50000J0D01*
G01*
X10150000Y-12100000D02*
G75*
G03X10150000Y-12100000I-50000J0D01*
G01*
X10350000Y-10100000D02*
G75*
G03X10350000Y-10100000I-50000J0D01*
G01*
X10350000Y-10300000D02*
G75*
G03X10350000Y-10300000I-50000J0D01*
G01*
X10350000Y-10500000D02*
G75*
G03X10350000Y-10500000I-50000J0D01*
G01*
X10350000Y-10700000D02*
G75*
G03X10350000Y-10700000I-50000J0D01*
G01*
X10350000Y-10900000D02*
G75*
G03X10350000Y-10900000I-50000J0D01*
G01*
X10350000Y-11100000D02*
G75*
G03X10350000Y-11100000I-50000J0D01*
G01*
X10350000Y-11300000D02*
G75*
G03X10350000Y-11300000I-50000J0D01*
G01*
X10350000Y-11500000D02*
G75*
G03X10350000Y-11500000I-50000J0D01*
G01*
X10350000Y-11700000D02*
G75*
G03X10350000Y-11700000I-50000J0D01*
G01*
X10350000Y-11900000D02*
G75*
G03X10350000Y-11900000I-50000J0D01*
G01*
X10350000Y-12100000D02*
G75*
G03X10350000Y-12100000I-50000J0D01*
G01*
X10550000Y-10100000D02*
G75*
G03X10550000Y-10100000I-50000J0D01*
G01*
X10550000Y-10300000D02*
G75*
G03X10550000Y-10300000I-50000J0D01*
G01*
X10550000Y-10500000D02*
G75*
G03X10550000Y-10500000I-50000J0D01*
G01*
X10550000Y-10700000D02*
G75*
G03X10550000Y-10700000I-50000J0D01*
G01*
X10550000Y-10900000D02*
G75*
G03X10550000Y-10900000I-50000J0D01*
G01*
X10550000Y-11100000D02*
G75*
G03X10550000Y-11100000I-50000J0D01*
G01*
X10550000Y-11300000D02*
G75*
G03X10550000Y-11300000I-50000J0D01*
G01*
X10550000Y-11500000D02*
G75*
G03X10550000Y-11500000I-50000J0D01*
G01*
X10550000Y-11700000D02*
G75*
G03X10550000Y-11700000I-50000J0D01*
G01*
X10550000Y-11900000D02*
G75*
G03X10550000Y-11900000I-50000J0D01*
G01*
X10550000Y-12100000D02*
G75*
G03X10550000Y-12100000I-50000J0D01*
G01*
X10750000Y-10100000D02*
G75*
G03X10750000Y-10100000I-50000J0D01*
G01*
X10750000Y-10300000D02*
G75*
G03X10750000Y-10300000I-50000J0D01*
G01*
X10750000Y-10500000D02*
G75*
G03X10750000Y-10500000I-50000J0D01*
G01*
X10750000Y-10700000D02*
G75*
G03X10750000Y-10700000I-50000J0D01*
G01*
X10750000Y-10900000D02*
G75*
G03X10750000Y-10900000I-50000J0D01*
G01*
X10750000Y-11100000D02*
G75*
G03X10750000Y-11100000I-50000J0D01*
G01*
X10750000Y-11300000D02*
G75*
G03X10750000Y-11300000I-50000J0D01*
G01*
X10750000Y-11500000D02*
G75*
G03X10750000Y-11500000I-50000J0D01*
G01*
X10750000Y-11700000D02*
G75*
G03X10750000Y-11700000I-50000J0D01*
G01*
X10750000Y-11900000D02*
G75*
G03X10750000Y-11900000I-50000J0D01*
G01*
X10750000Y-12100000D02*
G75*
G03X10750000Y-12100000I-50000J0D01*
G01*
X10950000Y-10100000D02*
G75*
G03X10950000Y-10100000I-50000J0D01*
G01*
X10950000Y-10300000D02*
G75*
G03X10950000Y-10300000I-50000J0D01*
G01*
X10950000Y-10500000D02*
G75*
G03X10950000Y-10500000I-50000J0D01*
G01*
X10950000Y-10700000D02*
G75*
G03X10950000Y-10700000I-50000J0D01*
G01*
X10950000Y-10900000D02*
G75*
G03X10950000Y-10900000I-50000J0D01*
G01*
X10950000Y-11100000D02*
G75*
G03X10950000Y-11100000I-50000J0D01*
G01*
X10950000Y-11300000D02*
G75*
G03X10950000Y-11300000I-50000J0D01*
G01*
X10950000Y-11500000D02*
G75*
G03X10950000Y-11500000I-50000J0D01*
G01*
X10950000Y-11700000D02*
G75*
G03X10950000Y-11700000I-50000J0D01*
G01*
X10950000Y-11900000D02*
G75*
G03X10950000Y-11900000I-50000J0D01*
G01*
X10950000Y-12100000D02*
G75*
G03X10950000Y-12100000I-50000J0D01*
G01*
X11150000Y-10100000D02*
G75*
G03X11150000Y-10100000I-50000J0D01*
G01*
X11150000Y-10300000D02*
G75*
G03X11150000Y-10300000I-50000J0D01*
G01*
X11150000Y-10500000D02*
G75*
G03X11150000Y-10500000I-50000J0D01*
G01*
X11150000Y-10700000D02*
G75*
G03X11150000Y-10700000I-50000J0D01*
G01*
X11150000Y-10900000D02*
G75*
G03X11150000Y-10900000I-50000J0D01*
G01*
X11150000Y-11100000D02*
G75*
G03X11150000Y-11100000I-50000J0D01*
G01*
X11150000Y-11300000D02*
G75*
G03X11150000Y-11300000I-50000J0D01*
G01*
X11150000Y-11500000D02*
G75*
G03X11150000Y-11500000I-50000J0D01*
G01*
X11150000Y-11700000D02*
G75*
G03X11150000Y-11700000I-50000J0D01*
G01*
X11150000Y-11900000D02*
G75*
G03X11150000Y-11900000I-50000J0D01*
G01*
X11150000Y-12100000D02*
G75*
G03X11150000Y-12100000I-50000J0D01*
G01*
X11350000Y-10100000D02*
G75*
G03X11350000Y-10100000I-50000J0D01*
G01*
X11350000Y-10300000D02*
G75*
G03X11350000Y-10300000I-50000J0D01*
G01*
X11350000Y-10500000D02*
G75*
G03X11350000Y-10500000I-50000J0D01*
G01*
X11350000Y-10700000D02*
G75*
G03X11350000Y-10700000I-50000J0D01*
G01*
X11350000Y-10900000D02*
G75*
G03X11350000Y-10900000I-50000J0D01*
G01*
X11350000Y-11100000D02*
G75*
G03X11350000Y-11100000I-50000J0D01*
G01*
X11350000Y-11300000D02*
G75*
G03X11350000Y-11300000I-50000J0D01*
G01*
X11350000Y-11500000D02*
G75*
G03X11350000Y-11500000I-50000J0D01*
G01*
X11350000Y-11700000D02*
G75*
G03X11350000Y-11700000I-50000J0D01*
G01*
X11350000Y-11900000D02*
G75*
G03X11350000Y-11900000I-50000J0D01*
G01*
X11350000Y-12100000D02*
G75*
G03X11350000Y-12100000I-50000J0D01*
G01*
X7058000Y-12400000D02*
X7058000Y-12600000D01*
X6958000Y-12500000D02*
X7158000Y-12500000D01*
X7058000Y-12900000D02*
X7058000Y-13100000D01*
X6958000Y-13000000D02*
X7158000Y-13000000D01*
X7058000Y-13400000D02*
X7058000Y-13600000D01*
X6958000Y-13500000D02*
X7158000Y-13500000D01*
X7759000Y-12400000D02*
X7759000Y-12600000D01*
X7659000Y-12500000D02*
X7859000Y-12500000D01*
X7759000Y-12900000D02*
X7759000Y-13100000D01*
X7659000Y-13000000D02*
X7859000Y-13000000D01*
X7759000Y-13400000D02*
X7759000Y-13600000D01*
X7659000Y-13500000D02*
X7859000Y-13500000D01*
X8218000Y-12390000D02*
X8218000Y-12590000D01*
X8118000Y-12490000D02*
X8318000Y-12490000D01*
X8218000Y-12890000D02*
X8218000Y-13090000D01*
X8118000Y-12990000D02*
X8318000Y-12990000D01*
X8218000Y-13390000D02*
X8218000Y-13590000D01*
X8118000Y-13490000D02*
X8318000Y-13490000D01*
X8919000Y-12390000D02*
X8919000Y-12590000D01*
X8819000Y-12490000D02*
X9019000Y-12490000D01*
X8919000Y-12890000D02*
X8919000Y-13090000D01*
X8819000Y-12990000D02*
X9019000Y-12990000D01*
X8919000Y-13390000D02*
X8919000Y-13590000D01*
X8819000Y-13490000D02*
X9019000Y-13490000D01*
X9358000Y-12400000D02*
X9358000Y-12600000D01*
X9258000Y-12500000D02*
X9458000Y-12500000D01*
X9358000Y-12900000D02*
X9358000Y-13100000D01*
X9258000Y-13000000D02*
X9458000Y-13000000D01*
X9358000Y-13400000D02*
X9358000Y-13600000D01*
X9258000Y-13500000D02*
X9458000Y-13500000D01*
X10059000Y-12400000D02*
X10059000Y-12600000D01*
X9959000Y-12500000D02*
X10159000Y-12500000D01*
X10059000Y-12900000D02*
X10059000Y-13100000D01*
X9959000Y-13000000D02*
X10159000Y-13000000D01*
X10059000Y-13400000D02*
X10059000Y-13600000D01*
X9959000Y-13500000D02*
X10159000Y-13500000D01*
X10508000Y-12400000D02*
X10508000Y-12600000D01*
X10408000Y-12500000D02*
X10608000Y-12500000D01*
X10508000Y-12900000D02*
X10508000Y-13100000D01*
X10408000Y-13000000D02*
X10608000Y-13000000D01*
X10508000Y-13400000D02*
X10508000Y-13600000D01*
X10408000Y-13500000D02*
X10608000Y-13500000D01*
X11209000Y-12400000D02*
X11209000Y-12600000D01*
X11109000Y-12500000D02*
X11309000Y-12500000D01*
X11209000Y-12900000D02*
X11209000Y-13100000D01*
X11109000Y-13000000D02*
X11309000Y-13000000D01*
X11209000Y-13400000D02*
X11209000Y-13600000D01*
X11109000Y-13500000D02*
X11309000Y-13500000D01*
D13*
X6963928Y-14373214D02*
X6963928Y-14073214D01*
X7035357Y-14073214D01*
X7078214Y-14087500D01*
X7106786Y-14116071D01*
X7121071Y-14144643D01*
X7135357Y-14201786D01*
X7135357Y-14244643D01*
X7121071Y-14301786D01*
X7106786Y-14330357D01*
X7078214Y-14358929D01*
X7035357Y-14373214D01*
X6963928Y-14373214D01*
X7263928Y-14373214D02*
X7263928Y-14173214D01*
X7263928Y-14230357D02*
X7278214Y-14201786D01*
X7292500Y-14187500D01*
X7321071Y-14173214D01*
X7349643Y-14173214D01*
X7449643Y-14373214D02*
X7449643Y-14173214D01*
X7449643Y-14073214D02*
X7435357Y-14087500D01*
X7449643Y-14101786D01*
X7463928Y-14087500D01*
X7449643Y-14073214D01*
X7449643Y-14101786D01*
X7635357Y-14373214D02*
X7606786Y-14358929D01*
X7592500Y-14330357D01*
X7592500Y-14073214D01*
X7792500Y-14373214D02*
X7763928Y-14358929D01*
X7749643Y-14330357D01*
X7749643Y-14073214D01*
X8135357Y-14373214D02*
X8135357Y-14073214D01*
X8235357Y-14287500D01*
X8335357Y-14073214D01*
X8335357Y-14373214D01*
X8606786Y-14373214D02*
X8606786Y-14216071D01*
X8592500Y-14187500D01*
X8563929Y-14173214D01*
X8506786Y-14173214D01*
X8478214Y-14187500D01*
X8606786Y-14358929D02*
X8578214Y-14373214D01*
X8506786Y-14373214D01*
X8478214Y-14358929D01*
X8463929Y-14330357D01*
X8463929Y-14301786D01*
X8478214Y-14273214D01*
X8506786Y-14258929D01*
X8578214Y-14258929D01*
X8606786Y-14244643D01*
X8749643Y-14173214D02*
X8749643Y-14473214D01*
X8749643Y-14187500D02*
X8778214Y-14173214D01*
X8835357Y-14173214D01*
X8863929Y-14187500D01*
X8878214Y-14201786D01*
X8892500Y-14230357D01*
X8892500Y-14316071D01*
X8878214Y-14344643D01*
X8863929Y-14358929D01*
X8835357Y-14373214D01*
X8778214Y-14373214D01*
X8749643Y-14358929D01*
X9021071Y-14344643D02*
X9035357Y-14358929D01*
X9021071Y-14373214D01*
X9006786Y-14358929D01*
X9021071Y-14344643D01*
X9021071Y-14373214D01*
X9021071Y-14187500D02*
X9035357Y-14201786D01*
X9021071Y-14216071D01*
X9006786Y-14201786D01*
X9021071Y-14187500D01*
X9021071Y-14216071D01*
X6652500Y-14847500D02*
X6692500Y-14887500D01*
X6692500Y-14847500D02*
X6652500Y-14887500D01*
X7021071Y-14703214D02*
X7049643Y-14703214D01*
X7078214Y-14717500D01*
X7092500Y-14731786D01*
X7106786Y-14760357D01*
X7121071Y-14817500D01*
X7121071Y-14888929D01*
X7106786Y-14946071D01*
X7092500Y-14974643D01*
X7078214Y-14988929D01*
X7049643Y-15003214D01*
X7021071Y-15003214D01*
X6992500Y-14988929D01*
X6978214Y-14974643D01*
X6963928Y-14946071D01*
X6949643Y-14888929D01*
X6949643Y-14817500D01*
X6963928Y-14760357D01*
X6978214Y-14731786D01*
X6992500Y-14717500D01*
X7021071Y-14703214D01*
X7249643Y-14974643D02*
X7263928Y-14988929D01*
X7249643Y-15003214D01*
X7235357Y-14988929D01*
X7249643Y-14974643D01*
X7249643Y-15003214D01*
X7521071Y-14803214D02*
X7521071Y-15003214D01*
X7449643Y-14688929D02*
X7378214Y-14903214D01*
X7563928Y-14903214D01*
X7735357Y-14703214D02*
X7763928Y-14703214D01*
X7792500Y-14717500D01*
X7806786Y-14731786D01*
X7821071Y-14760357D01*
X7835357Y-14817500D01*
X7835357Y-14888929D01*
X7821071Y-14946071D01*
X7806786Y-14974643D01*
X7792500Y-14988929D01*
X7763928Y-15003214D01*
X7735357Y-15003214D01*
X7706786Y-14988929D01*
X7692500Y-14974643D01*
X7678214Y-14946071D01*
X7663928Y-14888929D01*
X7663928Y-14817500D01*
X7678214Y-14760357D01*
X7692500Y-14731786D01*
X7706786Y-14717500D01*
X7735357Y-14703214D01*
X7963928Y-15003214D02*
X7963928Y-14803214D01*
X7963928Y-14831786D02*
X7978214Y-14817500D01*
X8006786Y-14803214D01*
X8049643Y-14803214D01*
X8078214Y-14817500D01*
X8092500Y-14846071D01*
X8092500Y-15003214D01*
X8092500Y-14846071D02*
X8106786Y-14817500D01*
X8135357Y-14803214D01*
X8178214Y-14803214D01*
X8206786Y-14817500D01*
X8221071Y-14846071D01*
X8221071Y-15003214D01*
X8363928Y-15003214D02*
X8363928Y-14803214D01*
X8363928Y-14831786D02*
X8378214Y-14817500D01*
X8406786Y-14803214D01*
X8449643Y-14803214D01*
X8478214Y-14817500D01*
X8492500Y-14846071D01*
X8492500Y-15003214D01*
X8492500Y-14846071D02*
X8506786Y-14817500D01*
X8535357Y-14803214D01*
X8578214Y-14803214D01*
X8606786Y-14817500D01*
X8621071Y-14846071D01*
X8621071Y-15003214D01*
X9206786Y-14688929D02*
X8949643Y-15074643D01*
X9592500Y-14703214D02*
X9621071Y-14703214D01*
X9649643Y-14717500D01*
X9663928Y-14731786D01*
X9678214Y-14760357D01*
X9692500Y-14817500D01*
X9692500Y-14888929D01*
X9678214Y-14946071D01*
X9663928Y-14974643D01*
X9649643Y-14988929D01*
X9621071Y-15003214D01*
X9592500Y-15003214D01*
X9563928Y-14988929D01*
X9549643Y-14974643D01*
X9535357Y-14946071D01*
X9521071Y-14888929D01*
X9521071Y-14817500D01*
X9535357Y-14760357D01*
X9549643Y-14731786D01*
X9563928Y-14717500D01*
X9592500Y-14703214D01*
X9821071Y-14974643D02*
X9835357Y-14988929D01*
X9821071Y-15003214D01*
X9806786Y-14988929D01*
X9821071Y-14974643D01*
X9821071Y-15003214D01*
X10021071Y-14703214D02*
X10049643Y-14703214D01*
X10078214Y-14717500D01*
X10092500Y-14731786D01*
X10106786Y-14760357D01*
X10121071Y-14817500D01*
X10121071Y-14888929D01*
X10106786Y-14946071D01*
X10092500Y-14974643D01*
X10078214Y-14988929D01*
X10049643Y-15003214D01*
X10021071Y-15003214D01*
X9992500Y-14988929D01*
X9978214Y-14974643D01*
X9963928Y-14946071D01*
X9949643Y-14888929D01*
X9949643Y-14817500D01*
X9963928Y-14760357D01*
X9978214Y-14731786D01*
X9992500Y-14717500D01*
X10021071Y-14703214D01*
X10406786Y-15003214D02*
X10235357Y-15003214D01*
X10321071Y-15003214D02*
X10321071Y-14703214D01*
X10292500Y-14746071D01*
X10263928Y-14774643D01*
X10235357Y-14788929D01*
X10663928Y-14703214D02*
X10606786Y-14703214D01*
X10578214Y-14717500D01*
X10563928Y-14731786D01*
X10535357Y-14774643D01*
X10521071Y-14831786D01*
X10521071Y-14946071D01*
X10535357Y-14974643D01*
X10549643Y-14988929D01*
X10578214Y-15003214D01*
X10635357Y-15003214D01*
X10663928Y-14988929D01*
X10678214Y-14974643D01*
X10692500Y-14946071D01*
X10692500Y-14874643D01*
X10678214Y-14846071D01*
X10663928Y-14831786D01*
X10635357Y-14817500D01*
X10578214Y-14817500D01*
X10549643Y-14831786D01*
X10535357Y-14846071D01*
X10521071Y-14874643D01*
X10806786Y-14703214D02*
X10806786Y-14760357D01*
X10921071Y-14703214D02*
X10921071Y-14760357D01*
X11363928Y-15117500D02*
X11349643Y-15103214D01*
X11321071Y-15060357D01*
X11306785Y-15031786D01*
X11292500Y-14988929D01*
X11278214Y-14917500D01*
X11278214Y-14860357D01*
X11292500Y-14788929D01*
X11306785Y-14746071D01*
X11321071Y-14717500D01*
X11349643Y-14674643D01*
X11363928Y-14660357D01*
X11606785Y-14703214D02*
X11549643Y-14703214D01*
X11521071Y-14717500D01*
X11506785Y-14731786D01*
X11478214Y-14774643D01*
X11463928Y-14831786D01*
X11463928Y-14946071D01*
X11478214Y-14974643D01*
X11492500Y-14988929D01*
X11521071Y-15003214D01*
X11578214Y-15003214D01*
X11606785Y-14988929D01*
X11621071Y-14974643D01*
X11635357Y-14946071D01*
X11635357Y-14874643D01*
X11621071Y-14846071D01*
X11606785Y-14831786D01*
X11578214Y-14817500D01*
X11521071Y-14817500D01*
X11492500Y-14831786D01*
X11478214Y-14846071D01*
X11463928Y-14874643D01*
X11992500Y-15003214D02*
X11992500Y-14703214D01*
X12121071Y-15003214D02*
X12121071Y-14846071D01*
X12106785Y-14817500D01*
X12078214Y-14803214D01*
X12035357Y-14803214D01*
X12006785Y-14817500D01*
X11992500Y-14831786D01*
X12306785Y-15003214D02*
X12278214Y-14988929D01*
X12263928Y-14974643D01*
X12249643Y-14946071D01*
X12249643Y-14860357D01*
X12263928Y-14831786D01*
X12278214Y-14817500D01*
X12306785Y-14803214D01*
X12349643Y-14803214D01*
X12378214Y-14817500D01*
X12392500Y-14831786D01*
X12406785Y-14860357D01*
X12406785Y-14946071D01*
X12392500Y-14974643D01*
X12378214Y-14988929D01*
X12349643Y-15003214D01*
X12306785Y-15003214D01*
X12578214Y-15003214D02*
X12549643Y-14988929D01*
X12535357Y-14960357D01*
X12535357Y-14703214D01*
X12806786Y-14988929D02*
X12778214Y-15003214D01*
X12721071Y-15003214D01*
X12692500Y-14988929D01*
X12678214Y-14960357D01*
X12678214Y-14846071D01*
X12692500Y-14817500D01*
X12721071Y-14803214D01*
X12778214Y-14803214D01*
X12806786Y-14817500D01*
X12821071Y-14846071D01*
X12821071Y-14874643D01*
X12678214Y-14903214D01*
X12935357Y-14988929D02*
X12963928Y-15003214D01*
X13021071Y-15003214D01*
X13049643Y-14988929D01*
X13063928Y-14960357D01*
X13063928Y-14946071D01*
X13049643Y-14917500D01*
X13021071Y-14903214D01*
X12978214Y-14903214D01*
X12949643Y-14888929D01*
X12935357Y-14860357D01*
X12935357Y-14846071D01*
X12949643Y-14817500D01*
X12978214Y-14803214D01*
X13021071Y-14803214D01*
X13049643Y-14817500D01*
X13163928Y-15117500D02*
X13178214Y-15103214D01*
X13206786Y-15060357D01*
X13221071Y-15031786D01*
X13235357Y-14988929D01*
X13249643Y-14917500D01*
X13249643Y-14860357D01*
X13235357Y-14788929D01*
X13221071Y-14746071D01*
X13206786Y-14717500D01*
X13178214Y-14674643D01*
X13163928Y-14660357D01*
X6692500Y-15263500D02*
G75*
G03X6692500Y-15263500I-50000J0D01*
G01*
X7121071Y-15399214D02*
X6949643Y-15399214D01*
X7035357Y-15399214D02*
X7035357Y-15099214D01*
X7006786Y-15142071D01*
X6978214Y-15170643D01*
X6949643Y-15184929D01*
X7249643Y-15370643D02*
X7263928Y-15384929D01*
X7249643Y-15399214D01*
X7235357Y-15384929D01*
X7249643Y-15370643D01*
X7249643Y-15399214D01*
X7449643Y-15099214D02*
X7478214Y-15099214D01*
X7506786Y-15113500D01*
X7521071Y-15127786D01*
X7535357Y-15156357D01*
X7549643Y-15213500D01*
X7549643Y-15284929D01*
X7535357Y-15342071D01*
X7521071Y-15370643D01*
X7506786Y-15384929D01*
X7478214Y-15399214D01*
X7449643Y-15399214D01*
X7421071Y-15384929D01*
X7406786Y-15370643D01*
X7392500Y-15342071D01*
X7378214Y-15284929D01*
X7378214Y-15213500D01*
X7392500Y-15156357D01*
X7406786Y-15127786D01*
X7421071Y-15113500D01*
X7449643Y-15099214D01*
X7735357Y-15099214D02*
X7763928Y-15099214D01*
X7792500Y-15113500D01*
X7806786Y-15127786D01*
X7821071Y-15156357D01*
X7835357Y-15213500D01*
X7835357Y-15284929D01*
X7821071Y-15342071D01*
X7806786Y-15370643D01*
X7792500Y-15384929D01*
X7763928Y-15399214D01*
X7735357Y-15399214D01*
X7706786Y-15384929D01*
X7692500Y-15370643D01*
X7678214Y-15342071D01*
X7663928Y-15284929D01*
X7663928Y-15213500D01*
X7678214Y-15156357D01*
X7692500Y-15127786D01*
X7706786Y-15113500D01*
X7735357Y-15099214D01*
X7963928Y-15399214D02*
X7963928Y-15199214D01*
X7963928Y-15227786D02*
X7978214Y-15213500D01*
X8006786Y-15199214D01*
X8049643Y-15199214D01*
X8078214Y-15213500D01*
X8092500Y-15242071D01*
X8092500Y-15399214D01*
X8092500Y-15242071D02*
X8106786Y-15213500D01*
X8135357Y-15199214D01*
X8178214Y-15199214D01*
X8206786Y-15213500D01*
X8221071Y-15242071D01*
X8221071Y-15399214D01*
X8363928Y-15399214D02*
X8363928Y-15199214D01*
X8363928Y-15227786D02*
X8378214Y-15213500D01*
X8406786Y-15199214D01*
X8449643Y-15199214D01*
X8478214Y-15213500D01*
X8492500Y-15242071D01*
X8492500Y-15399214D01*
X8492500Y-15242071D02*
X8506786Y-15213500D01*
X8535357Y-15199214D01*
X8578214Y-15199214D01*
X8606786Y-15213500D01*
X8621071Y-15242071D01*
X8621071Y-15399214D01*
X9206786Y-15084929D02*
X8949643Y-15470643D01*
X9592500Y-15099214D02*
X9621071Y-15099214D01*
X9649643Y-15113500D01*
X9663928Y-15127786D01*
X9678214Y-15156357D01*
X9692500Y-15213500D01*
X9692500Y-15284929D01*
X9678214Y-15342071D01*
X9663928Y-15370643D01*
X9649643Y-15384929D01*
X9621071Y-15399214D01*
X9592500Y-15399214D01*
X9563928Y-15384929D01*
X9549643Y-15370643D01*
X9535357Y-15342071D01*
X9521071Y-15284929D01*
X9521071Y-15213500D01*
X9535357Y-15156357D01*
X9549643Y-15127786D01*
X9563928Y-15113500D01*
X9592500Y-15099214D01*
X9821071Y-15370643D02*
X9835357Y-15384929D01*
X9821071Y-15399214D01*
X9806786Y-15384929D01*
X9821071Y-15370643D01*
X9821071Y-15399214D01*
X10021071Y-15099214D02*
X10049643Y-15099214D01*
X10078214Y-15113500D01*
X10092500Y-15127786D01*
X10106786Y-15156357D01*
X10121071Y-15213500D01*
X10121071Y-15284929D01*
X10106786Y-15342071D01*
X10092500Y-15370643D01*
X10078214Y-15384929D01*
X10049643Y-15399214D01*
X10021071Y-15399214D01*
X9992500Y-15384929D01*
X9978214Y-15370643D01*
X9963928Y-15342071D01*
X9949643Y-15284929D01*
X9949643Y-15213500D01*
X9963928Y-15156357D01*
X9978214Y-15127786D01*
X9992500Y-15113500D01*
X10021071Y-15099214D01*
X10221071Y-15099214D02*
X10406786Y-15099214D01*
X10306786Y-15213500D01*
X10349643Y-15213500D01*
X10378214Y-15227786D01*
X10392500Y-15242071D01*
X10406786Y-15270643D01*
X10406786Y-15342071D01*
X10392500Y-15370643D01*
X10378214Y-15384929D01*
X10349643Y-15399214D01*
X10263928Y-15399214D01*
X10235357Y-15384929D01*
X10221071Y-15370643D01*
X10549643Y-15399214D02*
X10606786Y-15399214D01*
X10635357Y-15384929D01*
X10649643Y-15370643D01*
X10678214Y-15327786D01*
X10692500Y-15270643D01*
X10692500Y-15156357D01*
X10678214Y-15127786D01*
X10663928Y-15113500D01*
X10635357Y-15099214D01*
X10578214Y-15099214D01*
X10549643Y-15113500D01*
X10535357Y-15127786D01*
X10521071Y-15156357D01*
X10521071Y-15227786D01*
X10535357Y-15256357D01*
X10549643Y-15270643D01*
X10578214Y-15284929D01*
X10635357Y-15284929D01*
X10663928Y-15270643D01*
X10678214Y-15256357D01*
X10692500Y-15227786D01*
X10806786Y-15099214D02*
X10806786Y-15156357D01*
X10921071Y-15099214D02*
X10921071Y-15156357D01*
X11363928Y-15513500D02*
X11349643Y-15499214D01*
X11321071Y-15456357D01*
X11306785Y-15427786D01*
X11292500Y-15384929D01*
X11278214Y-15313500D01*
X11278214Y-15256357D01*
X11292500Y-15184929D01*
X11306785Y-15142071D01*
X11321071Y-15113500D01*
X11349643Y-15070643D01*
X11363928Y-15056357D01*
X11635357Y-15399214D02*
X11463928Y-15399214D01*
X11549643Y-15399214D02*
X11549643Y-15099214D01*
X11521071Y-15142071D01*
X11492500Y-15170643D01*
X11463928Y-15184929D01*
X11735357Y-15099214D02*
X11921071Y-15099214D01*
X11821071Y-15213500D01*
X11863928Y-15213500D01*
X11892500Y-15227786D01*
X11906785Y-15242071D01*
X11921071Y-15270643D01*
X11921071Y-15342071D01*
X11906785Y-15370643D01*
X11892500Y-15384929D01*
X11863928Y-15399214D01*
X11778214Y-15399214D01*
X11749643Y-15384929D01*
X11735357Y-15370643D01*
X12035357Y-15127786D02*
X12049643Y-15113500D01*
X12078214Y-15099214D01*
X12149643Y-15099214D01*
X12178214Y-15113500D01*
X12192500Y-15127786D01*
X12206785Y-15156357D01*
X12206785Y-15184929D01*
X12192500Y-15227786D01*
X12021071Y-15399214D01*
X12206785Y-15399214D01*
X12563928Y-15399214D02*
X12563928Y-15099214D01*
X12692500Y-15399214D02*
X12692500Y-15242071D01*
X12678214Y-15213500D01*
X12649643Y-15199214D01*
X12606785Y-15199214D01*
X12578214Y-15213500D01*
X12563928Y-15227786D01*
X12878214Y-15399214D02*
X12849643Y-15384929D01*
X12835357Y-15370643D01*
X12821071Y-15342071D01*
X12821071Y-15256357D01*
X12835357Y-15227786D01*
X12849643Y-15213500D01*
X12878214Y-15199214D01*
X12921071Y-15199214D01*
X12949643Y-15213500D01*
X12963928Y-15227786D01*
X12978214Y-15256357D01*
X12978214Y-15342071D01*
X12963928Y-15370643D01*
X12949643Y-15384929D01*
X12921071Y-15399214D01*
X12878214Y-15399214D01*
X13149643Y-15399214D02*
X13121071Y-15384929D01*
X13106786Y-15356357D01*
X13106786Y-15099214D01*
X13378214Y-15384929D02*
X13349643Y-15399214D01*
X13292500Y-15399214D01*
X13263928Y-15384929D01*
X13249643Y-15356357D01*
X13249643Y-15242071D01*
X13263928Y-15213500D01*
X13292500Y-15199214D01*
X13349643Y-15199214D01*
X13378214Y-15213500D01*
X13392500Y-15242071D01*
X13392500Y-15270643D01*
X13249643Y-15299214D01*
X13506786Y-15384929D02*
X13535357Y-15399214D01*
X13592500Y-15399214D01*
X13621071Y-15384929D01*
X13635357Y-15356357D01*
X13635357Y-15342071D01*
X13621071Y-15313500D01*
X13592500Y-15299214D01*
X13549643Y-15299214D01*
X13521071Y-15284929D01*
X13506786Y-15256357D01*
X13506786Y-15242071D01*
X13521071Y-15213500D01*
X13549643Y-15199214D01*
X13592500Y-15199214D01*
X13621071Y-15213500D01*
X13735357Y-15513500D02*
X13749643Y-15499214D01*
X13778214Y-15456357D01*
X13792500Y-15427786D01*
X13806786Y-15384929D01*
X13821071Y-15313500D01*
X13821071Y-15256357D01*
X13806786Y-15184929D01*
X13792500Y-15142071D01*
X13778214Y-15113500D01*
X13749643Y-15070643D01*
X13735357Y-15056357D01*
X6592500Y-15559500D02*
X6592500Y-15759500D01*
X6492500Y-15659500D02*
X6692500Y-15659500D01*
X6949643Y-15523786D02*
X6963928Y-15509500D01*
X6992500Y-15495214D01*
X7063928Y-15495214D01*
X7092500Y-15509500D01*
X7106786Y-15523786D01*
X7121071Y-15552357D01*
X7121071Y-15580929D01*
X7106786Y-15623786D01*
X6935357Y-15795214D01*
X7121071Y-15795214D01*
X7249643Y-15766643D02*
X7263928Y-15780929D01*
X7249643Y-15795214D01*
X7235357Y-15780929D01*
X7249643Y-15766643D01*
X7249643Y-15795214D01*
X7449643Y-15495214D02*
X7478214Y-15495214D01*
X7506786Y-15509500D01*
X7521071Y-15523786D01*
X7535357Y-15552357D01*
X7549643Y-15609500D01*
X7549643Y-15680929D01*
X7535357Y-15738071D01*
X7521071Y-15766643D01*
X7506786Y-15780929D01*
X7478214Y-15795214D01*
X7449643Y-15795214D01*
X7421071Y-15780929D01*
X7406786Y-15766643D01*
X7392500Y-15738071D01*
X7378214Y-15680929D01*
X7378214Y-15609500D01*
X7392500Y-15552357D01*
X7406786Y-15523786D01*
X7421071Y-15509500D01*
X7449643Y-15495214D01*
X7735357Y-15495214D02*
X7763928Y-15495214D01*
X7792500Y-15509500D01*
X7806786Y-15523786D01*
X7821071Y-15552357D01*
X7835357Y-15609500D01*
X7835357Y-15680929D01*
X7821071Y-15738071D01*
X7806786Y-15766643D01*
X7792500Y-15780929D01*
X7763928Y-15795214D01*
X7735357Y-15795214D01*
X7706786Y-15780929D01*
X7692500Y-15766643D01*
X7678214Y-15738071D01*
X7663928Y-15680929D01*
X7663928Y-15609500D01*
X7678214Y-15552357D01*
X7692500Y-15523786D01*
X7706786Y-15509500D01*
X7735357Y-15495214D01*
X7963928Y-15795214D02*
X7963928Y-15595214D01*
X7963928Y-15623786D02*
X7978214Y-15609500D01*
X8006786Y-15595214D01*
X8049643Y-15595214D01*
X8078214Y-15609500D01*
X8092500Y-15638071D01*
X8092500Y-15795214D01*
X8092500Y-15638071D02*
X8106786Y-15609500D01*
X8135357Y-15595214D01*
X8178214Y-15595214D01*
X8206786Y-15609500D01*
X8221071Y-15638071D01*
X8221071Y-15795214D01*
X8363928Y-15795214D02*
X8363928Y-15595214D01*
X8363928Y-15623786D02*
X8378214Y-15609500D01*
X8406786Y-15595214D01*
X8449643Y-15595214D01*
X8478214Y-15609500D01*
X8492500Y-15638071D01*
X8492500Y-15795214D01*
X8492500Y-15638071D02*
X8506786Y-15609500D01*
X8535357Y-15595214D01*
X8578214Y-15595214D01*
X8606786Y-15609500D01*
X8621071Y-15638071D01*
X8621071Y-15795214D01*
X9206786Y-15480929D02*
X8949643Y-15866643D01*
X9592500Y-15495214D02*
X9621071Y-15495214D01*
X9649643Y-15509500D01*
X9663928Y-15523786D01*
X9678214Y-15552357D01*
X9692500Y-15609500D01*
X9692500Y-15680929D01*
X9678214Y-15738071D01*
X9663928Y-15766643D01*
X9649643Y-15780929D01*
X9621071Y-15795214D01*
X9592500Y-15795214D01*
X9563928Y-15780929D01*
X9549643Y-15766643D01*
X9535357Y-15738071D01*
X9521071Y-15680929D01*
X9521071Y-15609500D01*
X9535357Y-15552357D01*
X9549643Y-15523786D01*
X9563928Y-15509500D01*
X9592500Y-15495214D01*
X9821071Y-15766643D02*
X9835357Y-15780929D01*
X9821071Y-15795214D01*
X9806786Y-15780929D01*
X9821071Y-15766643D01*
X9821071Y-15795214D01*
X10021071Y-15495214D02*
X10049643Y-15495214D01*
X10078214Y-15509500D01*
X10092500Y-15523786D01*
X10106786Y-15552357D01*
X10121071Y-15609500D01*
X10121071Y-15680929D01*
X10106786Y-15738071D01*
X10092500Y-15766643D01*
X10078214Y-15780929D01*
X10049643Y-15795214D01*
X10021071Y-15795214D01*
X9992500Y-15780929D01*
X9978214Y-15766643D01*
X9963928Y-15738071D01*
X9949643Y-15680929D01*
X9949643Y-15609500D01*
X9963928Y-15552357D01*
X9978214Y-15523786D01*
X9992500Y-15509500D01*
X10021071Y-15495214D01*
X10221071Y-15495214D02*
X10421071Y-15495214D01*
X10292500Y-15795214D01*
X10549643Y-15795214D02*
X10606786Y-15795214D01*
X10635357Y-15780929D01*
X10649643Y-15766643D01*
X10678214Y-15723786D01*
X10692500Y-15666643D01*
X10692500Y-15552357D01*
X10678214Y-15523786D01*
X10663928Y-15509500D01*
X10635357Y-15495214D01*
X10578214Y-15495214D01*
X10549643Y-15509500D01*
X10535357Y-15523786D01*
X10521071Y-15552357D01*
X10521071Y-15623786D01*
X10535357Y-15652357D01*
X10549643Y-15666643D01*
X10578214Y-15680929D01*
X10635357Y-15680929D01*
X10663928Y-15666643D01*
X10678214Y-15652357D01*
X10692500Y-15623786D01*
X10806786Y-15495214D02*
X10806786Y-15552357D01*
X10921071Y-15495214D02*
X10921071Y-15552357D01*
X11363928Y-15909500D02*
X11349643Y-15895214D01*
X11321071Y-15852357D01*
X11306785Y-15823786D01*
X11292500Y-15780929D01*
X11278214Y-15709500D01*
X11278214Y-15652357D01*
X11292500Y-15580929D01*
X11306785Y-15538071D01*
X11321071Y-15509500D01*
X11349643Y-15466643D01*
X11363928Y-15452357D01*
X11463928Y-15523786D02*
X11478214Y-15509500D01*
X11506785Y-15495214D01*
X11578214Y-15495214D01*
X11606785Y-15509500D01*
X11621071Y-15523786D01*
X11635357Y-15552357D01*
X11635357Y-15580929D01*
X11621071Y-15623786D01*
X11449643Y-15795214D01*
X11635357Y-15795214D01*
X11892500Y-15595214D02*
X11892500Y-15795214D01*
X11821071Y-15480929D02*
X11749643Y-15695214D01*
X11935357Y-15695214D01*
X12278214Y-15795214D02*
X12278214Y-15495214D01*
X12406785Y-15795214D02*
X12406785Y-15638071D01*
X12392500Y-15609500D01*
X12363928Y-15595214D01*
X12321071Y-15595214D01*
X12292500Y-15609500D01*
X12278214Y-15623786D01*
X12592500Y-15795214D02*
X12563928Y-15780929D01*
X12549643Y-15766643D01*
X12535357Y-15738071D01*
X12535357Y-15652357D01*
X12549643Y-15623786D01*
X12563928Y-15609500D01*
X12592500Y-15595214D01*
X12635357Y-15595214D01*
X12663928Y-15609500D01*
X12678214Y-15623786D01*
X12692500Y-15652357D01*
X12692500Y-15738071D01*
X12678214Y-15766643D01*
X12663928Y-15780929D01*
X12635357Y-15795214D01*
X12592500Y-15795214D01*
X12863928Y-15795214D02*
X12835357Y-15780929D01*
X12821071Y-15752357D01*
X12821071Y-15495214D01*
X13092500Y-15780929D02*
X13063928Y-15795214D01*
X13006786Y-15795214D01*
X12978214Y-15780929D01*
X12963928Y-15752357D01*
X12963928Y-15638071D01*
X12978214Y-15609500D01*
X13006786Y-15595214D01*
X13063928Y-15595214D01*
X13092500Y-15609500D01*
X13106786Y-15638071D01*
X13106786Y-15666643D01*
X12963928Y-15695214D01*
X13221071Y-15780929D02*
X13249643Y-15795214D01*
X13306786Y-15795214D01*
X13335357Y-15780929D01*
X13349643Y-15752357D01*
X13349643Y-15738071D01*
X13335357Y-15709500D01*
X13306786Y-15695214D01*
X13263928Y-15695214D01*
X13235357Y-15680929D01*
X13221071Y-15652357D01*
X13221071Y-15638071D01*
X13235357Y-15609500D01*
X13263928Y-15595214D01*
X13306786Y-15595214D01*
X13335357Y-15609500D01*
X13449643Y-15909500D02*
X13463928Y-15895214D01*
X13492500Y-15852357D01*
X13506786Y-15823786D01*
X13521071Y-15780929D01*
X13535357Y-15709500D01*
X13535357Y-15652357D01*
X13521071Y-15580929D01*
X13506786Y-15538071D01*
X13492500Y-15509500D01*
X13463928Y-15466643D01*
X13449643Y-15452357D01*
M02*
